%TF.GenerationSoftware,KiCad,Pcbnew,8.0.4-8.0.4-0~ubuntu22.04.1*%
%TF.CreationDate,2024-08-19T14:06:39+05:30*%
%TF.ProjectId,eps,6570732e-6b69-4636-9164-5f7063625858,rev?*%
%TF.SameCoordinates,Original*%
%TF.FileFunction,Legend,Bot*%
%TF.FilePolarity,Positive*%
%FSLAX46Y46*%
G04 Gerber Fmt 4.6, Leading zero omitted, Abs format (unit mm)*
G04 Created by KiCad (PCBNEW 8.0.4-8.0.4-0~ubuntu22.04.1) date 2024-08-19 14:06:39*
%MOMM*%
%LPD*%
G01*
G04 APERTURE LIST*
%ADD10C,0.300000*%
G04 APERTURE END LIST*
D10*
X102645489Y-141400828D02*
X102645489Y-139900828D01*
X102645489Y-140615114D02*
X101788346Y-140615114D01*
X101788346Y-141400828D02*
X101788346Y-139900828D01*
X100502631Y-141329400D02*
X100645488Y-141400828D01*
X100645488Y-141400828D02*
X100931203Y-141400828D01*
X100931203Y-141400828D02*
X101074060Y-141329400D01*
X101074060Y-141329400D02*
X101145488Y-141186542D01*
X101145488Y-141186542D02*
X101145488Y-140615114D01*
X101145488Y-140615114D02*
X101074060Y-140472257D01*
X101074060Y-140472257D02*
X100931203Y-140400828D01*
X100931203Y-140400828D02*
X100645488Y-140400828D01*
X100645488Y-140400828D02*
X100502631Y-140472257D01*
X100502631Y-140472257D02*
X100431203Y-140615114D01*
X100431203Y-140615114D02*
X100431203Y-140757971D01*
X100431203Y-140757971D02*
X101145488Y-140900828D01*
X99574060Y-141400828D02*
X99716917Y-141329400D01*
X99716917Y-141329400D02*
X99788346Y-141186542D01*
X99788346Y-141186542D02*
X99788346Y-139900828D01*
X99002632Y-141400828D02*
X99002632Y-140400828D01*
X99002632Y-139900828D02*
X99074060Y-139972257D01*
X99074060Y-139972257D02*
X99002632Y-140043685D01*
X99002632Y-140043685D02*
X98931203Y-139972257D01*
X98931203Y-139972257D02*
X99002632Y-139900828D01*
X99002632Y-139900828D02*
X99002632Y-140043685D01*
X97645489Y-140400828D02*
X97645489Y-141400828D01*
X98288346Y-140400828D02*
X98288346Y-141186542D01*
X98288346Y-141186542D02*
X98216917Y-141329400D01*
X98216917Y-141329400D02*
X98074060Y-141400828D01*
X98074060Y-141400828D02*
X97859774Y-141400828D01*
X97859774Y-141400828D02*
X97716917Y-141329400D01*
X97716917Y-141329400D02*
X97645489Y-141257971D01*
X96931203Y-141400828D02*
X96931203Y-140400828D01*
X96931203Y-140543685D02*
X96859774Y-140472257D01*
X96859774Y-140472257D02*
X96716917Y-140400828D01*
X96716917Y-140400828D02*
X96502631Y-140400828D01*
X96502631Y-140400828D02*
X96359774Y-140472257D01*
X96359774Y-140472257D02*
X96288346Y-140615114D01*
X96288346Y-140615114D02*
X96288346Y-141400828D01*
X96288346Y-140615114D02*
X96216917Y-140472257D01*
X96216917Y-140472257D02*
X96074060Y-140400828D01*
X96074060Y-140400828D02*
X95859774Y-140400828D01*
X95859774Y-140400828D02*
X95716917Y-140472257D01*
X95716917Y-140472257D02*
X95645488Y-140615114D01*
X95645488Y-140615114D02*
X95645488Y-141400828D01*
X93931203Y-140400828D02*
X93574060Y-141400828D01*
X93574060Y-141400828D02*
X93216917Y-140400828D01*
X92359774Y-139900828D02*
X92216917Y-139900828D01*
X92216917Y-139900828D02*
X92074060Y-139972257D01*
X92074060Y-139972257D02*
X92002632Y-140043685D01*
X92002632Y-140043685D02*
X91931203Y-140186542D01*
X91931203Y-140186542D02*
X91859774Y-140472257D01*
X91859774Y-140472257D02*
X91859774Y-140829400D01*
X91859774Y-140829400D02*
X91931203Y-141115114D01*
X91931203Y-141115114D02*
X92002632Y-141257971D01*
X92002632Y-141257971D02*
X92074060Y-141329400D01*
X92074060Y-141329400D02*
X92216917Y-141400828D01*
X92216917Y-141400828D02*
X92359774Y-141400828D01*
X92359774Y-141400828D02*
X92502632Y-141329400D01*
X92502632Y-141329400D02*
X92574060Y-141257971D01*
X92574060Y-141257971D02*
X92645489Y-141115114D01*
X92645489Y-141115114D02*
X92716917Y-140829400D01*
X92716917Y-140829400D02*
X92716917Y-140472257D01*
X92716917Y-140472257D02*
X92645489Y-140186542D01*
X92645489Y-140186542D02*
X92574060Y-140043685D01*
X92574060Y-140043685D02*
X92502632Y-139972257D01*
X92502632Y-139972257D02*
X92359774Y-139900828D01*
X91216918Y-141257971D02*
X91145489Y-141329400D01*
X91145489Y-141329400D02*
X91216918Y-141400828D01*
X91216918Y-141400828D02*
X91288346Y-141329400D01*
X91288346Y-141329400D02*
X91216918Y-141257971D01*
X91216918Y-141257971D02*
X91216918Y-141400828D01*
X90574060Y-140043685D02*
X90502632Y-139972257D01*
X90502632Y-139972257D02*
X90359775Y-139900828D01*
X90359775Y-139900828D02*
X90002632Y-139900828D01*
X90002632Y-139900828D02*
X89859775Y-139972257D01*
X89859775Y-139972257D02*
X89788346Y-140043685D01*
X89788346Y-140043685D02*
X89716917Y-140186542D01*
X89716917Y-140186542D02*
X89716917Y-140329400D01*
X89716917Y-140329400D02*
X89788346Y-140543685D01*
X89788346Y-140543685D02*
X90645489Y-141400828D01*
X90645489Y-141400828D02*
X89716917Y-141400828D01*
M02*
