%TF.GenerationSoftware,KiCad,Pcbnew,8.0.3-8.0.3-0~ubuntu22.04.1*%
%TF.CreationDate,2024-06-19T22:48:01+05:30*%
%TF.ProjectId,eps,6570732e-6b69-4636-9164-5f7063625858,rev?*%
%TF.SameCoordinates,Original*%
%TF.FileFunction,Legend,Top*%
%TF.FilePolarity,Positive*%
%FSLAX46Y46*%
G04 Gerber Fmt 4.6, Leading zero omitted, Abs format (unit mm)*
G04 Created by KiCad (PCBNEW 8.0.3-8.0.3-0~ubuntu22.04.1) date 2024-06-19 22:48:01*
%MOMM*%
%LPD*%
G01*
G04 APERTURE LIST*
%ADD10C,0.150000*%
%ADD11C,0.120000*%
G04 APERTURE END LIST*
D10*
X101666666Y-123254819D02*
X101333333Y-122778628D01*
X101095238Y-123254819D02*
X101095238Y-122254819D01*
X101095238Y-122254819D02*
X101476190Y-122254819D01*
X101476190Y-122254819D02*
X101571428Y-122302438D01*
X101571428Y-122302438D02*
X101619047Y-122350057D01*
X101619047Y-122350057D02*
X101666666Y-122445295D01*
X101666666Y-122445295D02*
X101666666Y-122588152D01*
X101666666Y-122588152D02*
X101619047Y-122683390D01*
X101619047Y-122683390D02*
X101571428Y-122731009D01*
X101571428Y-122731009D02*
X101476190Y-122778628D01*
X101476190Y-122778628D02*
X101095238Y-122778628D01*
X102095238Y-122731009D02*
X102428571Y-122731009D01*
X102571428Y-123254819D02*
X102095238Y-123254819D01*
X102095238Y-123254819D02*
X102095238Y-122254819D01*
X102095238Y-122254819D02*
X102571428Y-122254819D01*
X103333333Y-122731009D02*
X103000000Y-122731009D01*
X103000000Y-123254819D02*
X103000000Y-122254819D01*
X103000000Y-122254819D02*
X103476190Y-122254819D01*
X104000000Y-122254819D02*
X104000000Y-122492914D01*
X103761905Y-122397676D02*
X104000000Y-122492914D01*
X104000000Y-122492914D02*
X104238095Y-122397676D01*
X103857143Y-122683390D02*
X104000000Y-122492914D01*
X104000000Y-122492914D02*
X104142857Y-122683390D01*
X104761905Y-122254819D02*
X104761905Y-122492914D01*
X104523810Y-122397676D02*
X104761905Y-122492914D01*
X104761905Y-122492914D02*
X105000000Y-122397676D01*
X104619048Y-122683390D02*
X104761905Y-122492914D01*
X104761905Y-122492914D02*
X104904762Y-122683390D01*
X143654285Y-104691009D02*
X143797142Y-104738628D01*
X143797142Y-104738628D02*
X143844761Y-104786247D01*
X143844761Y-104786247D02*
X143892380Y-104881485D01*
X143892380Y-104881485D02*
X143892380Y-105024342D01*
X143892380Y-105024342D02*
X143844761Y-105119580D01*
X143844761Y-105119580D02*
X143797142Y-105167200D01*
X143797142Y-105167200D02*
X143701904Y-105214819D01*
X143701904Y-105214819D02*
X143320952Y-105214819D01*
X143320952Y-105214819D02*
X143320952Y-104214819D01*
X143320952Y-104214819D02*
X143654285Y-104214819D01*
X143654285Y-104214819D02*
X143749523Y-104262438D01*
X143749523Y-104262438D02*
X143797142Y-104310057D01*
X143797142Y-104310057D02*
X143844761Y-104405295D01*
X143844761Y-104405295D02*
X143844761Y-104500533D01*
X143844761Y-104500533D02*
X143797142Y-104595771D01*
X143797142Y-104595771D02*
X143749523Y-104643390D01*
X143749523Y-104643390D02*
X143654285Y-104691009D01*
X143654285Y-104691009D02*
X143320952Y-104691009D01*
X144178095Y-104214819D02*
X144749523Y-104214819D01*
X144463809Y-105214819D02*
X144463809Y-104214819D01*
X145035238Y-104310057D02*
X145082857Y-104262438D01*
X145082857Y-104262438D02*
X145178095Y-104214819D01*
X145178095Y-104214819D02*
X145416190Y-104214819D01*
X145416190Y-104214819D02*
X145511428Y-104262438D01*
X145511428Y-104262438D02*
X145559047Y-104310057D01*
X145559047Y-104310057D02*
X145606666Y-104405295D01*
X145606666Y-104405295D02*
X145606666Y-104500533D01*
X145606666Y-104500533D02*
X145559047Y-104643390D01*
X145559047Y-104643390D02*
X144987619Y-105214819D01*
X144987619Y-105214819D02*
X145606666Y-105214819D01*
X143994285Y-34531009D02*
X144137142Y-34578628D01*
X144137142Y-34578628D02*
X144184761Y-34626247D01*
X144184761Y-34626247D02*
X144232380Y-34721485D01*
X144232380Y-34721485D02*
X144232380Y-34864342D01*
X144232380Y-34864342D02*
X144184761Y-34959580D01*
X144184761Y-34959580D02*
X144137142Y-35007200D01*
X144137142Y-35007200D02*
X144041904Y-35054819D01*
X144041904Y-35054819D02*
X143660952Y-35054819D01*
X143660952Y-35054819D02*
X143660952Y-34054819D01*
X143660952Y-34054819D02*
X143994285Y-34054819D01*
X143994285Y-34054819D02*
X144089523Y-34102438D01*
X144089523Y-34102438D02*
X144137142Y-34150057D01*
X144137142Y-34150057D02*
X144184761Y-34245295D01*
X144184761Y-34245295D02*
X144184761Y-34340533D01*
X144184761Y-34340533D02*
X144137142Y-34435771D01*
X144137142Y-34435771D02*
X144089523Y-34483390D01*
X144089523Y-34483390D02*
X143994285Y-34531009D01*
X143994285Y-34531009D02*
X143660952Y-34531009D01*
X144518095Y-34054819D02*
X145089523Y-34054819D01*
X144803809Y-35054819D02*
X144803809Y-34054819D01*
X145946666Y-35054819D02*
X145375238Y-35054819D01*
X145660952Y-35054819D02*
X145660952Y-34054819D01*
X145660952Y-34054819D02*
X145565714Y-34197676D01*
X145565714Y-34197676D02*
X145470476Y-34292914D01*
X145470476Y-34292914D02*
X145375238Y-34340533D01*
X185666666Y-123254819D02*
X185333333Y-122778628D01*
X185095238Y-123254819D02*
X185095238Y-122254819D01*
X185095238Y-122254819D02*
X185476190Y-122254819D01*
X185476190Y-122254819D02*
X185571428Y-122302438D01*
X185571428Y-122302438D02*
X185619047Y-122350057D01*
X185619047Y-122350057D02*
X185666666Y-122445295D01*
X185666666Y-122445295D02*
X185666666Y-122588152D01*
X185666666Y-122588152D02*
X185619047Y-122683390D01*
X185619047Y-122683390D02*
X185571428Y-122731009D01*
X185571428Y-122731009D02*
X185476190Y-122778628D01*
X185476190Y-122778628D02*
X185095238Y-122778628D01*
X186095238Y-122731009D02*
X186428571Y-122731009D01*
X186571428Y-123254819D02*
X186095238Y-123254819D01*
X186095238Y-123254819D02*
X186095238Y-122254819D01*
X186095238Y-122254819D02*
X186571428Y-122254819D01*
X187333333Y-122731009D02*
X187000000Y-122731009D01*
X187000000Y-123254819D02*
X187000000Y-122254819D01*
X187000000Y-122254819D02*
X187476190Y-122254819D01*
X188000000Y-122254819D02*
X188000000Y-122492914D01*
X187761905Y-122397676D02*
X188000000Y-122492914D01*
X188000000Y-122492914D02*
X188238095Y-122397676D01*
X187857143Y-122683390D02*
X188000000Y-122492914D01*
X188000000Y-122492914D02*
X188142857Y-122683390D01*
X188761905Y-122254819D02*
X188761905Y-122492914D01*
X188523810Y-122397676D02*
X188761905Y-122492914D01*
X188761905Y-122492914D02*
X189000000Y-122397676D01*
X188619048Y-122683390D02*
X188761905Y-122492914D01*
X188761905Y-122492914D02*
X188904762Y-122683390D01*
X147714285Y-105271009D02*
X147857142Y-105318628D01*
X147857142Y-105318628D02*
X147904761Y-105366247D01*
X147904761Y-105366247D02*
X147952380Y-105461485D01*
X147952380Y-105461485D02*
X147952380Y-105604342D01*
X147952380Y-105604342D02*
X147904761Y-105699580D01*
X147904761Y-105699580D02*
X147857142Y-105747200D01*
X147857142Y-105747200D02*
X147761904Y-105794819D01*
X147761904Y-105794819D02*
X147380952Y-105794819D01*
X147380952Y-105794819D02*
X147380952Y-104794819D01*
X147380952Y-104794819D02*
X147714285Y-104794819D01*
X147714285Y-104794819D02*
X147809523Y-104842438D01*
X147809523Y-104842438D02*
X147857142Y-104890057D01*
X147857142Y-104890057D02*
X147904761Y-104985295D01*
X147904761Y-104985295D02*
X147904761Y-105080533D01*
X147904761Y-105080533D02*
X147857142Y-105175771D01*
X147857142Y-105175771D02*
X147809523Y-105223390D01*
X147809523Y-105223390D02*
X147714285Y-105271009D01*
X147714285Y-105271009D02*
X147380952Y-105271009D01*
X148238095Y-104794819D02*
X148809523Y-104794819D01*
X148523809Y-105794819D02*
X148523809Y-104794819D01*
X149571428Y-105128152D02*
X149571428Y-105794819D01*
X149333333Y-104747200D02*
X149095238Y-105461485D01*
X149095238Y-105461485D02*
X149714285Y-105461485D01*
X185666666Y-33254819D02*
X185333333Y-32778628D01*
X185095238Y-33254819D02*
X185095238Y-32254819D01*
X185095238Y-32254819D02*
X185476190Y-32254819D01*
X185476190Y-32254819D02*
X185571428Y-32302438D01*
X185571428Y-32302438D02*
X185619047Y-32350057D01*
X185619047Y-32350057D02*
X185666666Y-32445295D01*
X185666666Y-32445295D02*
X185666666Y-32588152D01*
X185666666Y-32588152D02*
X185619047Y-32683390D01*
X185619047Y-32683390D02*
X185571428Y-32731009D01*
X185571428Y-32731009D02*
X185476190Y-32778628D01*
X185476190Y-32778628D02*
X185095238Y-32778628D01*
X186095238Y-32731009D02*
X186428571Y-32731009D01*
X186571428Y-33254819D02*
X186095238Y-33254819D01*
X186095238Y-33254819D02*
X186095238Y-32254819D01*
X186095238Y-32254819D02*
X186571428Y-32254819D01*
X187333333Y-32731009D02*
X187000000Y-32731009D01*
X187000000Y-33254819D02*
X187000000Y-32254819D01*
X187000000Y-32254819D02*
X187476190Y-32254819D01*
X188000000Y-32254819D02*
X188000000Y-32492914D01*
X187761905Y-32397676D02*
X188000000Y-32492914D01*
X188000000Y-32492914D02*
X188238095Y-32397676D01*
X187857143Y-32683390D02*
X188000000Y-32492914D01*
X188000000Y-32492914D02*
X188142857Y-32683390D01*
X188761905Y-32254819D02*
X188761905Y-32492914D01*
X188523810Y-32397676D02*
X188761905Y-32492914D01*
X188761905Y-32492914D02*
X189000000Y-32397676D01*
X188619048Y-32683390D02*
X188761905Y-32492914D01*
X188761905Y-32492914D02*
X188904762Y-32683390D01*
X101666666Y-33254819D02*
X101333333Y-32778628D01*
X101095238Y-33254819D02*
X101095238Y-32254819D01*
X101095238Y-32254819D02*
X101476190Y-32254819D01*
X101476190Y-32254819D02*
X101571428Y-32302438D01*
X101571428Y-32302438D02*
X101619047Y-32350057D01*
X101619047Y-32350057D02*
X101666666Y-32445295D01*
X101666666Y-32445295D02*
X101666666Y-32588152D01*
X101666666Y-32588152D02*
X101619047Y-32683390D01*
X101619047Y-32683390D02*
X101571428Y-32731009D01*
X101571428Y-32731009D02*
X101476190Y-32778628D01*
X101476190Y-32778628D02*
X101095238Y-32778628D01*
X102095238Y-32731009D02*
X102428571Y-32731009D01*
X102571428Y-33254819D02*
X102095238Y-33254819D01*
X102095238Y-33254819D02*
X102095238Y-32254819D01*
X102095238Y-32254819D02*
X102571428Y-32254819D01*
X103333333Y-32731009D02*
X103000000Y-32731009D01*
X103000000Y-33254819D02*
X103000000Y-32254819D01*
X103000000Y-32254819D02*
X103476190Y-32254819D01*
X104000000Y-32254819D02*
X104000000Y-32492914D01*
X103761905Y-32397676D02*
X104000000Y-32492914D01*
X104000000Y-32492914D02*
X104238095Y-32397676D01*
X103857143Y-32683390D02*
X104000000Y-32492914D01*
X104000000Y-32492914D02*
X104142857Y-32683390D01*
X104761905Y-32254819D02*
X104761905Y-32492914D01*
X104523810Y-32397676D02*
X104761905Y-32492914D01*
X104761905Y-32492914D02*
X105000000Y-32397676D01*
X104619048Y-32683390D02*
X104761905Y-32492914D01*
X104761905Y-32492914D02*
X104904762Y-32683390D01*
X143654285Y-81111009D02*
X143797142Y-81158628D01*
X143797142Y-81158628D02*
X143844761Y-81206247D01*
X143844761Y-81206247D02*
X143892380Y-81301485D01*
X143892380Y-81301485D02*
X143892380Y-81444342D01*
X143892380Y-81444342D02*
X143844761Y-81539580D01*
X143844761Y-81539580D02*
X143797142Y-81587200D01*
X143797142Y-81587200D02*
X143701904Y-81634819D01*
X143701904Y-81634819D02*
X143320952Y-81634819D01*
X143320952Y-81634819D02*
X143320952Y-80634819D01*
X143320952Y-80634819D02*
X143654285Y-80634819D01*
X143654285Y-80634819D02*
X143749523Y-80682438D01*
X143749523Y-80682438D02*
X143797142Y-80730057D01*
X143797142Y-80730057D02*
X143844761Y-80825295D01*
X143844761Y-80825295D02*
X143844761Y-80920533D01*
X143844761Y-80920533D02*
X143797142Y-81015771D01*
X143797142Y-81015771D02*
X143749523Y-81063390D01*
X143749523Y-81063390D02*
X143654285Y-81111009D01*
X143654285Y-81111009D02*
X143320952Y-81111009D01*
X144178095Y-80634819D02*
X144749523Y-80634819D01*
X144463809Y-81634819D02*
X144463809Y-80634819D01*
X144987619Y-80634819D02*
X145606666Y-80634819D01*
X145606666Y-80634819D02*
X145273333Y-81015771D01*
X145273333Y-81015771D02*
X145416190Y-81015771D01*
X145416190Y-81015771D02*
X145511428Y-81063390D01*
X145511428Y-81063390D02*
X145559047Y-81111009D01*
X145559047Y-81111009D02*
X145606666Y-81206247D01*
X145606666Y-81206247D02*
X145606666Y-81444342D01*
X145606666Y-81444342D02*
X145559047Y-81539580D01*
X145559047Y-81539580D02*
X145511428Y-81587200D01*
X145511428Y-81587200D02*
X145416190Y-81634819D01*
X145416190Y-81634819D02*
X145130476Y-81634819D01*
X145130476Y-81634819D02*
X145035238Y-81587200D01*
X145035238Y-81587200D02*
X144987619Y-81539580D01*
X150839764Y-84179580D02*
X150792145Y-84227200D01*
X150792145Y-84227200D02*
X150649288Y-84274819D01*
X150649288Y-84274819D02*
X150554050Y-84274819D01*
X150554050Y-84274819D02*
X150411193Y-84227200D01*
X150411193Y-84227200D02*
X150315955Y-84131961D01*
X150315955Y-84131961D02*
X150268336Y-84036723D01*
X150268336Y-84036723D02*
X150220717Y-83846247D01*
X150220717Y-83846247D02*
X150220717Y-83703390D01*
X150220717Y-83703390D02*
X150268336Y-83512914D01*
X150268336Y-83512914D02*
X150315955Y-83417676D01*
X150315955Y-83417676D02*
X150411193Y-83322438D01*
X150411193Y-83322438D02*
X150554050Y-83274819D01*
X150554050Y-83274819D02*
X150649288Y-83274819D01*
X150649288Y-83274819D02*
X150792145Y-83322438D01*
X150792145Y-83322438D02*
X150839764Y-83370057D01*
X151220717Y-83370057D02*
X151268336Y-83322438D01*
X151268336Y-83322438D02*
X151363574Y-83274819D01*
X151363574Y-83274819D02*
X151601669Y-83274819D01*
X151601669Y-83274819D02*
X151696907Y-83322438D01*
X151696907Y-83322438D02*
X151744526Y-83370057D01*
X151744526Y-83370057D02*
X151792145Y-83465295D01*
X151792145Y-83465295D02*
X151792145Y-83560533D01*
X151792145Y-83560533D02*
X151744526Y-83703390D01*
X151744526Y-83703390D02*
X151173098Y-84274819D01*
X151173098Y-84274819D02*
X151792145Y-84274819D01*
X173408095Y-33574819D02*
X173408095Y-32574819D01*
X173408095Y-32574819D02*
X173646190Y-32574819D01*
X173646190Y-32574819D02*
X173789047Y-32622438D01*
X173789047Y-32622438D02*
X173884285Y-32717676D01*
X173884285Y-32717676D02*
X173931904Y-32812914D01*
X173931904Y-32812914D02*
X173979523Y-33003390D01*
X173979523Y-33003390D02*
X173979523Y-33146247D01*
X173979523Y-33146247D02*
X173931904Y-33336723D01*
X173931904Y-33336723D02*
X173884285Y-33431961D01*
X173884285Y-33431961D02*
X173789047Y-33527200D01*
X173789047Y-33527200D02*
X173646190Y-33574819D01*
X173646190Y-33574819D02*
X173408095Y-33574819D01*
X174455714Y-33574819D02*
X174646190Y-33574819D01*
X174646190Y-33574819D02*
X174741428Y-33527200D01*
X174741428Y-33527200D02*
X174789047Y-33479580D01*
X174789047Y-33479580D02*
X174884285Y-33336723D01*
X174884285Y-33336723D02*
X174931904Y-33146247D01*
X174931904Y-33146247D02*
X174931904Y-32765295D01*
X174931904Y-32765295D02*
X174884285Y-32670057D01*
X174884285Y-32670057D02*
X174836666Y-32622438D01*
X174836666Y-32622438D02*
X174741428Y-32574819D01*
X174741428Y-32574819D02*
X174550952Y-32574819D01*
X174550952Y-32574819D02*
X174455714Y-32622438D01*
X174455714Y-32622438D02*
X174408095Y-32670057D01*
X174408095Y-32670057D02*
X174360476Y-32765295D01*
X174360476Y-32765295D02*
X174360476Y-33003390D01*
X174360476Y-33003390D02*
X174408095Y-33098628D01*
X174408095Y-33098628D02*
X174455714Y-33146247D01*
X174455714Y-33146247D02*
X174550952Y-33193866D01*
X174550952Y-33193866D02*
X174741428Y-33193866D01*
X174741428Y-33193866D02*
X174836666Y-33146247D01*
X174836666Y-33146247D02*
X174884285Y-33098628D01*
X174884285Y-33098628D02*
X174931904Y-33003390D01*
D11*
%TO.C,BT2*%
X100690000Y-99260000D02*
X103190000Y-99260000D01*
X105800000Y-82820000D02*
X183080000Y-82820000D01*
X105800000Y-89820000D02*
X105800000Y-82820000D01*
X105800000Y-96700000D02*
X105800000Y-103680000D01*
X105800000Y-103700000D02*
X183080000Y-103700000D01*
X183080000Y-82820000D02*
X183080000Y-89820000D01*
X183080000Y-96700000D02*
X187440000Y-96700000D01*
X183080000Y-103700000D02*
X183080000Y-96700000D01*
X186940000Y-98010000D02*
X186940000Y-100510000D01*
X188190000Y-99260000D02*
X185690000Y-99260000D01*
%TO.C,BT1*%
X101030000Y-40100000D02*
X103530000Y-40100000D01*
X102280000Y-41350000D02*
X102280000Y-38850000D01*
X106140000Y-35660000D02*
X106140000Y-42660000D01*
X106140000Y-42660000D02*
X101780000Y-42660000D01*
X106140000Y-56540000D02*
X106140000Y-49540000D01*
X183420000Y-35660000D02*
X106140000Y-35660000D01*
X183420000Y-42660000D02*
X183420000Y-35680000D01*
X183420000Y-49540000D02*
X183420000Y-56540000D01*
X183420000Y-56540000D02*
X106140000Y-56540000D01*
X188530000Y-40100000D02*
X186030000Y-40100000D01*
%TO.C,BT4*%
X101030000Y-110840000D02*
X103530000Y-110840000D01*
X102280000Y-112090000D02*
X102280000Y-109590000D01*
X106140000Y-106400000D02*
X106140000Y-113400000D01*
X106140000Y-113400000D02*
X101780000Y-113400000D01*
X106140000Y-127280000D02*
X106140000Y-120280000D01*
X183420000Y-106400000D02*
X106140000Y-106400000D01*
X183420000Y-113400000D02*
X183420000Y-106420000D01*
X183420000Y-120280000D02*
X183420000Y-127280000D01*
X183420000Y-127280000D02*
X106140000Y-127280000D01*
X188530000Y-110840000D02*
X186030000Y-110840000D01*
%TO.C,BT3*%
X100690000Y-75680000D02*
X103190000Y-75680000D01*
X105800000Y-59240000D02*
X183080000Y-59240000D01*
X105800000Y-66240000D02*
X105800000Y-59240000D01*
X105800000Y-73120000D02*
X105800000Y-80100000D01*
X105800000Y-80120000D02*
X183080000Y-80120000D01*
X183080000Y-59240000D02*
X183080000Y-66240000D01*
X183080000Y-73120000D02*
X187440000Y-73120000D01*
X183080000Y-80120000D02*
X183080000Y-73120000D01*
X186940000Y-74430000D02*
X186940000Y-76930000D01*
X188190000Y-75680000D02*
X185690000Y-75680000D01*
%TD*%
M02*
