%TF.GenerationSoftware,KiCad,Pcbnew,8.0.3-8.0.3-0~ubuntu22.04.1*%
%TF.CreationDate,2024-06-19T22:47:52+05:30*%
%TF.ProjectId,eps,6570732e-6b69-4636-9164-5f7063625858,rev?*%
%TF.SameCoordinates,Original*%
%TF.FileFunction,Copper,L2,Bot*%
%TF.FilePolarity,Positive*%
%FSLAX46Y46*%
G04 Gerber Fmt 4.6, Leading zero omitted, Abs format (unit mm)*
G04 Created by KiCad (PCBNEW 8.0.3-8.0.3-0~ubuntu22.04.1) date 2024-06-19 22:47:52*
%MOMM*%
%LPD*%
G01*
G04 APERTURE LIST*
G04 Aperture macros list*
%AMRoundRect*
0 Rectangle with rounded corners*
0 $1 Rounding radius*
0 $2 $3 $4 $5 $6 $7 $8 $9 X,Y pos of 4 corners*
0 Add a 4 corners polygon primitive as box body*
4,1,4,$2,$3,$4,$5,$6,$7,$8,$9,$2,$3,0*
0 Add four circle primitives for the rounded corners*
1,1,$1+$1,$2,$3*
1,1,$1+$1,$4,$5*
1,1,$1+$1,$6,$7*
1,1,$1+$1,$8,$9*
0 Add four rect primitives between the rounded corners*
20,1,$1+$1,$2,$3,$4,$5,0*
20,1,$1+$1,$4,$5,$6,$7,0*
20,1,$1+$1,$6,$7,$8,$9,0*
20,1,$1+$1,$8,$9,$2,$3,0*%
G04 Aperture macros list end*
%TA.AperFunction,ComponentPad*%
%ADD10R,1.600000X1.600000*%
%TD*%
%TA.AperFunction,ComponentPad*%
%ADD11O,1.600000X1.600000*%
%TD*%
%TA.AperFunction,ComponentPad*%
%ADD12R,1.350000X1.350000*%
%TD*%
%TA.AperFunction,ComponentPad*%
%ADD13O,1.350000X1.350000*%
%TD*%
%TA.AperFunction,ComponentPad*%
%ADD14C,1.600000*%
%TD*%
%TA.AperFunction,ComponentPad*%
%ADD15R,2.020000X5.020000*%
%TD*%
%TA.AperFunction,ComponentPad*%
%ADD16O,2.020000X5.020000*%
%TD*%
%TA.AperFunction,ComponentPad*%
%ADD17O,1.400000X1.400000*%
%TD*%
%TA.AperFunction,ComponentPad*%
%ADD18C,1.400000*%
%TD*%
%TA.AperFunction,ComponentPad*%
%ADD19R,2.200000X2.200000*%
%TD*%
%TA.AperFunction,ComponentPad*%
%ADD20O,2.200000X2.200000*%
%TD*%
%TA.AperFunction,ComponentPad*%
%ADD21C,1.440000*%
%TD*%
%TA.AperFunction,ComponentPad*%
%ADD22R,1.800000X1.800000*%
%TD*%
%TA.AperFunction,ComponentPad*%
%ADD23C,1.800000*%
%TD*%
%TA.AperFunction,SMDPad,CuDef*%
%ADD24RoundRect,0.100000X-0.100000X0.625000X-0.100000X-0.625000X0.100000X-0.625000X0.100000X0.625000X0*%
%TD*%
%TA.AperFunction,SMDPad,CuDef*%
%ADD25R,2.850000X1.650000*%
%TD*%
%TA.AperFunction,ViaPad*%
%ADD26C,0.800000*%
%TD*%
%TA.AperFunction,Conductor*%
%ADD27C,0.250000*%
%TD*%
G04 APERTURE END LIST*
D10*
%TO.P,D6,1,K*%
%TO.N,/BatteryCharger/in*%
X160020000Y-49530000D03*
D11*
%TO.P,D6,2,A*%
%TO.N,Net-(D6-A)*%
X160020000Y-41910000D03*
%TD*%
D12*
%TO.P,SC4,1,+*%
%TO.N,Net-(D4-A)*%
X149862500Y-34000000D03*
D13*
%TO.P,SC4,2,-*%
%TO.N,GND*%
X151862500Y-34000000D03*
%TD*%
D12*
%TO.P,J2,1,Pin_1*%
%TO.N,GND*%
X126000000Y-34000000D03*
D13*
%TO.P,J2,2,Pin_2*%
%TO.N,/BatteryCharger/load*%
X124000000Y-34000000D03*
%TD*%
D14*
%TO.P,L1,1,1*%
%TO.N,Net-(D8-K)*%
X134620000Y-68660000D03*
D11*
%TO.P,L1,2,2*%
%TO.N,Net-(U1-SENSE)*%
X134620000Y-78660000D03*
%TD*%
D15*
%TO.P,J1,1*%
%TO.N,Net-(D7-A)*%
X118680000Y-106000000D03*
D16*
%TO.P,J1,2*%
%TO.N,GND*%
X113500000Y-106000000D03*
%TD*%
D17*
%TO.P,R4,2*%
%TO.N,Net-(BT1-+)*%
X141440000Y-73750000D03*
D18*
%TO.P,R4,1*%
%TO.N,Net-(U1-SENSE)*%
X141440000Y-68670000D03*
%TD*%
D14*
%TO.P,C1,1*%
%TO.N,/BatteryCharger/in*%
X177800000Y-60880000D03*
%TO.P,C1,2*%
%TO.N,GND*%
X177800000Y-55880000D03*
%TD*%
D19*
%TO.P,D13,1,K*%
%TO.N,/BatteryCharger/load*%
X129540000Y-86360000D03*
D20*
%TO.P,D13,2,A*%
%TO.N,Net-(BT1-+)*%
X119380000Y-86360000D03*
%TD*%
D18*
%TO.P,R6,1*%
%TO.N,Net-(R1-Pad2)*%
X152400000Y-75590000D03*
D17*
%TO.P,R6,2*%
%TO.N,GND*%
X147320000Y-75590000D03*
%TD*%
D18*
%TO.P,R1,1*%
%TO.N,Net-(BT1-+)*%
X147320000Y-71120000D03*
D17*
%TO.P,R1,2*%
%TO.N,Net-(R1-Pad2)*%
X152400000Y-71120000D03*
%TD*%
D10*
%TO.P,C2,1*%
%TO.N,Net-(BT1-+)*%
X152360000Y-86750000D03*
D14*
%TO.P,C2,2*%
%TO.N,GND*%
X149860000Y-86750000D03*
%TD*%
D10*
%TO.P,C5,1*%
%TO.N,Net-(BT1-+)*%
X142200000Y-86360000D03*
D14*
%TO.P,C5,2*%
%TO.N,GND*%
X139700000Y-86360000D03*
%TD*%
D21*
%TO.P,RV1,1,1*%
%TO.N,/BatteryCharger/in*%
X167640000Y-60960000D03*
%TO.P,RV1,2,2*%
%TO.N,Net-(U1-V_{IN_REG})*%
X165100000Y-58420000D03*
%TO.P,RV1,3,3*%
%TO.N,GND*%
X167640000Y-55880000D03*
%TD*%
D18*
%TO.P,R5,1*%
%TO.N,Net-(BT1-+)*%
X144590000Y-68670000D03*
D17*
%TO.P,R5,2*%
%TO.N,Net-(U1-SENSE)*%
X144590000Y-73750000D03*
%TD*%
D19*
%TO.P,D7,1,K*%
%TO.N,/BatteryCharger/in*%
X160020000Y-55880000D03*
D20*
%TO.P,D7,2,A*%
%TO.N,Net-(D7-A)*%
X149860000Y-55880000D03*
%TD*%
D19*
%TO.P,D11,1,K*%
%TO.N,Net-(D11-K)*%
X129540000Y-71120000D03*
D20*
%TO.P,D11,2,A*%
%TO.N,Net-(BT1-+)*%
X119380000Y-71120000D03*
%TD*%
D10*
%TO.P,D2,1,K*%
%TO.N,/BatteryCharger/in*%
X137668000Y-49530000D03*
D11*
%TO.P,D2,2,A*%
%TO.N,Net-(D2-A)*%
X137668000Y-41910000D03*
%TD*%
D18*
%TO.P,R7,1*%
%TO.N,Net-(U1-V_{FB})*%
X152400000Y-78740000D03*
D17*
%TO.P,R7,2*%
%TO.N,Net-(R1-Pad2)*%
X147320000Y-78740000D03*
%TD*%
D19*
%TO.P,D12,1,K*%
%TO.N,/BatteryCharger/load*%
X137160000Y-55880000D03*
D20*
%TO.P,D12,2,A*%
%TO.N,/BatteryCharger/in*%
X127000000Y-55880000D03*
%TD*%
D10*
%TO.P,D3,1,K*%
%TO.N,/BatteryCharger/in*%
X143256000Y-49530000D03*
D11*
%TO.P,D3,2,A*%
%TO.N,Net-(D3-A)*%
X143256000Y-41910000D03*
%TD*%
D10*
%TO.P,D4,1,K*%
%TO.N,/BatteryCharger/in*%
X148844000Y-49530000D03*
D11*
%TO.P,D4,2,A*%
%TO.N,Net-(D4-A)*%
X148844000Y-41910000D03*
%TD*%
D12*
%TO.P,SC3,1,+*%
%TO.N,Net-(D3-A)*%
X143771875Y-34000000D03*
D13*
%TO.P,SC3,2,-*%
%TO.N,GND*%
X145771875Y-34000000D03*
%TD*%
D18*
%TO.P,R3,1*%
%TO.N,/BatteryCharger/chrg*%
X167640000Y-48260000D03*
D17*
%TO.P,R3,2*%
%TO.N,Net-(D10-K)*%
X167640000Y-43180000D03*
%TD*%
D10*
%TO.P,D5,1,K*%
%TO.N,/BatteryCharger/in*%
X154432000Y-49530000D03*
D11*
%TO.P,D5,2,A*%
%TO.N,Net-(D5-A)*%
X154432000Y-41910000D03*
%TD*%
D19*
%TO.P,D8,1,K*%
%TO.N,Net-(D8-K)*%
X137160000Y-63500000D03*
D20*
%TO.P,D8,2,A*%
%TO.N,GND*%
X127000000Y-63500000D03*
%TD*%
D12*
%TO.P,SC6,1,+*%
%TO.N,Net-(D6-A)*%
X162043750Y-34000000D03*
D13*
%TO.P,SC6,2,-*%
%TO.N,GND*%
X164043750Y-34000000D03*
%TD*%
D14*
%TO.P,C4,1*%
%TO.N,Net-(BT1-+)*%
X154860000Y-96520000D03*
%TO.P,C4,2*%
%TO.N,GND*%
X149860000Y-96520000D03*
%TD*%
D12*
%TO.P,SC2,1,+*%
%TO.N,Net-(D2-A)*%
X137681250Y-34000000D03*
D13*
%TO.P,SC2,2,-*%
%TO.N,GND*%
X139681250Y-34000000D03*
%TD*%
D14*
%TO.P,C3,1*%
%TO.N,Net-(D11-K)*%
X144780000Y-63500000D03*
%TO.P,C3,2*%
%TO.N,Net-(D8-K)*%
X142280000Y-63500000D03*
%TD*%
D12*
%TO.P,SC5,1,+*%
%TO.N,Net-(D5-A)*%
X155953125Y-34000000D03*
D13*
%TO.P,SC5,2,-*%
%TO.N,GND*%
X157953125Y-34000000D03*
%TD*%
D22*
%TO.P,D10,1,K*%
%TO.N,Net-(D10-K)*%
X167784375Y-34060000D03*
D23*
%TO.P,D10,2,A*%
%TO.N,/BatteryCharger/in*%
X170324375Y-34060000D03*
%TD*%
D18*
%TO.P,R2,1*%
%TO.N,/BatteryCharger/fault*%
X172720000Y-48260000D03*
D17*
%TO.P,R2,2*%
%TO.N,Net-(D9-K)*%
X172720000Y-43180000D03*
%TD*%
D24*
%TO.P,U1,1,V_{IN}*%
%TO.N,/BatteryCharger/in*%
X152605000Y-60940000D03*
%TO.P,U1,2,V_{IN_REG}*%
%TO.N,Net-(U1-V_{IN_REG})*%
X153255000Y-60940000D03*
%TO.P,U1,3,~{SHDN}*%
%TO.N,/BatteryCharger/in*%
X153905000Y-60940000D03*
%TO.P,U1,4,~{CHRG}*%
%TO.N,/BatteryCharger/chrg*%
X154555000Y-60940000D03*
%TO.P,U1,5,~{FAULT}*%
%TO.N,/BatteryCharger/fault*%
X155205000Y-60940000D03*
%TO.P,U1,6,TIMER*%
%TO.N,GND*%
X155855000Y-60940000D03*
%TO.P,U1,7,V_{FB}*%
%TO.N,Net-(U1-V_{FB})*%
X155855000Y-65240000D03*
%TO.P,U1,8,NTC*%
%TO.N,unconnected-(U1-NTC-Pad8)*%
X155205000Y-65240000D03*
%TO.P,U1,9,BAT*%
%TO.N,Net-(BT1-+)*%
X154555000Y-65240000D03*
%TO.P,U1,10,SENSE*%
%TO.N,Net-(U1-SENSE)*%
X153905000Y-65240000D03*
%TO.P,U1,11,BOOST*%
%TO.N,Net-(D11-K)*%
X153255000Y-65240000D03*
%TO.P,U1,12,SW*%
%TO.N,Net-(D8-K)*%
X152605000Y-65240000D03*
D25*
%TO.P,U1,13,GND*%
%TO.N,GND*%
X154230000Y-63090000D03*
%TD*%
D10*
%TO.P,D1,1,K*%
%TO.N,/BatteryCharger/in*%
X132080000Y-49530000D03*
D11*
%TO.P,D1,2,A*%
%TO.N,Net-(D1-A)*%
X132080000Y-41910000D03*
%TD*%
D12*
%TO.P,SC1,1,+*%
%TO.N,Net-(D1-A)*%
X131590625Y-34000000D03*
D13*
%TO.P,SC1,2,-*%
%TO.N,GND*%
X133590625Y-34000000D03*
%TD*%
D22*
%TO.P,D9,1,K*%
%TO.N,Net-(D9-K)*%
X176275000Y-34000000D03*
D23*
%TO.P,D9,2,A*%
%TO.N,/BatteryCharger/in*%
X173735000Y-34000000D03*
%TD*%
D26*
%TO.N,Net-(BT1-+)*%
X140500000Y-76500000D03*
X146000000Y-89000000D03*
%TO.N,Net-(D11-K)*%
X138000000Y-77000000D03*
%TO.N,Net-(D7-A)*%
X161000000Y-71000000D03*
%TO.N,Net-(BT1-+)*%
X105450000Y-46100000D03*
X105450000Y-46100000D03*
%TO.N,Net-(U1-V_{IN_REG})*%
X152400000Y-58420000D03*
%TD*%
D27*
%TO.N,Net-(D8-K)*%
X134620000Y-68660000D02*
X134620000Y-66040000D01*
X134620000Y-66040000D02*
X137160000Y-63500000D01*
X137160000Y-63500000D02*
X142280000Y-63500000D01*
%TO.N,/BatteryCharger/in*%
X167640000Y-60960000D02*
X169020000Y-59580000D01*
X169020000Y-59580000D02*
X176500000Y-59580000D01*
X176500000Y-59580000D02*
X177800000Y-60880000D01*
%TO.N,Net-(R1-Pad2)*%
X152400000Y-71120000D02*
X152400000Y-75590000D01*
X147320000Y-78740000D02*
X149250000Y-78740000D01*
X149250000Y-78740000D02*
X152400000Y-75590000D01*
%TO.N,Net-(BT1-+)*%
X141440000Y-75060000D02*
X141440000Y-73750000D01*
X140500000Y-76500000D02*
X140500000Y-76000000D01*
X140500000Y-76000000D02*
X141440000Y-75060000D01*
X149375000Y-85625000D02*
X146000000Y-89000000D01*
X151235000Y-85625000D02*
X149375000Y-85625000D01*
X152360000Y-86750000D02*
X151235000Y-85625000D01*
%TO.N,Net-(U1-SENSE)*%
X141440000Y-68670000D02*
X141440000Y-70600000D01*
X141440000Y-70600000D02*
X144590000Y-73750000D01*
%TO.N,Net-(D11-K)*%
X138000000Y-77000000D02*
X138000000Y-70280000D01*
X138000000Y-70280000D02*
X144780000Y-63500000D01*
%TO.N,Net-(D7-A)*%
X161000000Y-71000000D02*
X161000000Y-71589569D01*
X126589569Y-106000000D02*
X118680000Y-106000000D01*
X161000000Y-71589569D02*
X126589569Y-106000000D01*
%TO.N,/BatteryCharger/load*%
X129540000Y-86360000D02*
X132500000Y-83400000D01*
X132500000Y-83400000D02*
X132500000Y-60540000D01*
X132500000Y-60540000D02*
X137160000Y-55880000D01*
%TO.N,Net-(BT1-+)*%
X119380000Y-88880000D02*
X121500000Y-91000000D01*
X119380000Y-86360000D02*
X119380000Y-88880000D01*
X121500000Y-91000000D02*
X137560000Y-91000000D01*
X137560000Y-91000000D02*
X142200000Y-86360000D01*
X119380000Y-71120000D02*
X119380000Y-60030000D01*
X119380000Y-60030000D02*
X105450000Y-46100000D01*
X119380000Y-71120000D02*
X119380000Y-86360000D01*
X149400000Y-71120000D02*
X147320000Y-71120000D01*
X154555000Y-65240000D02*
X154555000Y-65965000D01*
X154555000Y-65965000D02*
X149400000Y-71120000D01*
%TO.N,GND*%
X127000000Y-35000000D02*
X126000000Y-34000000D01*
X133590625Y-34000000D02*
X132590625Y-35000000D01*
X163043750Y-35000000D02*
X164043750Y-34000000D01*
X156508625Y-35444500D02*
X157953125Y-34000000D01*
X158953125Y-35000000D02*
X163043750Y-35000000D01*
X133590625Y-34000000D02*
X134590625Y-35000000D01*
X151862500Y-34000000D02*
X153307000Y-35444500D01*
X155855000Y-60940000D02*
X155855000Y-61665000D01*
X167640000Y-55880000D02*
X165736396Y-55880000D01*
X150862500Y-35000000D02*
X151862500Y-34000000D01*
X146771875Y-35000000D02*
X150862500Y-35000000D01*
X144771875Y-35000000D02*
X145771875Y-34000000D01*
X154430000Y-63090000D02*
X154230000Y-63090000D01*
X157953125Y-34000000D02*
X158953125Y-35000000D01*
X132590625Y-35000000D02*
X127000000Y-35000000D01*
X139681250Y-34000000D02*
X140681250Y-35000000D01*
X160676396Y-60940000D02*
X155855000Y-60940000D01*
X154230000Y-63090000D02*
X155055000Y-62265000D01*
X138681250Y-35000000D02*
X139681250Y-34000000D01*
X155855000Y-61665000D02*
X154430000Y-63090000D01*
X165736396Y-55880000D02*
X160676396Y-60940000D01*
X134590625Y-35000000D02*
X138681250Y-35000000D01*
X145771875Y-34000000D02*
X146771875Y-35000000D01*
X153307000Y-35444500D02*
X156508625Y-35444500D01*
X140681250Y-35000000D02*
X144771875Y-35000000D01*
%TO.N,/BatteryCharger/in*%
X170384375Y-34000000D02*
X170324375Y-34060000D01*
X158240000Y-55880000D02*
X160020000Y-55880000D01*
X132080000Y-50800000D02*
X132080000Y-49530000D01*
X173735000Y-34000000D02*
X170384375Y-34000000D01*
X152605000Y-60940000D02*
X143256000Y-51591000D01*
X170324375Y-34060000D02*
X160020000Y-44364375D01*
X160020000Y-44364375D02*
X160020000Y-49530000D01*
X160020000Y-49530000D02*
X160020000Y-55880000D01*
X153905000Y-60940000D02*
X153905000Y-60215000D01*
X127000000Y-55880000D02*
X132080000Y-50800000D01*
X143256000Y-51591000D02*
X143256000Y-49530000D01*
X160020000Y-49530000D02*
X132080000Y-49530000D01*
X153905000Y-60215000D02*
X158240000Y-55880000D01*
%TO.N,Net-(D11-K)*%
X152930000Y-66290000D02*
X147570000Y-66290000D01*
X153255000Y-65965000D02*
X152930000Y-66290000D01*
X153255000Y-65240000D02*
X153255000Y-65965000D01*
X147570000Y-66290000D02*
X144780000Y-63500000D01*
%TO.N,Net-(D8-K)*%
X152605000Y-65240000D02*
X149495380Y-62130380D01*
X149495380Y-62130380D02*
X143649620Y-62130380D01*
X143649620Y-62130380D02*
X142280000Y-63500000D01*
%TO.N,Net-(D2-A)*%
X137884000Y-41694000D02*
X137668000Y-41910000D01*
%TO.N,Net-(D9-K)*%
X176275000Y-34000000D02*
X176275000Y-39625000D01*
X176275000Y-39625000D02*
X172720000Y-43180000D01*
%TO.N,Net-(U1-SENSE)*%
X139680000Y-78660000D02*
X134620000Y-78660000D01*
X141440000Y-68670000D02*
X143370000Y-66740000D01*
X143370000Y-66740000D02*
X153116396Y-66740000D01*
X144590000Y-73750000D02*
X139680000Y-78660000D01*
X153116396Y-66740000D02*
X153905000Y-65951396D01*
X153905000Y-65240000D02*
X153905000Y-65978604D01*
X153905000Y-65951396D02*
X153905000Y-65240000D01*
%TO.N,/BatteryCharger/fault*%
X157000000Y-58420000D02*
X162560000Y-58420000D01*
X162560000Y-58420000D02*
X172720000Y-48260000D01*
X155205000Y-60215000D02*
X157000000Y-58420000D01*
X155205000Y-60940000D02*
X155205000Y-60215000D01*
%TO.N,/BatteryCharger/chrg*%
X161254620Y-57305000D02*
X157465000Y-57305000D01*
X167640000Y-48260000D02*
X167640000Y-50919620D01*
X167640000Y-50919620D02*
X161254620Y-57305000D01*
X157465000Y-57305000D02*
X154555000Y-60215000D01*
X154555000Y-60215000D02*
X154555000Y-60940000D01*
%TO.N,Net-(U1-V_{FB})*%
X152400000Y-78740000D02*
X155855000Y-75285000D01*
X155855000Y-75285000D02*
X155855000Y-65240000D01*
%TO.N,Net-(U1-V_{IN_REG})*%
X153255000Y-59275000D02*
X152400000Y-58420000D01*
X153255000Y-60940000D02*
X153255000Y-59275000D01*
%TD*%
M02*
