%TF.GenerationSoftware,KiCad,Pcbnew,8.0.4-8.0.4-0~ubuntu22.04.1*%
%TF.CreationDate,2024-08-19T14:06:39+05:30*%
%TF.ProjectId,eps,6570732e-6b69-4636-9164-5f7063625858,rev?*%
%TF.SameCoordinates,Original*%
%TF.FileFunction,Soldermask,Bot*%
%TF.FilePolarity,Negative*%
%FSLAX46Y46*%
G04 Gerber Fmt 4.6, Leading zero omitted, Abs format (unit mm)*
G04 Created by KiCad (PCBNEW 8.0.4-8.0.4-0~ubuntu22.04.1) date 2024-08-19 14:06:39*
%MOMM*%
%LPD*%
G01*
G04 APERTURE LIST*
%ADD10C,5.000000*%
%ADD11R,1.800000X1.800000*%
%ADD12C,1.800000*%
%ADD13C,1.600000*%
%ADD14O,1.600000X1.600000*%
%ADD15R,1.700000X1.700000*%
%ADD16O,1.700000X1.700000*%
%ADD17R,3.200000X3.200000*%
%ADD18O,3.200000X3.200000*%
%ADD19C,2.390000*%
%ADD20C,3.450000*%
%ADD21R,1.600000X1.600000*%
%ADD22R,2.200000X2.200000*%
%ADD23O,2.200000X2.200000*%
%ADD24C,2.600000*%
G04 APERTURE END LIST*
D10*
%TO.C,REF\u002A\u002A*%
X132000000Y-152000000D03*
%TD*%
%TO.C,REF\u002A\u002A*%
X58000000Y-152000000D03*
%TD*%
D11*
%TO.C,D10*%
X54460000Y-93500000D03*
D12*
X57000000Y-93500000D03*
%TD*%
D13*
%TO.C,R2*%
X78260000Y-153500000D03*
D14*
X93500000Y-153500000D03*
%TD*%
D13*
%TO.C,R12*%
X78260000Y-146550000D03*
D14*
X93500000Y-146550000D03*
%TD*%
D15*
%TO.C,SC6*%
X71200000Y-69920000D03*
D16*
X71200000Y-67380000D03*
%TD*%
D17*
%TO.C,D7*%
X109000000Y-82500000D03*
D18*
X109000000Y-67260000D03*
%TD*%
D13*
%TO.C,R10*%
X91620000Y-87300000D03*
D14*
X76380000Y-87300000D03*
%TD*%
D19*
%TO.C,BT1*%
X131930000Y-141000000D03*
D20*
X123600000Y-125000000D03*
X68400000Y-141000000D03*
%TD*%
D21*
%TO.C,D6*%
X71000000Y-82320000D03*
D14*
X71000000Y-74700000D03*
%TD*%
D13*
%TO.C,R11*%
X115120000Y-150050000D03*
D14*
X99880000Y-150050000D03*
%TD*%
D13*
%TO.C,R4*%
X138000000Y-85000000D03*
D14*
X122760000Y-85000000D03*
%TD*%
D13*
%TO.C,R7*%
X109620000Y-92000000D03*
D14*
X94380000Y-92000000D03*
%TD*%
D15*
%TO.C,SC5*%
X75650000Y-69920000D03*
D16*
X75650000Y-67380000D03*
%TD*%
D21*
%TO.C,D1*%
X94300000Y-82320000D03*
D14*
X94300000Y-74700000D03*
%TD*%
D10*
%TO.C,REF\u002A\u002A*%
X132500000Y-72000000D03*
%TD*%
D13*
%TO.C,R9*%
X109500000Y-87300000D03*
D14*
X94260000Y-87300000D03*
%TD*%
D15*
%TO.C,J3*%
X69380000Y-147050000D03*
D16*
X66840000Y-147050000D03*
%TD*%
D15*
%TO.C,SC1*%
X94250000Y-69920000D03*
D16*
X94250000Y-67380000D03*
%TD*%
D21*
%TO.C,D5*%
X75500000Y-82320000D03*
D14*
X75500000Y-74700000D03*
%TD*%
D21*
%TO.C,D3*%
X84900000Y-82320000D03*
D14*
X84900000Y-74700000D03*
%TD*%
D13*
%TO.C,R3*%
X78260000Y-157550000D03*
D14*
X93500000Y-157550000D03*
%TD*%
D13*
%TO.C,R5*%
X102500000Y-82000000D03*
D14*
X102500000Y-66760000D03*
%TD*%
D15*
%TO.C,J2*%
X53500000Y-122000000D03*
D16*
X53500000Y-119460000D03*
%TD*%
D19*
%TO.C,BT2*%
X60070000Y-101000000D03*
D20*
X68400000Y-117000000D03*
X123600000Y-101000000D03*
%TD*%
D22*
%TO.C,D8*%
X110380000Y-153550000D03*
D23*
X100220000Y-153550000D03*
%TD*%
D13*
%TO.C,C9*%
X121000000Y-149000000D03*
X123000000Y-149000000D03*
%TD*%
D11*
%TO.C,D9*%
X54460000Y-84000000D03*
D12*
X57000000Y-84000000D03*
%TD*%
D24*
%TO.C,L1*%
X120000000Y-70500000D03*
X125000000Y-70500000D03*
%TD*%
D13*
%TO.C,R6*%
X99000000Y-66760000D03*
D14*
X99000000Y-82000000D03*
%TD*%
D13*
%TO.C,R1*%
X122760000Y-81500000D03*
D14*
X138000000Y-81500000D03*
%TD*%
D21*
%TO.C,D2*%
X89600000Y-82320000D03*
D14*
X89600000Y-74700000D03*
%TD*%
D13*
%TO.C,R14*%
X115120000Y-146550000D03*
D14*
X99880000Y-146550000D03*
%TD*%
D13*
%TO.C,R13*%
X78260000Y-150050000D03*
D14*
X93500000Y-150050000D03*
%TD*%
D10*
%TO.C,REF\u002A\u002A*%
X57500000Y-72000000D03*
%TD*%
D15*
%TO.C,SC4*%
X80300000Y-69920000D03*
D16*
X80300000Y-67380000D03*
%TD*%
D15*
%TO.C,SC2*%
X89600000Y-69920000D03*
D16*
X89600000Y-67380000D03*
%TD*%
D13*
%TO.C,R8*%
X91620000Y-91800000D03*
D14*
X76380000Y-91800000D03*
%TD*%
D15*
%TO.C,SC3*%
X84950000Y-69920000D03*
D16*
X84950000Y-67380000D03*
%TD*%
D21*
%TO.C,D4*%
X80200000Y-82320000D03*
D14*
X80200000Y-74700000D03*
%TD*%
M02*
