%TF.GenerationSoftware,KiCad,Pcbnew,8.0.4-8.0.4-0~ubuntu22.04.1*%
%TF.CreationDate,2024-08-19T14:06:39+05:30*%
%TF.ProjectId,eps,6570732e-6b69-4636-9164-5f7063625858,rev?*%
%TF.SameCoordinates,Original*%
%TF.FileFunction,Paste,Top*%
%TF.FilePolarity,Positive*%
%FSLAX46Y46*%
G04 Gerber Fmt 4.6, Leading zero omitted, Abs format (unit mm)*
G04 Created by KiCad (PCBNEW 8.0.4-8.0.4-0~ubuntu22.04.1) date 2024-08-19 14:06:39*
%MOMM*%
%LPD*%
G01*
G04 APERTURE LIST*
G04 Aperture macros list*
%AMRoundRect*
0 Rectangle with rounded corners*
0 $1 Rounding radius*
0 $2 $3 $4 $5 $6 $7 $8 $9 X,Y pos of 4 corners*
0 Add a 4 corners polygon primitive as box body*
4,1,4,$2,$3,$4,$5,$6,$7,$8,$9,$2,$3,0*
0 Add four circle primitives for the rounded corners*
1,1,$1+$1,$2,$3*
1,1,$1+$1,$4,$5*
1,1,$1+$1,$6,$7*
1,1,$1+$1,$8,$9*
0 Add four rect primitives between the rounded corners*
20,1,$1+$1,$2,$3,$4,$5,0*
20,1,$1+$1,$4,$5,$6,$7,0*
20,1,$1+$1,$6,$7,$8,$9,0*
20,1,$1+$1,$8,$9,$2,$3,0*%
G04 Aperture macros list end*
%ADD10C,0.000000*%
%ADD11R,7.340000X6.350000*%
%ADD12RoundRect,0.155000X-0.212500X-0.155000X0.212500X-0.155000X0.212500X0.155000X-0.212500X0.155000X0*%
%ADD13R,0.249200X0.703200*%
%ADD14R,3.400001X1.800000*%
%ADD15RoundRect,0.250000X0.337500X0.475000X-0.337500X0.475000X-0.337500X-0.475000X0.337500X-0.475000X0*%
%ADD16RoundRect,0.237500X0.300000X0.237500X-0.300000X0.237500X-0.300000X-0.237500X0.300000X-0.237500X0*%
%ADD17RoundRect,0.090000X0.090000X-0.139000X0.090000X0.139000X-0.090000X0.139000X-0.090000X-0.139000X0*%
%ADD18R,2.180400X1.630000*%
%ADD19RoundRect,0.155000X0.155000X-0.212500X0.155000X0.212500X-0.155000X0.212500X-0.155000X-0.212500X0*%
%ADD20RoundRect,0.237500X-0.300000X-0.237500X0.300000X-0.237500X0.300000X0.237500X-0.300000X0.237500X0*%
%ADD21RoundRect,0.167500X-0.167500X-0.407500X0.167500X-0.407500X0.167500X0.407500X-0.167500X0.407500X0*%
%ADD22RoundRect,0.100000X-0.625000X-0.100000X0.625000X-0.100000X0.625000X0.100000X-0.625000X0.100000X0*%
%ADD23RoundRect,0.250000X0.475000X-0.337500X0.475000X0.337500X-0.475000X0.337500X-0.475000X-0.337500X0*%
%ADD24RoundRect,0.237500X0.237500X-0.300000X0.237500X0.300000X-0.237500X0.300000X-0.237500X-0.300000X0*%
%ADD25RoundRect,0.249999X-0.512501X-1.425001X0.512501X-1.425001X0.512501X1.425001X-0.512501X1.425001X0*%
G04 APERTURE END LIST*
D10*
%TO.C,U3*%
G36*
X116400000Y-82252400D02*
G01*
X114899999Y-82252400D01*
X114899999Y-80652400D01*
X116400000Y-80652400D01*
X116400000Y-82252400D01*
G37*
G36*
X118100001Y-82252400D02*
G01*
X116600000Y-82252400D01*
X116600000Y-80652400D01*
X118100001Y-80652400D01*
X118100001Y-82252400D01*
G37*
%TD*%
D11*
%TO.C,BT1*%
X135330000Y-133000000D03*
X56670000Y-133000000D03*
%TD*%
D12*
%TO.C,C1*%
X95932500Y-84000000D03*
X97067500Y-84000000D03*
%TD*%
D13*
%TO.C,U3*%
X118000000Y-80050800D03*
X117500001Y-80050800D03*
X116999999Y-80050800D03*
X116500000Y-80050800D03*
X115999998Y-80050800D03*
X115499999Y-80050800D03*
X115000000Y-80050800D03*
X115000000Y-82854000D03*
X115499999Y-82854000D03*
X116000001Y-82854000D03*
X116500000Y-82854000D03*
X117000002Y-82854000D03*
X117500001Y-82854000D03*
X118000000Y-82854000D03*
D14*
X116500000Y-81452400D03*
%TD*%
D12*
%TO.C,C4*%
X112932500Y-86500000D03*
X114067500Y-86500000D03*
%TD*%
D15*
%TO.C,C3*%
X123537500Y-89500000D03*
X121462500Y-89500000D03*
%TD*%
D16*
%TO.C,C5*%
X117500000Y-91500000D03*
X115775000Y-91500000D03*
%TD*%
D17*
%TO.C,C6*%
X136000000Y-92932500D03*
X136000000Y-92067500D03*
%TD*%
D18*
%TO.C,U2*%
X70214400Y-151000000D03*
X66500000Y-151000000D03*
%TD*%
D19*
%TO.C,C8*%
X113880000Y-154550000D03*
X113880000Y-153415000D03*
%TD*%
D20*
%TO.C,C2*%
X117312500Y-86500000D03*
X119037500Y-86500000D03*
%TD*%
D11*
%TO.C,BT2*%
X56670000Y-109000000D03*
X135330000Y-109000000D03*
%TD*%
D21*
%TO.C,U1*%
X68180000Y-155500000D03*
X68180000Y-156920000D03*
X69000000Y-155500000D03*
X69000000Y-156920000D03*
D22*
X66440000Y-154585000D03*
X66440000Y-155235000D03*
X66440000Y-155885000D03*
X66440000Y-156535000D03*
X66440000Y-157185000D03*
X66440000Y-157835000D03*
X70740000Y-157835000D03*
X70740000Y-157185000D03*
X70740000Y-156535000D03*
X70740000Y-155885000D03*
X70740000Y-155235000D03*
X70740000Y-154585000D03*
%TD*%
D23*
%TO.C,C7*%
X132000000Y-93575000D03*
X132000000Y-91500000D03*
%TD*%
%TO.C,C10*%
X95880000Y-149625000D03*
X95880000Y-147550000D03*
%TD*%
D24*
%TO.C,C11*%
X97880000Y-149412500D03*
X97880000Y-147687500D03*
%TD*%
D25*
%TO.C,L2*%
X118512500Y-156000000D03*
X124487500Y-156000000D03*
%TD*%
M02*
