%TF.GenerationSoftware,KiCad,Pcbnew,8.0.3-8.0.3-0~ubuntu22.04.1*%
%TF.CreationDate,2024-06-19T22:47:49+05:30*%
%TF.ProjectId,eps,6570732e-6b69-4636-9164-5f7063625858,rev?*%
%TF.SameCoordinates,Original*%
%TF.FileFunction,Copper,L1,Top*%
%TF.FilePolarity,Positive*%
%FSLAX46Y46*%
G04 Gerber Fmt 4.6, Leading zero omitted, Abs format (unit mm)*
G04 Created by KiCad (PCBNEW 8.0.3-8.0.3-0~ubuntu22.04.1) date 2024-06-19 22:47:49*
%MOMM*%
%LPD*%
G01*
G04 APERTURE LIST*
%TA.AperFunction,SMDPad,CuDef*%
%ADD10R,7.340000X6.350000*%
%TD*%
%TA.AperFunction,ComponentPad*%
%ADD11R,1.600000X1.600000*%
%TD*%
%TA.AperFunction,ComponentPad*%
%ADD12O,1.600000X1.600000*%
%TD*%
%TA.AperFunction,ComponentPad*%
%ADD13R,1.350000X1.350000*%
%TD*%
%TA.AperFunction,ComponentPad*%
%ADD14O,1.350000X1.350000*%
%TD*%
%TA.AperFunction,ComponentPad*%
%ADD15C,1.600000*%
%TD*%
%TA.AperFunction,ComponentPad*%
%ADD16R,2.020000X5.020000*%
%TD*%
%TA.AperFunction,ComponentPad*%
%ADD17O,2.020000X5.020000*%
%TD*%
%TA.AperFunction,ComponentPad*%
%ADD18O,1.400000X1.400000*%
%TD*%
%TA.AperFunction,ComponentPad*%
%ADD19C,1.400000*%
%TD*%
%TA.AperFunction,ComponentPad*%
%ADD20R,2.200000X2.200000*%
%TD*%
%TA.AperFunction,ComponentPad*%
%ADD21O,2.200000X2.200000*%
%TD*%
%TA.AperFunction,ComponentPad*%
%ADD22C,1.440000*%
%TD*%
%TA.AperFunction,ComponentPad*%
%ADD23R,1.800000X1.800000*%
%TD*%
%TA.AperFunction,ComponentPad*%
%ADD24C,1.800000*%
%TD*%
%TA.AperFunction,ViaPad*%
%ADD25C,0.800000*%
%TD*%
%TA.AperFunction,Conductor*%
%ADD26C,0.250000*%
%TD*%
G04 APERTURE END LIST*
D10*
%TO.P,BT2,1,+*%
%TO.N,Net-(BT1-+)*%
X183770000Y-93260000D03*
%TO.P,BT2,2,-*%
%TO.N,Net-(BT2--)*%
X105110000Y-93260000D03*
%TD*%
%TO.P,BT1,1,+*%
%TO.N,Net-(BT1-+)*%
X105450000Y-46100000D03*
%TO.P,BT1,2,-*%
%TO.N,Net-(BT1--)*%
X184110000Y-46100000D03*
%TD*%
%TO.P,BT4,1,+*%
%TO.N,Net-(BT2--)*%
X105450000Y-116840000D03*
%TO.P,BT4,2,-*%
%TO.N,GND*%
X184110000Y-116840000D03*
%TD*%
%TO.P,BT3,1,+*%
%TO.N,Net-(BT1--)*%
X183770000Y-69680000D03*
%TO.P,BT3,2,-*%
%TO.N,GND*%
X105110000Y-69680000D03*
%TD*%
D11*
%TO.P,D6,1,K*%
%TO.N,/BatteryCharger/in*%
X160020000Y-49530000D03*
D12*
%TO.P,D6,2,A*%
%TO.N,Net-(D6-A)*%
X160020000Y-41910000D03*
%TD*%
D13*
%TO.P,SC4,1,+*%
%TO.N,Net-(D4-A)*%
X149862500Y-34000000D03*
D14*
%TO.P,SC4,2,-*%
%TO.N,GND*%
X151862500Y-34000000D03*
%TD*%
D13*
%TO.P,J2,1,Pin_1*%
%TO.N,GND*%
X126000000Y-34000000D03*
D14*
%TO.P,J2,2,Pin_2*%
%TO.N,/BatteryCharger/load*%
X124000000Y-34000000D03*
%TD*%
D15*
%TO.P,L1,1,1*%
%TO.N,Net-(D8-K)*%
X134620000Y-68660000D03*
D12*
%TO.P,L1,2,2*%
%TO.N,Net-(U1-SENSE)*%
X134620000Y-78660000D03*
%TD*%
D16*
%TO.P,J1,1*%
%TO.N,Net-(D7-A)*%
X118680000Y-106000000D03*
D17*
%TO.P,J1,2*%
%TO.N,GND*%
X113500000Y-106000000D03*
%TD*%
D18*
%TO.P,R4,2*%
%TO.N,Net-(BT1-+)*%
X141440000Y-73750000D03*
D19*
%TO.P,R4,1*%
%TO.N,Net-(U1-SENSE)*%
X141440000Y-68670000D03*
%TD*%
D15*
%TO.P,C1,1*%
%TO.N,/BatteryCharger/in*%
X177800000Y-60880000D03*
%TO.P,C1,2*%
%TO.N,GND*%
X177800000Y-55880000D03*
%TD*%
D20*
%TO.P,D13,1,K*%
%TO.N,/BatteryCharger/load*%
X129540000Y-86360000D03*
D21*
%TO.P,D13,2,A*%
%TO.N,Net-(BT1-+)*%
X119380000Y-86360000D03*
%TD*%
D19*
%TO.P,R6,1*%
%TO.N,Net-(R1-Pad2)*%
X152400000Y-75590000D03*
D18*
%TO.P,R6,2*%
%TO.N,GND*%
X147320000Y-75590000D03*
%TD*%
D19*
%TO.P,R1,1*%
%TO.N,Net-(BT1-+)*%
X147320000Y-71120000D03*
D18*
%TO.P,R1,2*%
%TO.N,Net-(R1-Pad2)*%
X152400000Y-71120000D03*
%TD*%
D11*
%TO.P,C2,1*%
%TO.N,Net-(BT1-+)*%
X152360000Y-86750000D03*
D15*
%TO.P,C2,2*%
%TO.N,GND*%
X149860000Y-86750000D03*
%TD*%
D11*
%TO.P,C5,1*%
%TO.N,Net-(BT1-+)*%
X142200000Y-86360000D03*
D15*
%TO.P,C5,2*%
%TO.N,GND*%
X139700000Y-86360000D03*
%TD*%
D22*
%TO.P,RV1,1,1*%
%TO.N,/BatteryCharger/in*%
X167640000Y-60960000D03*
%TO.P,RV1,2,2*%
%TO.N,Net-(U1-V_{IN_REG})*%
X165100000Y-58420000D03*
%TO.P,RV1,3,3*%
%TO.N,GND*%
X167640000Y-55880000D03*
%TD*%
D19*
%TO.P,R5,1*%
%TO.N,Net-(BT1-+)*%
X144590000Y-68670000D03*
D18*
%TO.P,R5,2*%
%TO.N,Net-(U1-SENSE)*%
X144590000Y-73750000D03*
%TD*%
D20*
%TO.P,D7,1,K*%
%TO.N,/BatteryCharger/in*%
X160020000Y-55880000D03*
D21*
%TO.P,D7,2,A*%
%TO.N,Net-(D7-A)*%
X149860000Y-55880000D03*
%TD*%
D20*
%TO.P,D11,1,K*%
%TO.N,Net-(D11-K)*%
X129540000Y-71120000D03*
D21*
%TO.P,D11,2,A*%
%TO.N,Net-(BT1-+)*%
X119380000Y-71120000D03*
%TD*%
D11*
%TO.P,D2,1,K*%
%TO.N,/BatteryCharger/in*%
X137668000Y-49530000D03*
D12*
%TO.P,D2,2,A*%
%TO.N,Net-(D2-A)*%
X137668000Y-41910000D03*
%TD*%
D19*
%TO.P,R7,1*%
%TO.N,Net-(U1-V_{FB})*%
X152400000Y-78740000D03*
D18*
%TO.P,R7,2*%
%TO.N,Net-(R1-Pad2)*%
X147320000Y-78740000D03*
%TD*%
D20*
%TO.P,D12,1,K*%
%TO.N,/BatteryCharger/load*%
X137160000Y-55880000D03*
D21*
%TO.P,D12,2,A*%
%TO.N,/BatteryCharger/in*%
X127000000Y-55880000D03*
%TD*%
D11*
%TO.P,D3,1,K*%
%TO.N,/BatteryCharger/in*%
X143256000Y-49530000D03*
D12*
%TO.P,D3,2,A*%
%TO.N,Net-(D3-A)*%
X143256000Y-41910000D03*
%TD*%
D11*
%TO.P,D4,1,K*%
%TO.N,/BatteryCharger/in*%
X148844000Y-49530000D03*
D12*
%TO.P,D4,2,A*%
%TO.N,Net-(D4-A)*%
X148844000Y-41910000D03*
%TD*%
D13*
%TO.P,SC3,1,+*%
%TO.N,Net-(D3-A)*%
X143771875Y-34000000D03*
D14*
%TO.P,SC3,2,-*%
%TO.N,GND*%
X145771875Y-34000000D03*
%TD*%
D19*
%TO.P,R3,1*%
%TO.N,/BatteryCharger/chrg*%
X167640000Y-48260000D03*
D18*
%TO.P,R3,2*%
%TO.N,Net-(D10-K)*%
X167640000Y-43180000D03*
%TD*%
D11*
%TO.P,D5,1,K*%
%TO.N,/BatteryCharger/in*%
X154432000Y-49530000D03*
D12*
%TO.P,D5,2,A*%
%TO.N,Net-(D5-A)*%
X154432000Y-41910000D03*
%TD*%
D20*
%TO.P,D8,1,K*%
%TO.N,Net-(D8-K)*%
X137160000Y-63500000D03*
D21*
%TO.P,D8,2,A*%
%TO.N,GND*%
X127000000Y-63500000D03*
%TD*%
D13*
%TO.P,SC6,1,+*%
%TO.N,Net-(D6-A)*%
X162043750Y-34000000D03*
D14*
%TO.P,SC6,2,-*%
%TO.N,GND*%
X164043750Y-34000000D03*
%TD*%
D15*
%TO.P,C4,1*%
%TO.N,Net-(BT1-+)*%
X154860000Y-96520000D03*
%TO.P,C4,2*%
%TO.N,GND*%
X149860000Y-96520000D03*
%TD*%
D13*
%TO.P,SC2,1,+*%
%TO.N,Net-(D2-A)*%
X137681250Y-34000000D03*
D14*
%TO.P,SC2,2,-*%
%TO.N,GND*%
X139681250Y-34000000D03*
%TD*%
D15*
%TO.P,C3,1*%
%TO.N,Net-(D11-K)*%
X144780000Y-63500000D03*
%TO.P,C3,2*%
%TO.N,Net-(D8-K)*%
X142280000Y-63500000D03*
%TD*%
D13*
%TO.P,SC5,1,+*%
%TO.N,Net-(D5-A)*%
X155953125Y-34000000D03*
D14*
%TO.P,SC5,2,-*%
%TO.N,GND*%
X157953125Y-34000000D03*
%TD*%
D23*
%TO.P,D10,1,K*%
%TO.N,Net-(D10-K)*%
X167784375Y-34060000D03*
D24*
%TO.P,D10,2,A*%
%TO.N,/BatteryCharger/in*%
X170324375Y-34060000D03*
%TD*%
D19*
%TO.P,R2,1*%
%TO.N,/BatteryCharger/fault*%
X172720000Y-48260000D03*
D18*
%TO.P,R2,2*%
%TO.N,Net-(D9-K)*%
X172720000Y-43180000D03*
%TD*%
D11*
%TO.P,D1,1,K*%
%TO.N,/BatteryCharger/in*%
X132080000Y-49530000D03*
D12*
%TO.P,D1,2,A*%
%TO.N,Net-(D1-A)*%
X132080000Y-41910000D03*
%TD*%
D13*
%TO.P,SC1,1,+*%
%TO.N,Net-(D1-A)*%
X131590625Y-34000000D03*
D14*
%TO.P,SC1,2,-*%
%TO.N,GND*%
X133590625Y-34000000D03*
%TD*%
D23*
%TO.P,D9,1,K*%
%TO.N,Net-(D9-K)*%
X176275000Y-34000000D03*
D24*
%TO.P,D9,2,A*%
%TO.N,/BatteryCharger/in*%
X173735000Y-34000000D03*
%TD*%
D25*
%TO.N,Net-(BT1-+)*%
X140500000Y-76500000D03*
X146000000Y-89000000D03*
%TO.N,Net-(D11-K)*%
X138000000Y-77000000D03*
%TO.N,Net-(D7-A)*%
X161000000Y-71000000D03*
%TO.N,Net-(BT1-+)*%
X105450000Y-46100000D03*
X105450000Y-46100000D03*
%TO.N,Net-(U1-V_{IN_REG})*%
X152400000Y-58420000D03*
%TD*%
D26*
%TO.N,/BatteryCharger/in*%
X160020000Y-55880000D02*
X164037854Y-55880000D01*
X164037854Y-55880000D02*
X167640000Y-59482146D01*
X167640000Y-59482146D02*
X167640000Y-60960000D01*
%TO.N,Net-(BT1-+)*%
X144590000Y-68670000D02*
X147040000Y-71120000D01*
X147040000Y-71120000D02*
X147320000Y-71120000D01*
X144590000Y-68670000D02*
X144590000Y-70600000D01*
X144590000Y-70600000D02*
X141440000Y-73750000D01*
X142200000Y-78200000D02*
X140500000Y-76500000D01*
X142200000Y-86360000D02*
X142200000Y-78200000D01*
X146000000Y-89000000D02*
X143360000Y-86360000D01*
X143360000Y-86360000D02*
X142200000Y-86360000D01*
X152360000Y-86750000D02*
X152360000Y-87500000D01*
X152360000Y-87500000D02*
X158120000Y-93260000D01*
%TO.N,Net-(D11-K)*%
X132120000Y-71120000D02*
X138000000Y-77000000D01*
X129540000Y-71120000D02*
X132120000Y-71120000D01*
%TO.N,GND*%
X139700000Y-86360000D02*
X138275000Y-87785000D01*
X138275000Y-87785000D02*
X127215000Y-87785000D01*
X127215000Y-87785000D02*
X113500000Y-101500000D01*
X113500000Y-101500000D02*
X113500000Y-106000000D01*
%TO.N,Net-(D7-A)*%
X149860000Y-59860000D02*
X161000000Y-71000000D01*
X149860000Y-55880000D02*
X149860000Y-59860000D01*
%TO.N,Net-(BT1-+)*%
X105450000Y-46100000D02*
X106680000Y-47330000D01*
X158120000Y-93260000D02*
X154860000Y-96520000D01*
X183770000Y-93260000D02*
X158120000Y-93260000D01*
X106680000Y-47330000D02*
X106680000Y-48260000D01*
%TO.N,Net-(BT1--)*%
X184110000Y-46100000D02*
X184110000Y-69340000D01*
X184110000Y-69340000D02*
X183770000Y-69680000D01*
%TO.N,Net-(BT2--)*%
X105110000Y-93260000D02*
X105110000Y-116500000D01*
X105110000Y-116500000D02*
X105450000Y-116840000D01*
%TO.N,GND*%
X149860000Y-96520000D02*
X170180000Y-116840000D01*
X149860000Y-78130000D02*
X147320000Y-75590000D01*
X111290000Y-63500000D02*
X105110000Y-69680000D01*
X105110000Y-68520000D02*
X105110000Y-69680000D01*
X170180000Y-116840000D02*
X184110000Y-116840000D01*
X167640000Y-55880000D02*
X168685000Y-56925000D01*
X149860000Y-86750000D02*
X149860000Y-78130000D01*
X167640000Y-55880000D02*
X164043750Y-52283750D01*
X164043750Y-52283750D02*
X164043750Y-34000000D01*
X149860000Y-86750000D02*
X149860000Y-96520000D01*
X139090000Y-75590000D02*
X127000000Y-63500000D01*
X168685000Y-67925000D02*
X149860000Y-86750000D01*
X168685000Y-56925000D02*
X168685000Y-67925000D01*
X127000000Y-63500000D02*
X111290000Y-63500000D01*
X149860000Y-96520000D02*
X139700000Y-86360000D01*
X177800000Y-55880000D02*
X167640000Y-55880000D01*
X147320000Y-75590000D02*
X139090000Y-75590000D01*
%TO.N,Net-(D1-A)*%
X131590625Y-41420625D02*
X132080000Y-41910000D01*
X131590625Y-34000000D02*
X131590625Y-41420625D01*
%TO.N,Net-(D2-A)*%
X137884000Y-41694000D02*
X137668000Y-41910000D01*
X137668000Y-34013250D02*
X137681250Y-34000000D01*
X137668000Y-41910000D02*
X137668000Y-34013250D01*
%TO.N,Net-(D3-A)*%
X143256000Y-41910000D02*
X143256000Y-34515875D01*
X143256000Y-34515875D02*
X143771875Y-34000000D01*
%TO.N,Net-(D4-A)*%
X148844000Y-35018500D02*
X149862500Y-34000000D01*
X148844000Y-41910000D02*
X148844000Y-35018500D01*
%TO.N,Net-(D5-A)*%
X154432000Y-41910000D02*
X154432000Y-35521125D01*
X154432000Y-35521125D02*
X155953125Y-34000000D01*
%TO.N,Net-(D6-A)*%
X160020000Y-36023750D02*
X162043750Y-34000000D01*
X160020000Y-41910000D02*
X160020000Y-36023750D01*
%TO.N,Net-(D10-K)*%
X167640000Y-43180000D02*
X167640000Y-34204375D01*
X167640000Y-34204375D02*
X167784375Y-34060000D01*
%TO.N,/BatteryCharger/load*%
X124000000Y-39200000D02*
X137160000Y-52360000D01*
X124000000Y-34000000D02*
X124000000Y-39200000D01*
X137160000Y-52360000D02*
X137160000Y-55880000D01*
%TO.N,Net-(U1-V_{IN_REG})*%
X152400000Y-58420000D02*
X165100000Y-58420000D01*
%TD*%
M02*
