%TF.GenerationSoftware,KiCad,Pcbnew,8.0.4-8.0.4-0~ubuntu22.04.1*%
%TF.CreationDate,2024-08-19T14:06:39+05:30*%
%TF.ProjectId,eps,6570732e-6b69-4636-9164-5f7063625858,rev?*%
%TF.SameCoordinates,Original*%
%TF.FileFunction,Copper,L2,Bot*%
%TF.FilePolarity,Positive*%
%FSLAX46Y46*%
G04 Gerber Fmt 4.6, Leading zero omitted, Abs format (unit mm)*
G04 Created by KiCad (PCBNEW 8.0.4-8.0.4-0~ubuntu22.04.1) date 2024-08-19 14:06:39*
%MOMM*%
%LPD*%
G01*
G04 APERTURE LIST*
%TA.AperFunction,ComponentPad*%
%ADD10R,1.800000X1.800000*%
%TD*%
%TA.AperFunction,ComponentPad*%
%ADD11C,1.800000*%
%TD*%
%TA.AperFunction,ComponentPad*%
%ADD12C,1.600000*%
%TD*%
%TA.AperFunction,ComponentPad*%
%ADD13O,1.600000X1.600000*%
%TD*%
%TA.AperFunction,ComponentPad*%
%ADD14R,1.700000X1.700000*%
%TD*%
%TA.AperFunction,ComponentPad*%
%ADD15O,1.700000X1.700000*%
%TD*%
%TA.AperFunction,ComponentPad*%
%ADD16R,3.200000X3.200000*%
%TD*%
%TA.AperFunction,ComponentPad*%
%ADD17O,3.200000X3.200000*%
%TD*%
%TA.AperFunction,ComponentPad*%
%ADD18R,1.600000X1.600000*%
%TD*%
%TA.AperFunction,ComponentPad*%
%ADD19R,2.200000X2.200000*%
%TD*%
%TA.AperFunction,ComponentPad*%
%ADD20O,2.200000X2.200000*%
%TD*%
%TA.AperFunction,ComponentPad*%
%ADD21C,2.600000*%
%TD*%
%TA.AperFunction,ViaPad*%
%ADD22C,0.800000*%
%TD*%
%TA.AperFunction,Conductor*%
%ADD23C,0.781437*%
%TD*%
%TA.AperFunction,Conductor*%
%ADD24C,0.250000*%
%TD*%
G04 APERTURE END LIST*
D10*
%TO.P,D10,1,K*%
%TO.N,Net-(D10-K)*%
X54460000Y-93500000D03*
D11*
%TO.P,D10,2,A*%
%TO.N,/BatteryCharger/in*%
X57000000Y-93500000D03*
%TD*%
D12*
%TO.P,R2,1*%
%TO.N,/BatteryCharger/fault*%
X78260000Y-153500000D03*
D13*
%TO.P,R2,2*%
%TO.N,Net-(D9-K)*%
X93500000Y-153500000D03*
%TD*%
D12*
%TO.P,R12,1*%
%TO.N,Net-(U1-V_{FB})*%
X78260000Y-146550000D03*
D13*
%TO.P,R12,2*%
%TO.N,GND*%
X93500000Y-146550000D03*
%TD*%
D14*
%TO.P,SC6,1,+*%
%TO.N,Net-(D6-A)*%
X71200000Y-69920000D03*
D15*
%TO.P,SC6,2,-*%
%TO.N,GND*%
X71200000Y-67380000D03*
%TD*%
D16*
%TO.P,D7,1,K*%
%TO.N,Net-(D7-K)*%
X109000000Y-82500000D03*
D17*
%TO.P,D7,2,A*%
%TO.N,Net-(D7-A)*%
X109000000Y-67260000D03*
%TD*%
D12*
%TO.P,R10,1*%
%TO.N,Net-(U1-~{SHDN})*%
X91620000Y-87300000D03*
D13*
%TO.P,R10,2*%
%TO.N,GND*%
X76380000Y-87300000D03*
%TD*%
D18*
%TO.P,D6,1,K*%
%TO.N,/BatteryCharger/in*%
X71000000Y-82320000D03*
D13*
%TO.P,D6,2,A*%
%TO.N,Net-(D6-A)*%
X71000000Y-74700000D03*
%TD*%
D12*
%TO.P,R11,1*%
%TO.N,Net-(U1-SENSE)*%
X115120000Y-150050000D03*
D13*
%TO.P,R11,2*%
%TO.N,+5V*%
X99880000Y-150050000D03*
%TD*%
D12*
%TO.P,R4,1*%
%TO.N,Net-(U3-VC)*%
X138000000Y-85000000D03*
D13*
%TO.P,R4,2*%
%TO.N,Net-(C3-Pad1)*%
X122760000Y-85000000D03*
%TD*%
D12*
%TO.P,R7,1*%
%TO.N,/BatteryCharger/in*%
X109620000Y-92000000D03*
D13*
%TO.P,R7,2*%
%TO.N,Net-(U1-V_{IN_REG})*%
X94380000Y-92000000D03*
%TD*%
D14*
%TO.P,SC5,1,+*%
%TO.N,Net-(D5-A)*%
X75650000Y-69920000D03*
D15*
%TO.P,SC5,2,-*%
%TO.N,GND*%
X75650000Y-67380000D03*
%TD*%
D18*
%TO.P,D1,1,K*%
%TO.N,/BatteryCharger/in*%
X94300000Y-82320000D03*
D13*
%TO.P,D1,2,A*%
%TO.N,Net-(D1-A)*%
X94300000Y-74700000D03*
%TD*%
D12*
%TO.P,R9,1*%
%TO.N,/BatteryCharger/in*%
X109500000Y-87300000D03*
D13*
%TO.P,R9,2*%
%TO.N,Net-(U1-~{SHDN})*%
X94260000Y-87300000D03*
%TD*%
D14*
%TO.P,J3,1,Pin_1*%
%TO.N,Net-(J3-Pin_1)*%
X69380000Y-147050000D03*
D15*
%TO.P,J3,2,Pin_2*%
%TO.N,GND*%
X66840000Y-147050000D03*
%TD*%
D14*
%TO.P,SC1,1,+*%
%TO.N,Net-(D1-A)*%
X94250000Y-69920000D03*
D15*
%TO.P,SC1,2,-*%
%TO.N,GND*%
X94250000Y-67380000D03*
%TD*%
D18*
%TO.P,D5,1,K*%
%TO.N,/BatteryCharger/in*%
X75500000Y-82320000D03*
D13*
%TO.P,D5,2,A*%
%TO.N,Net-(D5-A)*%
X75500000Y-74700000D03*
%TD*%
D18*
%TO.P,D3,1,K*%
%TO.N,/BatteryCharger/in*%
X84900000Y-82320000D03*
D13*
%TO.P,D3,2,A*%
%TO.N,Net-(D3-A)*%
X84900000Y-74700000D03*
%TD*%
D12*
%TO.P,R3,1*%
%TO.N,/BatteryCharger/chrg*%
X78260000Y-157550000D03*
D13*
%TO.P,R3,2*%
%TO.N,Net-(D10-K)*%
X93500000Y-157550000D03*
%TD*%
D12*
%TO.P,R5,1*%
%TO.N,Net-(D7-K)*%
X102500000Y-82000000D03*
D13*
%TO.P,R5,2*%
%TO.N,Net-(U3-FBN)*%
X102500000Y-66760000D03*
%TD*%
D14*
%TO.P,J2,1,Pin_1*%
%TO.N,GND*%
X53500000Y-122000000D03*
D15*
%TO.P,J2,2,Pin_2*%
%TO.N,+5V*%
X53500000Y-119460000D03*
%TD*%
D19*
%TO.P,D8,1,K*%
%TO.N,Net-(D8-K)*%
X110380000Y-153550000D03*
D20*
%TO.P,D8,2,A*%
%TO.N,+5V*%
X100220000Y-153550000D03*
%TD*%
D12*
%TO.P,C9,1*%
%TO.N,+5V*%
X121000000Y-149000000D03*
%TO.P,C9,2*%
%TO.N,Net-(C9-Pad2)*%
X123000000Y-149000000D03*
%TD*%
D10*
%TO.P,D9,1,K*%
%TO.N,Net-(D9-K)*%
X54460000Y-84000000D03*
D11*
%TO.P,D9,2,A*%
%TO.N,/BatteryCharger/in*%
X57000000Y-84000000D03*
%TD*%
D21*
%TO.P,L1,1,1*%
%TO.N,Net-(U3-L)*%
X120000000Y-70500000D03*
%TO.P,L1,2,2*%
%TO.N,Net-(D7-A)*%
X125000000Y-70500000D03*
%TD*%
D12*
%TO.P,R6,1*%
%TO.N,Net-(U3-FBN)*%
X99000000Y-66760000D03*
D13*
%TO.P,R6,2*%
%TO.N,GND*%
X99000000Y-82000000D03*
%TD*%
D12*
%TO.P,R1,1*%
%TO.N,Net-(U3-RT)*%
X122760000Y-81500000D03*
D13*
%TO.P,R1,2*%
%TO.N,GND*%
X138000000Y-81500000D03*
%TD*%
D18*
%TO.P,D2,1,K*%
%TO.N,/BatteryCharger/in*%
X89600000Y-82320000D03*
D13*
%TO.P,D2,2,A*%
%TO.N,Net-(D2-A)*%
X89600000Y-74700000D03*
%TD*%
D12*
%TO.P,R14,1*%
%TO.N,Net-(C9-Pad2)*%
X115120000Y-146550000D03*
D13*
%TO.P,R14,2*%
%TO.N,GND*%
X99880000Y-146550000D03*
%TD*%
D12*
%TO.P,R13,1*%
%TO.N,Net-(U1-V_{FB})*%
X78260000Y-150050000D03*
D13*
%TO.P,R13,2*%
%TO.N,+5V*%
X93500000Y-150050000D03*
%TD*%
D14*
%TO.P,SC4,1,+*%
%TO.N,Net-(D4-A)*%
X80300000Y-69920000D03*
D15*
%TO.P,SC4,2,-*%
%TO.N,GND*%
X80300000Y-67380000D03*
%TD*%
D14*
%TO.P,SC2,1,+*%
%TO.N,Net-(D2-A)*%
X89600000Y-69920000D03*
D15*
%TO.P,SC2,2,-*%
%TO.N,GND*%
X89600000Y-67380000D03*
%TD*%
D12*
%TO.P,R8,1*%
%TO.N,Net-(U1-V_{IN_REG})*%
X91620000Y-91800000D03*
D13*
%TO.P,R8,2*%
%TO.N,GND*%
X76380000Y-91800000D03*
%TD*%
D14*
%TO.P,SC3,1,+*%
%TO.N,Net-(D3-A)*%
X84950000Y-69920000D03*
D15*
%TO.P,SC3,2,-*%
%TO.N,GND*%
X84950000Y-67380000D03*
%TD*%
D18*
%TO.P,D4,1,K*%
%TO.N,/BatteryCharger/in*%
X80200000Y-82320000D03*
D13*
%TO.P,D4,2,A*%
%TO.N,Net-(D4-A)*%
X80200000Y-74700000D03*
%TD*%
D22*
%TO.N,Net-(D8-K)*%
X89900000Y-148500000D03*
%TO.N,Net-(D9-K)*%
X96900000Y-116900000D03*
%TO.N,Net-(D10-K)*%
X80400000Y-89500000D03*
%TO.N,/BatteryCharger/fault*%
X63000000Y-156000000D03*
%TO.N,/BatteryCharger/chrg*%
X61900000Y-157500000D03*
%TO.N,Net-(U1-V_{FB})*%
X68000000Y-158775000D03*
%TO.N,Net-(U3-FBN)*%
X115500000Y-85000000D03*
X113500000Y-90000000D03*
X106000000Y-94500000D03*
X105000000Y-84000000D03*
%TO.N,Net-(D7-K)*%
X114500000Y-96500000D03*
%TO.N,Net-(U1-SW)*%
X71300000Y-152900000D03*
X112000000Y-158100000D03*
%TO.N,Net-(J3-Pin_1)*%
X72400000Y-157500000D03*
%TO.N,Net-(U3-RT)*%
X112374697Y-81099999D03*
%TO.N,Net-(U3-VC)*%
X114500000Y-84500000D03*
%TD*%
D23*
%TO.N,GND*%
X97289281Y-83710719D02*
X79969281Y-83710719D01*
X68730719Y-145159281D02*
X66840000Y-147050000D01*
X80300000Y-67380000D02*
X84950000Y-67380000D01*
X92109281Y-145159281D02*
X68730719Y-145159281D01*
X76380000Y-137510000D02*
X66840000Y-147050000D01*
X79969281Y-83710719D02*
X76380000Y-87300000D01*
X136609281Y-80109281D02*
X138000000Y-81500000D01*
X84950000Y-67380000D02*
X89600000Y-67380000D01*
X100890719Y-80109281D02*
X136609281Y-80109281D01*
X99000000Y-72130000D02*
X99000000Y-82000000D01*
X99000000Y-82000000D02*
X97289281Y-83710719D01*
X76380000Y-91800000D02*
X76380000Y-137510000D01*
X94250000Y-67380000D02*
X99000000Y-72130000D01*
X76380000Y-87300000D02*
X76380000Y-91800000D01*
X71200000Y-67380000D02*
X75650000Y-67380000D01*
X93500000Y-146550000D02*
X92109281Y-145159281D01*
X99000000Y-82000000D02*
X100890719Y-80109281D01*
X89600000Y-67380000D02*
X94250000Y-67380000D01*
X75650000Y-67380000D02*
X80300000Y-67380000D01*
D24*
%TO.N,Net-(D8-K)*%
X97300000Y-148500000D02*
X97300000Y-152645255D01*
X89900000Y-148500000D02*
X97300000Y-148500000D01*
X97300000Y-152645255D02*
X99654745Y-155000000D01*
X99654745Y-155000000D02*
X108930000Y-155000000D01*
X108930000Y-155000000D02*
X110380000Y-153550000D01*
%TO.N,Net-(D9-K)*%
X89175000Y-149175000D02*
X93500000Y-153500000D01*
X96325000Y-147775000D02*
X89599695Y-147775000D01*
X89175000Y-148199695D02*
X89175000Y-149175000D01*
X96900000Y-116900000D02*
X96900000Y-147200000D01*
X89599695Y-147775000D02*
X89175000Y-148199695D01*
X96900000Y-147200000D02*
X96325000Y-147775000D01*
%TO.N,Net-(D10-K)*%
X125700000Y-147890991D02*
X125700000Y-134800000D01*
X94299999Y-156750001D02*
X116840990Y-156750001D01*
X93500000Y-157550000D02*
X94299999Y-156750001D01*
X116840990Y-156750001D02*
X125700000Y-147890991D01*
X125700000Y-134800000D02*
X80400000Y-89500000D01*
%TO.N,/BatteryCharger/fault*%
X66825000Y-152175000D02*
X76935000Y-152175000D01*
X63000000Y-156000000D02*
X66825000Y-152175000D01*
X76935000Y-152175000D02*
X78260000Y-153500000D01*
%TO.N,/BatteryCharger/chrg*%
X66249695Y-151725000D02*
X78075991Y-151725000D01*
X79385000Y-156425000D02*
X78260000Y-157550000D01*
X78075991Y-151725000D02*
X79385000Y-153034009D01*
X79385000Y-153034009D02*
X79385000Y-156425000D01*
X61900000Y-156074695D02*
X66249695Y-151725000D01*
X61900000Y-157500000D02*
X61900000Y-156074695D01*
%TO.N,Net-(U1-V_{FB})*%
X66644150Y-150050000D02*
X61175000Y-155519150D01*
X78260000Y-150050000D02*
X66644150Y-150050000D01*
X78260000Y-150050000D02*
X78260000Y-146550000D01*
X61175000Y-157800305D02*
X62149695Y-158775000D01*
X61175000Y-155519150D02*
X61175000Y-157800305D01*
X62149695Y-158775000D02*
X68000000Y-158775000D01*
D23*
%TO.N,+5V*%
X120200001Y-148200001D02*
X105569999Y-148200001D01*
X100220000Y-150390000D02*
X99880000Y-150050000D01*
X100220000Y-153550000D02*
X100220000Y-150390000D01*
X121000000Y-149000000D02*
X120200001Y-148200001D01*
X105569999Y-148200001D02*
X100220000Y-153550000D01*
%TO.N,Net-(U3-FBN)*%
X105000000Y-93500000D02*
X106000000Y-94500000D01*
X105000000Y-84000000D02*
X105000000Y-93500000D01*
D24*
X115500000Y-85000000D02*
X115500000Y-88000000D01*
X115500000Y-88000000D02*
X113500000Y-90000000D01*
D23*
%TO.N,Net-(D7-K)*%
X112000000Y-94000000D02*
X114500000Y-96500000D01*
X112000000Y-85500000D02*
X112000000Y-94000000D01*
X109000000Y-82500000D02*
X112000000Y-85500000D01*
D24*
%TO.N,Net-(U1-SW)*%
X111100000Y-159000000D02*
X112000000Y-158100000D01*
X71300000Y-152900000D02*
X77400000Y-159000000D01*
X77400000Y-159000000D02*
X111100000Y-159000000D01*
%TO.N,Net-(J3-Pin_1)*%
X72400000Y-157500000D02*
X70400000Y-159500000D01*
X70400000Y-159500000D02*
X62238299Y-159500000D01*
X62238299Y-159500000D02*
X60725000Y-157986701D01*
X60725000Y-157986701D02*
X60725000Y-155332754D01*
X69007754Y-147050000D02*
X69380000Y-147050000D01*
X60725000Y-155332754D02*
X69007754Y-147050000D01*
%TO.N,Net-(U3-RT)*%
X112374697Y-81099999D02*
X112774698Y-81500000D01*
X112774698Y-81500000D02*
X122760000Y-81500000D01*
%TO.N,Net-(U3-VC)*%
X115125000Y-83875000D02*
X136875000Y-83875000D01*
X114500000Y-84500000D02*
X115125000Y-83875000D01*
X136875000Y-83875000D02*
X138000000Y-85000000D01*
%TD*%
M02*
