%TF.GenerationSoftware,KiCad,Pcbnew,8.0.3-8.0.3-0~ubuntu22.04.1*%
%TF.CreationDate,2024-06-19T22:48:10+05:30*%
%TF.ProjectId,eps,6570732e-6b69-4636-9164-5f7063625858,rev?*%
%TF.SameCoordinates,Original*%
%TF.FileFunction,Soldermask,Bot*%
%TF.FilePolarity,Negative*%
%FSLAX46Y46*%
G04 Gerber Fmt 4.6, Leading zero omitted, Abs format (unit mm)*
G04 Created by KiCad (PCBNEW 8.0.3-8.0.3-0~ubuntu22.04.1) date 2024-06-19 22:48:10*
%MOMM*%
%LPD*%
G01*
G04 APERTURE LIST*
G04 Aperture macros list*
%AMRoundRect*
0 Rectangle with rounded corners*
0 $1 Rounding radius*
0 $2 $3 $4 $5 $6 $7 $8 $9 X,Y pos of 4 corners*
0 Add a 4 corners polygon primitive as box body*
4,1,4,$2,$3,$4,$5,$6,$7,$8,$9,$2,$3,0*
0 Add four circle primitives for the rounded corners*
1,1,$1+$1,$2,$3*
1,1,$1+$1,$4,$5*
1,1,$1+$1,$6,$7*
1,1,$1+$1,$8,$9*
0 Add four rect primitives between the rounded corners*
20,1,$1+$1,$2,$3,$4,$5,0*
20,1,$1+$1,$4,$5,$6,$7,0*
20,1,$1+$1,$6,$7,$8,$9,0*
20,1,$1+$1,$8,$9,$2,$3,0*%
G04 Aperture macros list end*
%ADD10C,2.100000*%
%ADD11C,2.390000*%
%ADD12C,3.450000*%
%ADD13R,1.600000X1.600000*%
%ADD14O,1.600000X1.600000*%
%ADD15R,1.350000X1.350000*%
%ADD16O,1.350000X1.350000*%
%ADD17C,1.600000*%
%ADD18R,2.020000X5.020000*%
%ADD19O,2.020000X5.020000*%
%ADD20O,1.400000X1.400000*%
%ADD21C,1.400000*%
%ADD22R,2.200000X2.200000*%
%ADD23O,2.200000X2.200000*%
%ADD24C,1.440000*%
%ADD25R,1.800000X1.800000*%
%ADD26C,1.800000*%
%ADD27RoundRect,0.100000X-0.100000X0.625000X-0.100000X-0.625000X0.100000X-0.625000X0.100000X0.625000X0*%
%ADD28R,2.850000X1.650000*%
G04 APERTURE END LIST*
D10*
%TO.C,REF\u002A\u002A*%
X103000000Y-126000000D03*
%TD*%
D11*
%TO.C,BT2*%
X180370000Y-101260000D03*
D12*
X172040000Y-85260000D03*
X116840000Y-101260000D03*
%TD*%
D11*
%TO.C,BT1*%
X108850000Y-38100000D03*
D12*
X117180000Y-54100000D03*
X172380000Y-38100000D03*
%TD*%
D10*
%TO.C,REF\u002A\u002A*%
X187000000Y-126000000D03*
%TD*%
D11*
%TO.C,BT4*%
X108850000Y-108840000D03*
D12*
X117180000Y-124840000D03*
X172380000Y-108840000D03*
%TD*%
D10*
%TO.C,REF\u002A\u002A*%
X187000000Y-36000000D03*
%TD*%
%TO.C,REF\u002A\u002A*%
X103000000Y-36000000D03*
%TD*%
D11*
%TO.C,BT3*%
X180370000Y-77680000D03*
D12*
X172040000Y-61680000D03*
X116840000Y-77680000D03*
%TD*%
D13*
%TO.C,D6*%
X160020000Y-49530000D03*
D14*
X160020000Y-41910000D03*
%TD*%
D15*
%TO.C,SC4*%
X149862500Y-34000000D03*
D16*
X151862500Y-34000000D03*
%TD*%
D15*
%TO.C,J2*%
X126000000Y-34000000D03*
D16*
X124000000Y-34000000D03*
%TD*%
D17*
%TO.C,L1*%
X134620000Y-68660000D03*
D14*
X134620000Y-78660000D03*
%TD*%
D18*
%TO.C,J1*%
X118680000Y-106000000D03*
D19*
X113500000Y-106000000D03*
%TD*%
D20*
%TO.C,R4*%
X141440000Y-73750000D03*
D21*
X141440000Y-68670000D03*
%TD*%
D17*
%TO.C,C1*%
X177800000Y-60880000D03*
X177800000Y-55880000D03*
%TD*%
D22*
%TO.C,D13*%
X129540000Y-86360000D03*
D23*
X119380000Y-86360000D03*
%TD*%
D21*
%TO.C,R6*%
X152400000Y-75590000D03*
D20*
X147320000Y-75590000D03*
%TD*%
D21*
%TO.C,R1*%
X147320000Y-71120000D03*
D20*
X152400000Y-71120000D03*
%TD*%
D13*
%TO.C,C2*%
X152360000Y-86750000D03*
D17*
X149860000Y-86750000D03*
%TD*%
D13*
%TO.C,C5*%
X142200000Y-86360000D03*
D17*
X139700000Y-86360000D03*
%TD*%
D24*
%TO.C,RV1*%
X167640000Y-60960000D03*
X165100000Y-58420000D03*
X167640000Y-55880000D03*
%TD*%
D21*
%TO.C,R5*%
X144590000Y-68670000D03*
D20*
X144590000Y-73750000D03*
%TD*%
D22*
%TO.C,D7*%
X160020000Y-55880000D03*
D23*
X149860000Y-55880000D03*
%TD*%
D22*
%TO.C,D11*%
X129540000Y-71120000D03*
D23*
X119380000Y-71120000D03*
%TD*%
D13*
%TO.C,D2*%
X137668000Y-49530000D03*
D14*
X137668000Y-41910000D03*
%TD*%
D21*
%TO.C,R7*%
X152400000Y-78740000D03*
D20*
X147320000Y-78740000D03*
%TD*%
D22*
%TO.C,D12*%
X137160000Y-55880000D03*
D23*
X127000000Y-55880000D03*
%TD*%
D13*
%TO.C,D3*%
X143256000Y-49530000D03*
D14*
X143256000Y-41910000D03*
%TD*%
D13*
%TO.C,D4*%
X148844000Y-49530000D03*
D14*
X148844000Y-41910000D03*
%TD*%
D15*
%TO.C,SC3*%
X143771875Y-34000000D03*
D16*
X145771875Y-34000000D03*
%TD*%
D21*
%TO.C,R3*%
X167640000Y-48260000D03*
D20*
X167640000Y-43180000D03*
%TD*%
D13*
%TO.C,D5*%
X154432000Y-49530000D03*
D14*
X154432000Y-41910000D03*
%TD*%
D22*
%TO.C,D8*%
X137160000Y-63500000D03*
D23*
X127000000Y-63500000D03*
%TD*%
D15*
%TO.C,SC6*%
X162043750Y-34000000D03*
D16*
X164043750Y-34000000D03*
%TD*%
D17*
%TO.C,C4*%
X154860000Y-96520000D03*
X149860000Y-96520000D03*
%TD*%
D15*
%TO.C,SC2*%
X137681250Y-34000000D03*
D16*
X139681250Y-34000000D03*
%TD*%
D17*
%TO.C,C3*%
X144780000Y-63500000D03*
X142280000Y-63500000D03*
%TD*%
D15*
%TO.C,SC5*%
X155953125Y-34000000D03*
D16*
X157953125Y-34000000D03*
%TD*%
D25*
%TO.C,D10*%
X167784375Y-34060000D03*
D26*
X170324375Y-34060000D03*
%TD*%
D21*
%TO.C,R2*%
X172720000Y-48260000D03*
D20*
X172720000Y-43180000D03*
%TD*%
D27*
%TO.C,U1*%
X152605000Y-60940000D03*
X153255000Y-60940000D03*
X153905000Y-60940000D03*
X154555000Y-60940000D03*
X155205000Y-60940000D03*
X155855000Y-60940000D03*
X155855000Y-65240000D03*
X155205000Y-65240000D03*
X154555000Y-65240000D03*
X153905000Y-65240000D03*
X153255000Y-65240000D03*
X152605000Y-65240000D03*
D28*
X154230000Y-63090000D03*
%TD*%
D13*
%TO.C,D1*%
X132080000Y-49530000D03*
D14*
X132080000Y-41910000D03*
%TD*%
D15*
%TO.C,SC1*%
X131590625Y-34000000D03*
D16*
X133590625Y-34000000D03*
%TD*%
D25*
%TO.C,D9*%
X176275000Y-34000000D03*
D26*
X173735000Y-34000000D03*
%TD*%
M02*
