%TF.GenerationSoftware,KiCad,Pcbnew,8.0.4-8.0.4-0~ubuntu22.04.1*%
%TF.CreationDate,2024-08-19T14:06:39+05:30*%
%TF.ProjectId,eps,6570732e-6b69-4636-9164-5f7063625858,rev?*%
%TF.SameCoordinates,Original*%
%TF.FileFunction,Legend,Top*%
%TF.FilePolarity,Positive*%
%FSLAX46Y46*%
G04 Gerber Fmt 4.6, Leading zero omitted, Abs format (unit mm)*
G04 Created by KiCad (PCBNEW 8.0.4-8.0.4-0~ubuntu22.04.1) date 2024-08-19 14:06:39*
%MOMM*%
%LPD*%
G01*
G04 APERTURE LIST*
%ADD10C,0.150000*%
%ADD11C,0.120000*%
%ADD12C,0.152400*%
G04 APERTURE END LIST*
D10*
X130666666Y-146454819D02*
X130333333Y-145978628D01*
X130095238Y-146454819D02*
X130095238Y-145454819D01*
X130095238Y-145454819D02*
X130476190Y-145454819D01*
X130476190Y-145454819D02*
X130571428Y-145502438D01*
X130571428Y-145502438D02*
X130619047Y-145550057D01*
X130619047Y-145550057D02*
X130666666Y-145645295D01*
X130666666Y-145645295D02*
X130666666Y-145788152D01*
X130666666Y-145788152D02*
X130619047Y-145883390D01*
X130619047Y-145883390D02*
X130571428Y-145931009D01*
X130571428Y-145931009D02*
X130476190Y-145978628D01*
X130476190Y-145978628D02*
X130095238Y-145978628D01*
X131095238Y-145931009D02*
X131428571Y-145931009D01*
X131571428Y-146454819D02*
X131095238Y-146454819D01*
X131095238Y-146454819D02*
X131095238Y-145454819D01*
X131095238Y-145454819D02*
X131571428Y-145454819D01*
X132333333Y-145931009D02*
X132000000Y-145931009D01*
X132000000Y-146454819D02*
X132000000Y-145454819D01*
X132000000Y-145454819D02*
X132476190Y-145454819D01*
X133000000Y-145454819D02*
X133000000Y-145692914D01*
X132761905Y-145597676D02*
X133000000Y-145692914D01*
X133000000Y-145692914D02*
X133238095Y-145597676D01*
X132857143Y-145883390D02*
X133000000Y-145692914D01*
X133000000Y-145692914D02*
X133142857Y-145883390D01*
X133761905Y-145454819D02*
X133761905Y-145692914D01*
X133523810Y-145597676D02*
X133761905Y-145692914D01*
X133761905Y-145692914D02*
X134000000Y-145597676D01*
X133619048Y-145883390D02*
X133761905Y-145692914D01*
X133761905Y-145692914D02*
X133904762Y-145883390D01*
X56666666Y-146454819D02*
X56333333Y-145978628D01*
X56095238Y-146454819D02*
X56095238Y-145454819D01*
X56095238Y-145454819D02*
X56476190Y-145454819D01*
X56476190Y-145454819D02*
X56571428Y-145502438D01*
X56571428Y-145502438D02*
X56619047Y-145550057D01*
X56619047Y-145550057D02*
X56666666Y-145645295D01*
X56666666Y-145645295D02*
X56666666Y-145788152D01*
X56666666Y-145788152D02*
X56619047Y-145883390D01*
X56619047Y-145883390D02*
X56571428Y-145931009D01*
X56571428Y-145931009D02*
X56476190Y-145978628D01*
X56476190Y-145978628D02*
X56095238Y-145978628D01*
X57095238Y-145931009D02*
X57428571Y-145931009D01*
X57571428Y-146454819D02*
X57095238Y-146454819D01*
X57095238Y-146454819D02*
X57095238Y-145454819D01*
X57095238Y-145454819D02*
X57571428Y-145454819D01*
X58333333Y-145931009D02*
X58000000Y-145931009D01*
X58000000Y-146454819D02*
X58000000Y-145454819D01*
X58000000Y-145454819D02*
X58476190Y-145454819D01*
X59000000Y-145454819D02*
X59000000Y-145692914D01*
X58761905Y-145597676D02*
X59000000Y-145692914D01*
X59000000Y-145692914D02*
X59238095Y-145597676D01*
X58857143Y-145883390D02*
X59000000Y-145692914D01*
X59000000Y-145692914D02*
X59142857Y-145883390D01*
X59761905Y-145454819D02*
X59761905Y-145692914D01*
X59523810Y-145597676D02*
X59761905Y-145692914D01*
X59761905Y-145692914D02*
X60000000Y-145597676D01*
X59619048Y-145883390D02*
X59761905Y-145692914D01*
X59761905Y-145692914D02*
X59904762Y-145883390D01*
X54515714Y-89994819D02*
X54515714Y-88994819D01*
X54515714Y-88994819D02*
X54753809Y-88994819D01*
X54753809Y-88994819D02*
X54896666Y-89042438D01*
X54896666Y-89042438D02*
X54991904Y-89137676D01*
X54991904Y-89137676D02*
X55039523Y-89232914D01*
X55039523Y-89232914D02*
X55087142Y-89423390D01*
X55087142Y-89423390D02*
X55087142Y-89566247D01*
X55087142Y-89566247D02*
X55039523Y-89756723D01*
X55039523Y-89756723D02*
X54991904Y-89851961D01*
X54991904Y-89851961D02*
X54896666Y-89947200D01*
X54896666Y-89947200D02*
X54753809Y-89994819D01*
X54753809Y-89994819D02*
X54515714Y-89994819D01*
X56039523Y-89994819D02*
X55468095Y-89994819D01*
X55753809Y-89994819D02*
X55753809Y-88994819D01*
X55753809Y-88994819D02*
X55658571Y-89137676D01*
X55658571Y-89137676D02*
X55563333Y-89232914D01*
X55563333Y-89232914D02*
X55468095Y-89280533D01*
X56658571Y-88994819D02*
X56753809Y-88994819D01*
X56753809Y-88994819D02*
X56849047Y-89042438D01*
X56849047Y-89042438D02*
X56896666Y-89090057D01*
X56896666Y-89090057D02*
X56944285Y-89185295D01*
X56944285Y-89185295D02*
X56991904Y-89375771D01*
X56991904Y-89375771D02*
X56991904Y-89613866D01*
X56991904Y-89613866D02*
X56944285Y-89804342D01*
X56944285Y-89804342D02*
X56896666Y-89899580D01*
X56896666Y-89899580D02*
X56849047Y-89947200D01*
X56849047Y-89947200D02*
X56753809Y-89994819D01*
X56753809Y-89994819D02*
X56658571Y-89994819D01*
X56658571Y-89994819D02*
X56563333Y-89947200D01*
X56563333Y-89947200D02*
X56515714Y-89899580D01*
X56515714Y-89899580D02*
X56468095Y-89804342D01*
X56468095Y-89804342D02*
X56420476Y-89613866D01*
X56420476Y-89613866D02*
X56420476Y-89375771D01*
X56420476Y-89375771D02*
X56468095Y-89185295D01*
X56468095Y-89185295D02*
X56515714Y-89090057D01*
X56515714Y-89090057D02*
X56563333Y-89042438D01*
X56563333Y-89042438D02*
X56658571Y-88994819D01*
X74713333Y-154504819D02*
X74380000Y-154028628D01*
X74141905Y-154504819D02*
X74141905Y-153504819D01*
X74141905Y-153504819D02*
X74522857Y-153504819D01*
X74522857Y-153504819D02*
X74618095Y-153552438D01*
X74618095Y-153552438D02*
X74665714Y-153600057D01*
X74665714Y-153600057D02*
X74713333Y-153695295D01*
X74713333Y-153695295D02*
X74713333Y-153838152D01*
X74713333Y-153838152D02*
X74665714Y-153933390D01*
X74665714Y-153933390D02*
X74618095Y-153981009D01*
X74618095Y-153981009D02*
X74522857Y-154028628D01*
X74522857Y-154028628D02*
X74141905Y-154028628D01*
X75094286Y-153600057D02*
X75141905Y-153552438D01*
X75141905Y-153552438D02*
X75237143Y-153504819D01*
X75237143Y-153504819D02*
X75475238Y-153504819D01*
X75475238Y-153504819D02*
X75570476Y-153552438D01*
X75570476Y-153552438D02*
X75618095Y-153600057D01*
X75618095Y-153600057D02*
X75665714Y-153695295D01*
X75665714Y-153695295D02*
X75665714Y-153790533D01*
X75665714Y-153790533D02*
X75618095Y-153933390D01*
X75618095Y-153933390D02*
X75046667Y-154504819D01*
X75046667Y-154504819D02*
X75665714Y-154504819D01*
X74737142Y-146004819D02*
X74403809Y-145528628D01*
X74165714Y-146004819D02*
X74165714Y-145004819D01*
X74165714Y-145004819D02*
X74546666Y-145004819D01*
X74546666Y-145004819D02*
X74641904Y-145052438D01*
X74641904Y-145052438D02*
X74689523Y-145100057D01*
X74689523Y-145100057D02*
X74737142Y-145195295D01*
X74737142Y-145195295D02*
X74737142Y-145338152D01*
X74737142Y-145338152D02*
X74689523Y-145433390D01*
X74689523Y-145433390D02*
X74641904Y-145481009D01*
X74641904Y-145481009D02*
X74546666Y-145528628D01*
X74546666Y-145528628D02*
X74165714Y-145528628D01*
X75689523Y-146004819D02*
X75118095Y-146004819D01*
X75403809Y-146004819D02*
X75403809Y-145004819D01*
X75403809Y-145004819D02*
X75308571Y-145147676D01*
X75308571Y-145147676D02*
X75213333Y-145242914D01*
X75213333Y-145242914D02*
X75118095Y-145290533D01*
X76070476Y-145100057D02*
X76118095Y-145052438D01*
X76118095Y-145052438D02*
X76213333Y-145004819D01*
X76213333Y-145004819D02*
X76451428Y-145004819D01*
X76451428Y-145004819D02*
X76546666Y-145052438D01*
X76546666Y-145052438D02*
X76594285Y-145100057D01*
X76594285Y-145100057D02*
X76641904Y-145195295D01*
X76641904Y-145195295D02*
X76641904Y-145290533D01*
X76641904Y-145290533D02*
X76594285Y-145433390D01*
X76594285Y-145433390D02*
X76022857Y-146004819D01*
X76022857Y-146004819D02*
X76641904Y-146004819D01*
X69938095Y-73287200D02*
X70080952Y-73334819D01*
X70080952Y-73334819D02*
X70319047Y-73334819D01*
X70319047Y-73334819D02*
X70414285Y-73287200D01*
X70414285Y-73287200D02*
X70461904Y-73239580D01*
X70461904Y-73239580D02*
X70509523Y-73144342D01*
X70509523Y-73144342D02*
X70509523Y-73049104D01*
X70509523Y-73049104D02*
X70461904Y-72953866D01*
X70461904Y-72953866D02*
X70414285Y-72906247D01*
X70414285Y-72906247D02*
X70319047Y-72858628D01*
X70319047Y-72858628D02*
X70128571Y-72811009D01*
X70128571Y-72811009D02*
X70033333Y-72763390D01*
X70033333Y-72763390D02*
X69985714Y-72715771D01*
X69985714Y-72715771D02*
X69938095Y-72620533D01*
X69938095Y-72620533D02*
X69938095Y-72525295D01*
X69938095Y-72525295D02*
X69985714Y-72430057D01*
X69985714Y-72430057D02*
X70033333Y-72382438D01*
X70033333Y-72382438D02*
X70128571Y-72334819D01*
X70128571Y-72334819D02*
X70366666Y-72334819D01*
X70366666Y-72334819D02*
X70509523Y-72382438D01*
X71509523Y-73239580D02*
X71461904Y-73287200D01*
X71461904Y-73287200D02*
X71319047Y-73334819D01*
X71319047Y-73334819D02*
X71223809Y-73334819D01*
X71223809Y-73334819D02*
X71080952Y-73287200D01*
X71080952Y-73287200D02*
X70985714Y-73191961D01*
X70985714Y-73191961D02*
X70938095Y-73096723D01*
X70938095Y-73096723D02*
X70890476Y-72906247D01*
X70890476Y-72906247D02*
X70890476Y-72763390D01*
X70890476Y-72763390D02*
X70938095Y-72572914D01*
X70938095Y-72572914D02*
X70985714Y-72477676D01*
X70985714Y-72477676D02*
X71080952Y-72382438D01*
X71080952Y-72382438D02*
X71223809Y-72334819D01*
X71223809Y-72334819D02*
X71319047Y-72334819D01*
X71319047Y-72334819D02*
X71461904Y-72382438D01*
X71461904Y-72382438D02*
X71509523Y-72430057D01*
X72366666Y-72334819D02*
X72176190Y-72334819D01*
X72176190Y-72334819D02*
X72080952Y-72382438D01*
X72080952Y-72382438D02*
X72033333Y-72430057D01*
X72033333Y-72430057D02*
X71938095Y-72572914D01*
X71938095Y-72572914D02*
X71890476Y-72763390D01*
X71890476Y-72763390D02*
X71890476Y-73144342D01*
X71890476Y-73144342D02*
X71938095Y-73239580D01*
X71938095Y-73239580D02*
X71985714Y-73287200D01*
X71985714Y-73287200D02*
X72080952Y-73334819D01*
X72080952Y-73334819D02*
X72271428Y-73334819D01*
X72271428Y-73334819D02*
X72366666Y-73287200D01*
X72366666Y-73287200D02*
X72414285Y-73239580D01*
X72414285Y-73239580D02*
X72461904Y-73144342D01*
X72461904Y-73144342D02*
X72461904Y-72906247D01*
X72461904Y-72906247D02*
X72414285Y-72811009D01*
X72414285Y-72811009D02*
X72366666Y-72763390D01*
X72366666Y-72763390D02*
X72271428Y-72715771D01*
X72271428Y-72715771D02*
X72080952Y-72715771D01*
X72080952Y-72715771D02*
X71985714Y-72763390D01*
X71985714Y-72763390D02*
X71938095Y-72811009D01*
X71938095Y-72811009D02*
X71890476Y-72906247D01*
X105734819Y-75618094D02*
X104734819Y-75618094D01*
X104734819Y-75618094D02*
X104734819Y-75379999D01*
X104734819Y-75379999D02*
X104782438Y-75237142D01*
X104782438Y-75237142D02*
X104877676Y-75141904D01*
X104877676Y-75141904D02*
X104972914Y-75094285D01*
X104972914Y-75094285D02*
X105163390Y-75046666D01*
X105163390Y-75046666D02*
X105306247Y-75046666D01*
X105306247Y-75046666D02*
X105496723Y-75094285D01*
X105496723Y-75094285D02*
X105591961Y-75141904D01*
X105591961Y-75141904D02*
X105687200Y-75237142D01*
X105687200Y-75237142D02*
X105734819Y-75379999D01*
X105734819Y-75379999D02*
X105734819Y-75618094D01*
X104734819Y-74713332D02*
X104734819Y-74046666D01*
X104734819Y-74046666D02*
X105734819Y-74475237D01*
X106854819Y-82761904D02*
X105854819Y-82761904D01*
X106854819Y-82190476D02*
X106283390Y-82619047D01*
X105854819Y-82190476D02*
X106426247Y-82761904D01*
X83477142Y-90124819D02*
X83143809Y-89648628D01*
X82905714Y-90124819D02*
X82905714Y-89124819D01*
X82905714Y-89124819D02*
X83286666Y-89124819D01*
X83286666Y-89124819D02*
X83381904Y-89172438D01*
X83381904Y-89172438D02*
X83429523Y-89220057D01*
X83429523Y-89220057D02*
X83477142Y-89315295D01*
X83477142Y-89315295D02*
X83477142Y-89458152D01*
X83477142Y-89458152D02*
X83429523Y-89553390D01*
X83429523Y-89553390D02*
X83381904Y-89601009D01*
X83381904Y-89601009D02*
X83286666Y-89648628D01*
X83286666Y-89648628D02*
X82905714Y-89648628D01*
X84429523Y-90124819D02*
X83858095Y-90124819D01*
X84143809Y-90124819D02*
X84143809Y-89124819D01*
X84143809Y-89124819D02*
X84048571Y-89267676D01*
X84048571Y-89267676D02*
X83953333Y-89362914D01*
X83953333Y-89362914D02*
X83858095Y-89410533D01*
X85048571Y-89124819D02*
X85143809Y-89124819D01*
X85143809Y-89124819D02*
X85239047Y-89172438D01*
X85239047Y-89172438D02*
X85286666Y-89220057D01*
X85286666Y-89220057D02*
X85334285Y-89315295D01*
X85334285Y-89315295D02*
X85381904Y-89505771D01*
X85381904Y-89505771D02*
X85381904Y-89743866D01*
X85381904Y-89743866D02*
X85334285Y-89934342D01*
X85334285Y-89934342D02*
X85286666Y-90029580D01*
X85286666Y-90029580D02*
X85239047Y-90077200D01*
X85239047Y-90077200D02*
X85143809Y-90124819D01*
X85143809Y-90124819D02*
X85048571Y-90124819D01*
X85048571Y-90124819D02*
X84953333Y-90077200D01*
X84953333Y-90077200D02*
X84905714Y-90029580D01*
X84905714Y-90029580D02*
X84858095Y-89934342D01*
X84858095Y-89934342D02*
X84810476Y-89743866D01*
X84810476Y-89743866D02*
X84810476Y-89505771D01*
X84810476Y-89505771D02*
X84858095Y-89315295D01*
X84858095Y-89315295D02*
X84905714Y-89220057D01*
X84905714Y-89220057D02*
X84953333Y-89172438D01*
X84953333Y-89172438D02*
X85048571Y-89124819D01*
X95214285Y-144431009D02*
X95357142Y-144478628D01*
X95357142Y-144478628D02*
X95404761Y-144526247D01*
X95404761Y-144526247D02*
X95452380Y-144621485D01*
X95452380Y-144621485D02*
X95452380Y-144764342D01*
X95452380Y-144764342D02*
X95404761Y-144859580D01*
X95404761Y-144859580D02*
X95357142Y-144907200D01*
X95357142Y-144907200D02*
X95261904Y-144954819D01*
X95261904Y-144954819D02*
X94880952Y-144954819D01*
X94880952Y-144954819D02*
X94880952Y-143954819D01*
X94880952Y-143954819D02*
X95214285Y-143954819D01*
X95214285Y-143954819D02*
X95309523Y-144002438D01*
X95309523Y-144002438D02*
X95357142Y-144050057D01*
X95357142Y-144050057D02*
X95404761Y-144145295D01*
X95404761Y-144145295D02*
X95404761Y-144240533D01*
X95404761Y-144240533D02*
X95357142Y-144335771D01*
X95357142Y-144335771D02*
X95309523Y-144383390D01*
X95309523Y-144383390D02*
X95214285Y-144431009D01*
X95214285Y-144431009D02*
X94880952Y-144431009D01*
X95738095Y-143954819D02*
X96309523Y-143954819D01*
X96023809Y-144954819D02*
X96023809Y-143954819D01*
X97166666Y-144954819D02*
X96595238Y-144954819D01*
X96880952Y-144954819D02*
X96880952Y-143954819D01*
X96880952Y-143954819D02*
X96785714Y-144097676D01*
X96785714Y-144097676D02*
X96690476Y-144192914D01*
X96690476Y-144192914D02*
X96595238Y-144240533D01*
X96333333Y-83199580D02*
X96285714Y-83247200D01*
X96285714Y-83247200D02*
X96142857Y-83294819D01*
X96142857Y-83294819D02*
X96047619Y-83294819D01*
X96047619Y-83294819D02*
X95904762Y-83247200D01*
X95904762Y-83247200D02*
X95809524Y-83151961D01*
X95809524Y-83151961D02*
X95761905Y-83056723D01*
X95761905Y-83056723D02*
X95714286Y-82866247D01*
X95714286Y-82866247D02*
X95714286Y-82723390D01*
X95714286Y-82723390D02*
X95761905Y-82532914D01*
X95761905Y-82532914D02*
X95809524Y-82437676D01*
X95809524Y-82437676D02*
X95904762Y-82342438D01*
X95904762Y-82342438D02*
X96047619Y-82294819D01*
X96047619Y-82294819D02*
X96142857Y-82294819D01*
X96142857Y-82294819D02*
X96285714Y-82342438D01*
X96285714Y-82342438D02*
X96333333Y-82390057D01*
X97285714Y-83294819D02*
X96714286Y-83294819D01*
X97000000Y-83294819D02*
X97000000Y-82294819D01*
X97000000Y-82294819D02*
X96904762Y-82437676D01*
X96904762Y-82437676D02*
X96809524Y-82532914D01*
X96809524Y-82532914D02*
X96714286Y-82580533D01*
X69334819Y-79248094D02*
X68334819Y-79248094D01*
X68334819Y-79248094D02*
X68334819Y-79009999D01*
X68334819Y-79009999D02*
X68382438Y-78867142D01*
X68382438Y-78867142D02*
X68477676Y-78771904D01*
X68477676Y-78771904D02*
X68572914Y-78724285D01*
X68572914Y-78724285D02*
X68763390Y-78676666D01*
X68763390Y-78676666D02*
X68906247Y-78676666D01*
X68906247Y-78676666D02*
X69096723Y-78724285D01*
X69096723Y-78724285D02*
X69191961Y-78771904D01*
X69191961Y-78771904D02*
X69287200Y-78867142D01*
X69287200Y-78867142D02*
X69334819Y-79009999D01*
X69334819Y-79009999D02*
X69334819Y-79248094D01*
X68334819Y-77819523D02*
X68334819Y-78009999D01*
X68334819Y-78009999D02*
X68382438Y-78105237D01*
X68382438Y-78105237D02*
X68430057Y-78152856D01*
X68430057Y-78152856D02*
X68572914Y-78248094D01*
X68572914Y-78248094D02*
X68763390Y-78295713D01*
X68763390Y-78295713D02*
X69144342Y-78295713D01*
X69144342Y-78295713D02*
X69239580Y-78248094D01*
X69239580Y-78248094D02*
X69287200Y-78200475D01*
X69287200Y-78200475D02*
X69334819Y-78105237D01*
X69334819Y-78105237D02*
X69334819Y-77914761D01*
X69334819Y-77914761D02*
X69287200Y-77819523D01*
X69287200Y-77819523D02*
X69239580Y-77771904D01*
X69239580Y-77771904D02*
X69144342Y-77724285D01*
X69144342Y-77724285D02*
X68906247Y-77724285D01*
X68906247Y-77724285D02*
X68811009Y-77771904D01*
X68811009Y-77771904D02*
X68763390Y-77819523D01*
X68763390Y-77819523D02*
X68715771Y-77914761D01*
X68715771Y-77914761D02*
X68715771Y-78105237D01*
X68715771Y-78105237D02*
X68763390Y-78200475D01*
X68763390Y-78200475D02*
X68811009Y-78248094D01*
X68811009Y-78248094D02*
X68906247Y-78295713D01*
X69654819Y-82581904D02*
X68654819Y-82581904D01*
X69654819Y-82010476D02*
X69083390Y-82439047D01*
X68654819Y-82010476D02*
X69226247Y-82581904D01*
X106857142Y-152874819D02*
X106523809Y-152398628D01*
X106285714Y-152874819D02*
X106285714Y-151874819D01*
X106285714Y-151874819D02*
X106666666Y-151874819D01*
X106666666Y-151874819D02*
X106761904Y-151922438D01*
X106761904Y-151922438D02*
X106809523Y-151970057D01*
X106809523Y-151970057D02*
X106857142Y-152065295D01*
X106857142Y-152065295D02*
X106857142Y-152208152D01*
X106857142Y-152208152D02*
X106809523Y-152303390D01*
X106809523Y-152303390D02*
X106761904Y-152351009D01*
X106761904Y-152351009D02*
X106666666Y-152398628D01*
X106666666Y-152398628D02*
X106285714Y-152398628D01*
X107809523Y-152874819D02*
X107238095Y-152874819D01*
X107523809Y-152874819D02*
X107523809Y-151874819D01*
X107523809Y-151874819D02*
X107428571Y-152017676D01*
X107428571Y-152017676D02*
X107333333Y-152112914D01*
X107333333Y-152112914D02*
X107238095Y-152160533D01*
X108761904Y-152874819D02*
X108190476Y-152874819D01*
X108476190Y-152874819D02*
X108476190Y-151874819D01*
X108476190Y-151874819D02*
X108380952Y-152017676D01*
X108380952Y-152017676D02*
X108285714Y-152112914D01*
X108285714Y-152112914D02*
X108190476Y-152160533D01*
X130213333Y-87824819D02*
X129880000Y-87348628D01*
X129641905Y-87824819D02*
X129641905Y-86824819D01*
X129641905Y-86824819D02*
X130022857Y-86824819D01*
X130022857Y-86824819D02*
X130118095Y-86872438D01*
X130118095Y-86872438D02*
X130165714Y-86920057D01*
X130165714Y-86920057D02*
X130213333Y-87015295D01*
X130213333Y-87015295D02*
X130213333Y-87158152D01*
X130213333Y-87158152D02*
X130165714Y-87253390D01*
X130165714Y-87253390D02*
X130118095Y-87301009D01*
X130118095Y-87301009D02*
X130022857Y-87348628D01*
X130022857Y-87348628D02*
X129641905Y-87348628D01*
X131070476Y-87158152D02*
X131070476Y-87824819D01*
X130832381Y-86777200D02*
X130594286Y-87491485D01*
X130594286Y-87491485D02*
X131213333Y-87491485D01*
X117045180Y-80690495D02*
X116235657Y-80690495D01*
X116235657Y-80690495D02*
X116140419Y-80738114D01*
X116140419Y-80738114D02*
X116092800Y-80785733D01*
X116092800Y-80785733D02*
X116045180Y-80880971D01*
X116045180Y-80880971D02*
X116045180Y-81071447D01*
X116045180Y-81071447D02*
X116092800Y-81166685D01*
X116092800Y-81166685D02*
X116140419Y-81214304D01*
X116140419Y-81214304D02*
X116235657Y-81261923D01*
X116235657Y-81261923D02*
X117045180Y-81261923D01*
X117045180Y-81642876D02*
X117045180Y-82261923D01*
X117045180Y-82261923D02*
X116664228Y-81928590D01*
X116664228Y-81928590D02*
X116664228Y-82071447D01*
X116664228Y-82071447D02*
X116616609Y-82166685D01*
X116616609Y-82166685D02*
X116568990Y-82214304D01*
X116568990Y-82214304D02*
X116473752Y-82261923D01*
X116473752Y-82261923D02*
X116235657Y-82261923D01*
X116235657Y-82261923D02*
X116140419Y-82214304D01*
X116140419Y-82214304D02*
X116092800Y-82166685D01*
X116092800Y-82166685D02*
X116045180Y-82071447D01*
X116045180Y-82071447D02*
X116045180Y-81785733D01*
X116045180Y-81785733D02*
X116092800Y-81690495D01*
X116092800Y-81690495D02*
X116140419Y-81642876D01*
X113333333Y-85699580D02*
X113285714Y-85747200D01*
X113285714Y-85747200D02*
X113142857Y-85794819D01*
X113142857Y-85794819D02*
X113047619Y-85794819D01*
X113047619Y-85794819D02*
X112904762Y-85747200D01*
X112904762Y-85747200D02*
X112809524Y-85651961D01*
X112809524Y-85651961D02*
X112761905Y-85556723D01*
X112761905Y-85556723D02*
X112714286Y-85366247D01*
X112714286Y-85366247D02*
X112714286Y-85223390D01*
X112714286Y-85223390D02*
X112761905Y-85032914D01*
X112761905Y-85032914D02*
X112809524Y-84937676D01*
X112809524Y-84937676D02*
X112904762Y-84842438D01*
X112904762Y-84842438D02*
X113047619Y-84794819D01*
X113047619Y-84794819D02*
X113142857Y-84794819D01*
X113142857Y-84794819D02*
X113285714Y-84842438D01*
X113285714Y-84842438D02*
X113333333Y-84890057D01*
X114190476Y-85128152D02*
X114190476Y-85794819D01*
X113952381Y-84747200D02*
X113714286Y-85461485D01*
X113714286Y-85461485D02*
X114333333Y-85461485D01*
X101833333Y-94824819D02*
X101500000Y-94348628D01*
X101261905Y-94824819D02*
X101261905Y-93824819D01*
X101261905Y-93824819D02*
X101642857Y-93824819D01*
X101642857Y-93824819D02*
X101738095Y-93872438D01*
X101738095Y-93872438D02*
X101785714Y-93920057D01*
X101785714Y-93920057D02*
X101833333Y-94015295D01*
X101833333Y-94015295D02*
X101833333Y-94158152D01*
X101833333Y-94158152D02*
X101785714Y-94253390D01*
X101785714Y-94253390D02*
X101738095Y-94301009D01*
X101738095Y-94301009D02*
X101642857Y-94348628D01*
X101642857Y-94348628D02*
X101261905Y-94348628D01*
X102166667Y-93824819D02*
X102833333Y-93824819D01*
X102833333Y-93824819D02*
X102404762Y-94824819D01*
X74388095Y-73287200D02*
X74530952Y-73334819D01*
X74530952Y-73334819D02*
X74769047Y-73334819D01*
X74769047Y-73334819D02*
X74864285Y-73287200D01*
X74864285Y-73287200D02*
X74911904Y-73239580D01*
X74911904Y-73239580D02*
X74959523Y-73144342D01*
X74959523Y-73144342D02*
X74959523Y-73049104D01*
X74959523Y-73049104D02*
X74911904Y-72953866D01*
X74911904Y-72953866D02*
X74864285Y-72906247D01*
X74864285Y-72906247D02*
X74769047Y-72858628D01*
X74769047Y-72858628D02*
X74578571Y-72811009D01*
X74578571Y-72811009D02*
X74483333Y-72763390D01*
X74483333Y-72763390D02*
X74435714Y-72715771D01*
X74435714Y-72715771D02*
X74388095Y-72620533D01*
X74388095Y-72620533D02*
X74388095Y-72525295D01*
X74388095Y-72525295D02*
X74435714Y-72430057D01*
X74435714Y-72430057D02*
X74483333Y-72382438D01*
X74483333Y-72382438D02*
X74578571Y-72334819D01*
X74578571Y-72334819D02*
X74816666Y-72334819D01*
X74816666Y-72334819D02*
X74959523Y-72382438D01*
X75959523Y-73239580D02*
X75911904Y-73287200D01*
X75911904Y-73287200D02*
X75769047Y-73334819D01*
X75769047Y-73334819D02*
X75673809Y-73334819D01*
X75673809Y-73334819D02*
X75530952Y-73287200D01*
X75530952Y-73287200D02*
X75435714Y-73191961D01*
X75435714Y-73191961D02*
X75388095Y-73096723D01*
X75388095Y-73096723D02*
X75340476Y-72906247D01*
X75340476Y-72906247D02*
X75340476Y-72763390D01*
X75340476Y-72763390D02*
X75388095Y-72572914D01*
X75388095Y-72572914D02*
X75435714Y-72477676D01*
X75435714Y-72477676D02*
X75530952Y-72382438D01*
X75530952Y-72382438D02*
X75673809Y-72334819D01*
X75673809Y-72334819D02*
X75769047Y-72334819D01*
X75769047Y-72334819D02*
X75911904Y-72382438D01*
X75911904Y-72382438D02*
X75959523Y-72430057D01*
X76864285Y-72334819D02*
X76388095Y-72334819D01*
X76388095Y-72334819D02*
X76340476Y-72811009D01*
X76340476Y-72811009D02*
X76388095Y-72763390D01*
X76388095Y-72763390D02*
X76483333Y-72715771D01*
X76483333Y-72715771D02*
X76721428Y-72715771D01*
X76721428Y-72715771D02*
X76816666Y-72763390D01*
X76816666Y-72763390D02*
X76864285Y-72811009D01*
X76864285Y-72811009D02*
X76911904Y-72906247D01*
X76911904Y-72906247D02*
X76911904Y-73144342D01*
X76911904Y-73144342D02*
X76864285Y-73239580D01*
X76864285Y-73239580D02*
X76816666Y-73287200D01*
X76816666Y-73287200D02*
X76721428Y-73334819D01*
X76721428Y-73334819D02*
X76483333Y-73334819D01*
X76483333Y-73334819D02*
X76388095Y-73287200D01*
X76388095Y-73287200D02*
X76340476Y-73239580D01*
X92634819Y-79248094D02*
X91634819Y-79248094D01*
X91634819Y-79248094D02*
X91634819Y-79009999D01*
X91634819Y-79009999D02*
X91682438Y-78867142D01*
X91682438Y-78867142D02*
X91777676Y-78771904D01*
X91777676Y-78771904D02*
X91872914Y-78724285D01*
X91872914Y-78724285D02*
X92063390Y-78676666D01*
X92063390Y-78676666D02*
X92206247Y-78676666D01*
X92206247Y-78676666D02*
X92396723Y-78724285D01*
X92396723Y-78724285D02*
X92491961Y-78771904D01*
X92491961Y-78771904D02*
X92587200Y-78867142D01*
X92587200Y-78867142D02*
X92634819Y-79009999D01*
X92634819Y-79009999D02*
X92634819Y-79248094D01*
X92634819Y-77724285D02*
X92634819Y-78295713D01*
X92634819Y-78009999D02*
X91634819Y-78009999D01*
X91634819Y-78009999D02*
X91777676Y-78105237D01*
X91777676Y-78105237D02*
X91872914Y-78200475D01*
X91872914Y-78200475D02*
X91920533Y-78295713D01*
X92954819Y-82581904D02*
X91954819Y-82581904D01*
X92954819Y-82010476D02*
X92383390Y-82439047D01*
X91954819Y-82010476D02*
X92526247Y-82581904D01*
X131166666Y-66454819D02*
X130833333Y-65978628D01*
X130595238Y-66454819D02*
X130595238Y-65454819D01*
X130595238Y-65454819D02*
X130976190Y-65454819D01*
X130976190Y-65454819D02*
X131071428Y-65502438D01*
X131071428Y-65502438D02*
X131119047Y-65550057D01*
X131119047Y-65550057D02*
X131166666Y-65645295D01*
X131166666Y-65645295D02*
X131166666Y-65788152D01*
X131166666Y-65788152D02*
X131119047Y-65883390D01*
X131119047Y-65883390D02*
X131071428Y-65931009D01*
X131071428Y-65931009D02*
X130976190Y-65978628D01*
X130976190Y-65978628D02*
X130595238Y-65978628D01*
X131595238Y-65931009D02*
X131928571Y-65931009D01*
X132071428Y-66454819D02*
X131595238Y-66454819D01*
X131595238Y-66454819D02*
X131595238Y-65454819D01*
X131595238Y-65454819D02*
X132071428Y-65454819D01*
X132833333Y-65931009D02*
X132500000Y-65931009D01*
X132500000Y-66454819D02*
X132500000Y-65454819D01*
X132500000Y-65454819D02*
X132976190Y-65454819D01*
X133500000Y-65454819D02*
X133500000Y-65692914D01*
X133261905Y-65597676D02*
X133500000Y-65692914D01*
X133500000Y-65692914D02*
X133738095Y-65597676D01*
X133357143Y-65883390D02*
X133500000Y-65692914D01*
X133500000Y-65692914D02*
X133642857Y-65883390D01*
X134261905Y-65454819D02*
X134261905Y-65692914D01*
X134023810Y-65597676D02*
X134261905Y-65692914D01*
X134261905Y-65692914D02*
X134500000Y-65597676D01*
X134119048Y-65883390D02*
X134261905Y-65692914D01*
X134261905Y-65692914D02*
X134404762Y-65883390D01*
X122333333Y-91859580D02*
X122285714Y-91907200D01*
X122285714Y-91907200D02*
X122142857Y-91954819D01*
X122142857Y-91954819D02*
X122047619Y-91954819D01*
X122047619Y-91954819D02*
X121904762Y-91907200D01*
X121904762Y-91907200D02*
X121809524Y-91811961D01*
X121809524Y-91811961D02*
X121761905Y-91716723D01*
X121761905Y-91716723D02*
X121714286Y-91526247D01*
X121714286Y-91526247D02*
X121714286Y-91383390D01*
X121714286Y-91383390D02*
X121761905Y-91192914D01*
X121761905Y-91192914D02*
X121809524Y-91097676D01*
X121809524Y-91097676D02*
X121904762Y-91002438D01*
X121904762Y-91002438D02*
X122047619Y-90954819D01*
X122047619Y-90954819D02*
X122142857Y-90954819D01*
X122142857Y-90954819D02*
X122285714Y-91002438D01*
X122285714Y-91002438D02*
X122333333Y-91050057D01*
X122666667Y-90954819D02*
X123285714Y-90954819D01*
X123285714Y-90954819D02*
X122952381Y-91335771D01*
X122952381Y-91335771D02*
X123095238Y-91335771D01*
X123095238Y-91335771D02*
X123190476Y-91383390D01*
X123190476Y-91383390D02*
X123238095Y-91431009D01*
X123238095Y-91431009D02*
X123285714Y-91526247D01*
X123285714Y-91526247D02*
X123285714Y-91764342D01*
X123285714Y-91764342D02*
X123238095Y-91859580D01*
X123238095Y-91859580D02*
X123190476Y-91907200D01*
X123190476Y-91907200D02*
X123095238Y-91954819D01*
X123095238Y-91954819D02*
X122809524Y-91954819D01*
X122809524Y-91954819D02*
X122714286Y-91907200D01*
X122714286Y-91907200D02*
X122666667Y-91859580D01*
X101713333Y-90124819D02*
X101380000Y-89648628D01*
X101141905Y-90124819D02*
X101141905Y-89124819D01*
X101141905Y-89124819D02*
X101522857Y-89124819D01*
X101522857Y-89124819D02*
X101618095Y-89172438D01*
X101618095Y-89172438D02*
X101665714Y-89220057D01*
X101665714Y-89220057D02*
X101713333Y-89315295D01*
X101713333Y-89315295D02*
X101713333Y-89458152D01*
X101713333Y-89458152D02*
X101665714Y-89553390D01*
X101665714Y-89553390D02*
X101618095Y-89601009D01*
X101618095Y-89601009D02*
X101522857Y-89648628D01*
X101522857Y-89648628D02*
X101141905Y-89648628D01*
X102189524Y-90124819D02*
X102380000Y-90124819D01*
X102380000Y-90124819D02*
X102475238Y-90077200D01*
X102475238Y-90077200D02*
X102522857Y-90029580D01*
X102522857Y-90029580D02*
X102618095Y-89886723D01*
X102618095Y-89886723D02*
X102665714Y-89696247D01*
X102665714Y-89696247D02*
X102665714Y-89315295D01*
X102665714Y-89315295D02*
X102618095Y-89220057D01*
X102618095Y-89220057D02*
X102570476Y-89172438D01*
X102570476Y-89172438D02*
X102475238Y-89124819D01*
X102475238Y-89124819D02*
X102284762Y-89124819D01*
X102284762Y-89124819D02*
X102189524Y-89172438D01*
X102189524Y-89172438D02*
X102141905Y-89220057D01*
X102141905Y-89220057D02*
X102094286Y-89315295D01*
X102094286Y-89315295D02*
X102094286Y-89553390D01*
X102094286Y-89553390D02*
X102141905Y-89648628D01*
X102141905Y-89648628D02*
X102189524Y-89696247D01*
X102189524Y-89696247D02*
X102284762Y-89743866D01*
X102284762Y-89743866D02*
X102475238Y-89743866D01*
X102475238Y-89743866D02*
X102570476Y-89696247D01*
X102570476Y-89696247D02*
X102618095Y-89648628D01*
X102618095Y-89648628D02*
X102665714Y-89553390D01*
X71164819Y-147383333D02*
X71879104Y-147383333D01*
X71879104Y-147383333D02*
X72021961Y-147430952D01*
X72021961Y-147430952D02*
X72117200Y-147526190D01*
X72117200Y-147526190D02*
X72164819Y-147669047D01*
X72164819Y-147669047D02*
X72164819Y-147764285D01*
X71164819Y-147002380D02*
X71164819Y-146383333D01*
X71164819Y-146383333D02*
X71545771Y-146716666D01*
X71545771Y-146716666D02*
X71545771Y-146573809D01*
X71545771Y-146573809D02*
X71593390Y-146478571D01*
X71593390Y-146478571D02*
X71641009Y-146430952D01*
X71641009Y-146430952D02*
X71736247Y-146383333D01*
X71736247Y-146383333D02*
X71974342Y-146383333D01*
X71974342Y-146383333D02*
X72069580Y-146430952D01*
X72069580Y-146430952D02*
X72117200Y-146478571D01*
X72117200Y-146478571D02*
X72164819Y-146573809D01*
X72164819Y-146573809D02*
X72164819Y-146859523D01*
X72164819Y-146859523D02*
X72117200Y-146954761D01*
X72117200Y-146954761D02*
X72069580Y-147002380D01*
X116470833Y-93289580D02*
X116423214Y-93337200D01*
X116423214Y-93337200D02*
X116280357Y-93384819D01*
X116280357Y-93384819D02*
X116185119Y-93384819D01*
X116185119Y-93384819D02*
X116042262Y-93337200D01*
X116042262Y-93337200D02*
X115947024Y-93241961D01*
X115947024Y-93241961D02*
X115899405Y-93146723D01*
X115899405Y-93146723D02*
X115851786Y-92956247D01*
X115851786Y-92956247D02*
X115851786Y-92813390D01*
X115851786Y-92813390D02*
X115899405Y-92622914D01*
X115899405Y-92622914D02*
X115947024Y-92527676D01*
X115947024Y-92527676D02*
X116042262Y-92432438D01*
X116042262Y-92432438D02*
X116185119Y-92384819D01*
X116185119Y-92384819D02*
X116280357Y-92384819D01*
X116280357Y-92384819D02*
X116423214Y-92432438D01*
X116423214Y-92432438D02*
X116470833Y-92480057D01*
X117375595Y-92384819D02*
X116899405Y-92384819D01*
X116899405Y-92384819D02*
X116851786Y-92861009D01*
X116851786Y-92861009D02*
X116899405Y-92813390D01*
X116899405Y-92813390D02*
X116994643Y-92765771D01*
X116994643Y-92765771D02*
X117232738Y-92765771D01*
X117232738Y-92765771D02*
X117327976Y-92813390D01*
X117327976Y-92813390D02*
X117375595Y-92861009D01*
X117375595Y-92861009D02*
X117423214Y-92956247D01*
X117423214Y-92956247D02*
X117423214Y-93194342D01*
X117423214Y-93194342D02*
X117375595Y-93289580D01*
X117375595Y-93289580D02*
X117327976Y-93337200D01*
X117327976Y-93337200D02*
X117232738Y-93384819D01*
X117232738Y-93384819D02*
X116994643Y-93384819D01*
X116994643Y-93384819D02*
X116899405Y-93337200D01*
X116899405Y-93337200D02*
X116851786Y-93289580D01*
X92988095Y-73287200D02*
X93130952Y-73334819D01*
X93130952Y-73334819D02*
X93369047Y-73334819D01*
X93369047Y-73334819D02*
X93464285Y-73287200D01*
X93464285Y-73287200D02*
X93511904Y-73239580D01*
X93511904Y-73239580D02*
X93559523Y-73144342D01*
X93559523Y-73144342D02*
X93559523Y-73049104D01*
X93559523Y-73049104D02*
X93511904Y-72953866D01*
X93511904Y-72953866D02*
X93464285Y-72906247D01*
X93464285Y-72906247D02*
X93369047Y-72858628D01*
X93369047Y-72858628D02*
X93178571Y-72811009D01*
X93178571Y-72811009D02*
X93083333Y-72763390D01*
X93083333Y-72763390D02*
X93035714Y-72715771D01*
X93035714Y-72715771D02*
X92988095Y-72620533D01*
X92988095Y-72620533D02*
X92988095Y-72525295D01*
X92988095Y-72525295D02*
X93035714Y-72430057D01*
X93035714Y-72430057D02*
X93083333Y-72382438D01*
X93083333Y-72382438D02*
X93178571Y-72334819D01*
X93178571Y-72334819D02*
X93416666Y-72334819D01*
X93416666Y-72334819D02*
X93559523Y-72382438D01*
X94559523Y-73239580D02*
X94511904Y-73287200D01*
X94511904Y-73287200D02*
X94369047Y-73334819D01*
X94369047Y-73334819D02*
X94273809Y-73334819D01*
X94273809Y-73334819D02*
X94130952Y-73287200D01*
X94130952Y-73287200D02*
X94035714Y-73191961D01*
X94035714Y-73191961D02*
X93988095Y-73096723D01*
X93988095Y-73096723D02*
X93940476Y-72906247D01*
X93940476Y-72906247D02*
X93940476Y-72763390D01*
X93940476Y-72763390D02*
X93988095Y-72572914D01*
X93988095Y-72572914D02*
X94035714Y-72477676D01*
X94035714Y-72477676D02*
X94130952Y-72382438D01*
X94130952Y-72382438D02*
X94273809Y-72334819D01*
X94273809Y-72334819D02*
X94369047Y-72334819D01*
X94369047Y-72334819D02*
X94511904Y-72382438D01*
X94511904Y-72382438D02*
X94559523Y-72430057D01*
X95511904Y-73334819D02*
X94940476Y-73334819D01*
X95226190Y-73334819D02*
X95226190Y-72334819D01*
X95226190Y-72334819D02*
X95130952Y-72477676D01*
X95130952Y-72477676D02*
X95035714Y-72572914D01*
X95035714Y-72572914D02*
X94940476Y-72620533D01*
X73834819Y-79248094D02*
X72834819Y-79248094D01*
X72834819Y-79248094D02*
X72834819Y-79009999D01*
X72834819Y-79009999D02*
X72882438Y-78867142D01*
X72882438Y-78867142D02*
X72977676Y-78771904D01*
X72977676Y-78771904D02*
X73072914Y-78724285D01*
X73072914Y-78724285D02*
X73263390Y-78676666D01*
X73263390Y-78676666D02*
X73406247Y-78676666D01*
X73406247Y-78676666D02*
X73596723Y-78724285D01*
X73596723Y-78724285D02*
X73691961Y-78771904D01*
X73691961Y-78771904D02*
X73787200Y-78867142D01*
X73787200Y-78867142D02*
X73834819Y-79009999D01*
X73834819Y-79009999D02*
X73834819Y-79248094D01*
X72834819Y-77771904D02*
X72834819Y-78248094D01*
X72834819Y-78248094D02*
X73311009Y-78295713D01*
X73311009Y-78295713D02*
X73263390Y-78248094D01*
X73263390Y-78248094D02*
X73215771Y-78152856D01*
X73215771Y-78152856D02*
X73215771Y-77914761D01*
X73215771Y-77914761D02*
X73263390Y-77819523D01*
X73263390Y-77819523D02*
X73311009Y-77771904D01*
X73311009Y-77771904D02*
X73406247Y-77724285D01*
X73406247Y-77724285D02*
X73644342Y-77724285D01*
X73644342Y-77724285D02*
X73739580Y-77771904D01*
X73739580Y-77771904D02*
X73787200Y-77819523D01*
X73787200Y-77819523D02*
X73834819Y-77914761D01*
X73834819Y-77914761D02*
X73834819Y-78152856D01*
X73834819Y-78152856D02*
X73787200Y-78248094D01*
X73787200Y-78248094D02*
X73739580Y-78295713D01*
X74154819Y-82581904D02*
X73154819Y-82581904D01*
X74154819Y-82010476D02*
X73583390Y-82439047D01*
X73154819Y-82010476D02*
X73726247Y-82581904D01*
X135309580Y-92666666D02*
X135357200Y-92714285D01*
X135357200Y-92714285D02*
X135404819Y-92857142D01*
X135404819Y-92857142D02*
X135404819Y-92952380D01*
X135404819Y-92952380D02*
X135357200Y-93095237D01*
X135357200Y-93095237D02*
X135261961Y-93190475D01*
X135261961Y-93190475D02*
X135166723Y-93238094D01*
X135166723Y-93238094D02*
X134976247Y-93285713D01*
X134976247Y-93285713D02*
X134833390Y-93285713D01*
X134833390Y-93285713D02*
X134642914Y-93238094D01*
X134642914Y-93238094D02*
X134547676Y-93190475D01*
X134547676Y-93190475D02*
X134452438Y-93095237D01*
X134452438Y-93095237D02*
X134404819Y-92952380D01*
X134404819Y-92952380D02*
X134404819Y-92857142D01*
X134404819Y-92857142D02*
X134452438Y-92714285D01*
X134452438Y-92714285D02*
X134500057Y-92666666D01*
X134404819Y-91809523D02*
X134404819Y-91999999D01*
X134404819Y-91999999D02*
X134452438Y-92095237D01*
X134452438Y-92095237D02*
X134500057Y-92142856D01*
X134500057Y-92142856D02*
X134642914Y-92238094D01*
X134642914Y-92238094D02*
X134833390Y-92285713D01*
X134833390Y-92285713D02*
X135214342Y-92285713D01*
X135214342Y-92285713D02*
X135309580Y-92238094D01*
X135309580Y-92238094D02*
X135357200Y-92190475D01*
X135357200Y-92190475D02*
X135404819Y-92095237D01*
X135404819Y-92095237D02*
X135404819Y-91904761D01*
X135404819Y-91904761D02*
X135357200Y-91809523D01*
X135357200Y-91809523D02*
X135309580Y-91761904D01*
X135309580Y-91761904D02*
X135214342Y-91714285D01*
X135214342Y-91714285D02*
X134976247Y-91714285D01*
X134976247Y-91714285D02*
X134881009Y-91761904D01*
X134881009Y-91761904D02*
X134833390Y-91809523D01*
X134833390Y-91809523D02*
X134785771Y-91904761D01*
X134785771Y-91904761D02*
X134785771Y-92095237D01*
X134785771Y-92095237D02*
X134833390Y-92190475D01*
X134833390Y-92190475D02*
X134881009Y-92238094D01*
X134881009Y-92238094D02*
X134976247Y-92285713D01*
X83234819Y-79248094D02*
X82234819Y-79248094D01*
X82234819Y-79248094D02*
X82234819Y-79009999D01*
X82234819Y-79009999D02*
X82282438Y-78867142D01*
X82282438Y-78867142D02*
X82377676Y-78771904D01*
X82377676Y-78771904D02*
X82472914Y-78724285D01*
X82472914Y-78724285D02*
X82663390Y-78676666D01*
X82663390Y-78676666D02*
X82806247Y-78676666D01*
X82806247Y-78676666D02*
X82996723Y-78724285D01*
X82996723Y-78724285D02*
X83091961Y-78771904D01*
X83091961Y-78771904D02*
X83187200Y-78867142D01*
X83187200Y-78867142D02*
X83234819Y-79009999D01*
X83234819Y-79009999D02*
X83234819Y-79248094D01*
X82234819Y-78343332D02*
X82234819Y-77724285D01*
X82234819Y-77724285D02*
X82615771Y-78057618D01*
X82615771Y-78057618D02*
X82615771Y-77914761D01*
X82615771Y-77914761D02*
X82663390Y-77819523D01*
X82663390Y-77819523D02*
X82711009Y-77771904D01*
X82711009Y-77771904D02*
X82806247Y-77724285D01*
X82806247Y-77724285D02*
X83044342Y-77724285D01*
X83044342Y-77724285D02*
X83139580Y-77771904D01*
X83139580Y-77771904D02*
X83187200Y-77819523D01*
X83187200Y-77819523D02*
X83234819Y-77914761D01*
X83234819Y-77914761D02*
X83234819Y-78200475D01*
X83234819Y-78200475D02*
X83187200Y-78295713D01*
X83187200Y-78295713D02*
X83139580Y-78343332D01*
X83554819Y-82581904D02*
X82554819Y-82581904D01*
X83554819Y-82010476D02*
X82983390Y-82439047D01*
X82554819Y-82010476D02*
X83126247Y-82581904D01*
X74713333Y-157504819D02*
X74380000Y-157028628D01*
X74141905Y-157504819D02*
X74141905Y-156504819D01*
X74141905Y-156504819D02*
X74522857Y-156504819D01*
X74522857Y-156504819D02*
X74618095Y-156552438D01*
X74618095Y-156552438D02*
X74665714Y-156600057D01*
X74665714Y-156600057D02*
X74713333Y-156695295D01*
X74713333Y-156695295D02*
X74713333Y-156838152D01*
X74713333Y-156838152D02*
X74665714Y-156933390D01*
X74665714Y-156933390D02*
X74618095Y-156981009D01*
X74618095Y-156981009D02*
X74522857Y-157028628D01*
X74522857Y-157028628D02*
X74141905Y-157028628D01*
X75046667Y-156504819D02*
X75665714Y-156504819D01*
X75665714Y-156504819D02*
X75332381Y-156885771D01*
X75332381Y-156885771D02*
X75475238Y-156885771D01*
X75475238Y-156885771D02*
X75570476Y-156933390D01*
X75570476Y-156933390D02*
X75618095Y-156981009D01*
X75618095Y-156981009D02*
X75665714Y-157076247D01*
X75665714Y-157076247D02*
X75665714Y-157314342D01*
X75665714Y-157314342D02*
X75618095Y-157409580D01*
X75618095Y-157409580D02*
X75570476Y-157457200D01*
X75570476Y-157457200D02*
X75475238Y-157504819D01*
X75475238Y-157504819D02*
X75189524Y-157504819D01*
X75189524Y-157504819D02*
X75094286Y-157457200D01*
X75094286Y-157457200D02*
X75046667Y-157409580D01*
X63738095Y-151954819D02*
X63738095Y-152764342D01*
X63738095Y-152764342D02*
X63785714Y-152859580D01*
X63785714Y-152859580D02*
X63833333Y-152907200D01*
X63833333Y-152907200D02*
X63928571Y-152954819D01*
X63928571Y-152954819D02*
X64119047Y-152954819D01*
X64119047Y-152954819D02*
X64214285Y-152907200D01*
X64214285Y-152907200D02*
X64261904Y-152859580D01*
X64261904Y-152859580D02*
X64309523Y-152764342D01*
X64309523Y-152764342D02*
X64309523Y-151954819D01*
X64738095Y-152050057D02*
X64785714Y-152002438D01*
X64785714Y-152002438D02*
X64880952Y-151954819D01*
X64880952Y-151954819D02*
X65119047Y-151954819D01*
X65119047Y-151954819D02*
X65214285Y-152002438D01*
X65214285Y-152002438D02*
X65261904Y-152050057D01*
X65261904Y-152050057D02*
X65309523Y-152145295D01*
X65309523Y-152145295D02*
X65309523Y-152240533D01*
X65309523Y-152240533D02*
X65261904Y-152383390D01*
X65261904Y-152383390D02*
X64690476Y-152954819D01*
X64690476Y-152954819D02*
X65309523Y-152954819D01*
X113079580Y-154149166D02*
X113127200Y-154196785D01*
X113127200Y-154196785D02*
X113174819Y-154339642D01*
X113174819Y-154339642D02*
X113174819Y-154434880D01*
X113174819Y-154434880D02*
X113127200Y-154577737D01*
X113127200Y-154577737D02*
X113031961Y-154672975D01*
X113031961Y-154672975D02*
X112936723Y-154720594D01*
X112936723Y-154720594D02*
X112746247Y-154768213D01*
X112746247Y-154768213D02*
X112603390Y-154768213D01*
X112603390Y-154768213D02*
X112412914Y-154720594D01*
X112412914Y-154720594D02*
X112317676Y-154672975D01*
X112317676Y-154672975D02*
X112222438Y-154577737D01*
X112222438Y-154577737D02*
X112174819Y-154434880D01*
X112174819Y-154434880D02*
X112174819Y-154339642D01*
X112174819Y-154339642D02*
X112222438Y-154196785D01*
X112222438Y-154196785D02*
X112270057Y-154149166D01*
X112603390Y-153577737D02*
X112555771Y-153672975D01*
X112555771Y-153672975D02*
X112508152Y-153720594D01*
X112508152Y-153720594D02*
X112412914Y-153768213D01*
X112412914Y-153768213D02*
X112365295Y-153768213D01*
X112365295Y-153768213D02*
X112270057Y-153720594D01*
X112270057Y-153720594D02*
X112222438Y-153672975D01*
X112222438Y-153672975D02*
X112174819Y-153577737D01*
X112174819Y-153577737D02*
X112174819Y-153387261D01*
X112174819Y-153387261D02*
X112222438Y-153292023D01*
X112222438Y-153292023D02*
X112270057Y-153244404D01*
X112270057Y-153244404D02*
X112365295Y-153196785D01*
X112365295Y-153196785D02*
X112412914Y-153196785D01*
X112412914Y-153196785D02*
X112508152Y-153244404D01*
X112508152Y-153244404D02*
X112555771Y-153292023D01*
X112555771Y-153292023D02*
X112603390Y-153387261D01*
X112603390Y-153387261D02*
X112603390Y-153577737D01*
X112603390Y-153577737D02*
X112651009Y-153672975D01*
X112651009Y-153672975D02*
X112698628Y-153720594D01*
X112698628Y-153720594D02*
X112793866Y-153768213D01*
X112793866Y-153768213D02*
X112984342Y-153768213D01*
X112984342Y-153768213D02*
X113079580Y-153720594D01*
X113079580Y-153720594D02*
X113127200Y-153672975D01*
X113127200Y-153672975D02*
X113174819Y-153577737D01*
X113174819Y-153577737D02*
X113174819Y-153387261D01*
X113174819Y-153387261D02*
X113127200Y-153292023D01*
X113127200Y-153292023D02*
X113079580Y-153244404D01*
X113079580Y-153244404D02*
X112984342Y-153196785D01*
X112984342Y-153196785D02*
X112793866Y-153196785D01*
X112793866Y-153196785D02*
X112698628Y-153244404D01*
X112698628Y-153244404D02*
X112651009Y-153292023D01*
X112651009Y-153292023D02*
X112603390Y-153387261D01*
X118008333Y-85429580D02*
X117960714Y-85477200D01*
X117960714Y-85477200D02*
X117817857Y-85524819D01*
X117817857Y-85524819D02*
X117722619Y-85524819D01*
X117722619Y-85524819D02*
X117579762Y-85477200D01*
X117579762Y-85477200D02*
X117484524Y-85381961D01*
X117484524Y-85381961D02*
X117436905Y-85286723D01*
X117436905Y-85286723D02*
X117389286Y-85096247D01*
X117389286Y-85096247D02*
X117389286Y-84953390D01*
X117389286Y-84953390D02*
X117436905Y-84762914D01*
X117436905Y-84762914D02*
X117484524Y-84667676D01*
X117484524Y-84667676D02*
X117579762Y-84572438D01*
X117579762Y-84572438D02*
X117722619Y-84524819D01*
X117722619Y-84524819D02*
X117817857Y-84524819D01*
X117817857Y-84524819D02*
X117960714Y-84572438D01*
X117960714Y-84572438D02*
X118008333Y-84620057D01*
X118389286Y-84620057D02*
X118436905Y-84572438D01*
X118436905Y-84572438D02*
X118532143Y-84524819D01*
X118532143Y-84524819D02*
X118770238Y-84524819D01*
X118770238Y-84524819D02*
X118865476Y-84572438D01*
X118865476Y-84572438D02*
X118913095Y-84620057D01*
X118913095Y-84620057D02*
X118960714Y-84715295D01*
X118960714Y-84715295D02*
X118960714Y-84810533D01*
X118960714Y-84810533D02*
X118913095Y-84953390D01*
X118913095Y-84953390D02*
X118341667Y-85524819D01*
X118341667Y-85524819D02*
X118960714Y-85524819D01*
X105454819Y-66546666D02*
X104978628Y-66879999D01*
X105454819Y-67118094D02*
X104454819Y-67118094D01*
X104454819Y-67118094D02*
X104454819Y-66737142D01*
X104454819Y-66737142D02*
X104502438Y-66641904D01*
X104502438Y-66641904D02*
X104550057Y-66594285D01*
X104550057Y-66594285D02*
X104645295Y-66546666D01*
X104645295Y-66546666D02*
X104788152Y-66546666D01*
X104788152Y-66546666D02*
X104883390Y-66594285D01*
X104883390Y-66594285D02*
X104931009Y-66641904D01*
X104931009Y-66641904D02*
X104978628Y-66737142D01*
X104978628Y-66737142D02*
X104978628Y-67118094D01*
X104454819Y-65641904D02*
X104454819Y-66118094D01*
X104454819Y-66118094D02*
X104931009Y-66165713D01*
X104931009Y-66165713D02*
X104883390Y-66118094D01*
X104883390Y-66118094D02*
X104835771Y-66022856D01*
X104835771Y-66022856D02*
X104835771Y-65784761D01*
X104835771Y-65784761D02*
X104883390Y-65689523D01*
X104883390Y-65689523D02*
X104931009Y-65641904D01*
X104931009Y-65641904D02*
X105026247Y-65594285D01*
X105026247Y-65594285D02*
X105264342Y-65594285D01*
X105264342Y-65594285D02*
X105359580Y-65641904D01*
X105359580Y-65641904D02*
X105407200Y-65689523D01*
X105407200Y-65689523D02*
X105454819Y-65784761D01*
X105454819Y-65784761D02*
X105454819Y-66022856D01*
X105454819Y-66022856D02*
X105407200Y-66118094D01*
X105407200Y-66118094D02*
X105359580Y-66165713D01*
X53166666Y-123784819D02*
X53166666Y-124499104D01*
X53166666Y-124499104D02*
X53119047Y-124641961D01*
X53119047Y-124641961D02*
X53023809Y-124737200D01*
X53023809Y-124737200D02*
X52880952Y-124784819D01*
X52880952Y-124784819D02*
X52785714Y-124784819D01*
X53595238Y-123880057D02*
X53642857Y-123832438D01*
X53642857Y-123832438D02*
X53738095Y-123784819D01*
X53738095Y-123784819D02*
X53976190Y-123784819D01*
X53976190Y-123784819D02*
X54071428Y-123832438D01*
X54071428Y-123832438D02*
X54119047Y-123880057D01*
X54119047Y-123880057D02*
X54166666Y-123975295D01*
X54166666Y-123975295D02*
X54166666Y-124070533D01*
X54166666Y-124070533D02*
X54119047Y-124213390D01*
X54119047Y-124213390D02*
X53547619Y-124784819D01*
X53547619Y-124784819D02*
X54166666Y-124784819D01*
X95214285Y-97431009D02*
X95357142Y-97478628D01*
X95357142Y-97478628D02*
X95404761Y-97526247D01*
X95404761Y-97526247D02*
X95452380Y-97621485D01*
X95452380Y-97621485D02*
X95452380Y-97764342D01*
X95452380Y-97764342D02*
X95404761Y-97859580D01*
X95404761Y-97859580D02*
X95357142Y-97907200D01*
X95357142Y-97907200D02*
X95261904Y-97954819D01*
X95261904Y-97954819D02*
X94880952Y-97954819D01*
X94880952Y-97954819D02*
X94880952Y-96954819D01*
X94880952Y-96954819D02*
X95214285Y-96954819D01*
X95214285Y-96954819D02*
X95309523Y-97002438D01*
X95309523Y-97002438D02*
X95357142Y-97050057D01*
X95357142Y-97050057D02*
X95404761Y-97145295D01*
X95404761Y-97145295D02*
X95404761Y-97240533D01*
X95404761Y-97240533D02*
X95357142Y-97335771D01*
X95357142Y-97335771D02*
X95309523Y-97383390D01*
X95309523Y-97383390D02*
X95214285Y-97431009D01*
X95214285Y-97431009D02*
X94880952Y-97431009D01*
X95738095Y-96954819D02*
X96309523Y-96954819D01*
X96023809Y-97954819D02*
X96023809Y-96954819D01*
X96595238Y-97050057D02*
X96642857Y-97002438D01*
X96642857Y-97002438D02*
X96738095Y-96954819D01*
X96738095Y-96954819D02*
X96976190Y-96954819D01*
X96976190Y-96954819D02*
X97071428Y-97002438D01*
X97071428Y-97002438D02*
X97119047Y-97050057D01*
X97119047Y-97050057D02*
X97166666Y-97145295D01*
X97166666Y-97145295D02*
X97166666Y-97240533D01*
X97166666Y-97240533D02*
X97119047Y-97383390D01*
X97119047Y-97383390D02*
X96547619Y-97954819D01*
X96547619Y-97954819D02*
X97166666Y-97954819D01*
X99981905Y-156504819D02*
X99981905Y-155504819D01*
X99981905Y-155504819D02*
X100220000Y-155504819D01*
X100220000Y-155504819D02*
X100362857Y-155552438D01*
X100362857Y-155552438D02*
X100458095Y-155647676D01*
X100458095Y-155647676D02*
X100505714Y-155742914D01*
X100505714Y-155742914D02*
X100553333Y-155933390D01*
X100553333Y-155933390D02*
X100553333Y-156076247D01*
X100553333Y-156076247D02*
X100505714Y-156266723D01*
X100505714Y-156266723D02*
X100458095Y-156361961D01*
X100458095Y-156361961D02*
X100362857Y-156457200D01*
X100362857Y-156457200D02*
X100220000Y-156504819D01*
X100220000Y-156504819D02*
X99981905Y-156504819D01*
X101124762Y-155933390D02*
X101029524Y-155885771D01*
X101029524Y-155885771D02*
X100981905Y-155838152D01*
X100981905Y-155838152D02*
X100934286Y-155742914D01*
X100934286Y-155742914D02*
X100934286Y-155695295D01*
X100934286Y-155695295D02*
X100981905Y-155600057D01*
X100981905Y-155600057D02*
X101029524Y-155552438D01*
X101029524Y-155552438D02*
X101124762Y-155504819D01*
X101124762Y-155504819D02*
X101315238Y-155504819D01*
X101315238Y-155504819D02*
X101410476Y-155552438D01*
X101410476Y-155552438D02*
X101458095Y-155600057D01*
X101458095Y-155600057D02*
X101505714Y-155695295D01*
X101505714Y-155695295D02*
X101505714Y-155742914D01*
X101505714Y-155742914D02*
X101458095Y-155838152D01*
X101458095Y-155838152D02*
X101410476Y-155885771D01*
X101410476Y-155885771D02*
X101315238Y-155933390D01*
X101315238Y-155933390D02*
X101124762Y-155933390D01*
X101124762Y-155933390D02*
X101029524Y-155981009D01*
X101029524Y-155981009D02*
X100981905Y-156028628D01*
X100981905Y-156028628D02*
X100934286Y-156123866D01*
X100934286Y-156123866D02*
X100934286Y-156314342D01*
X100934286Y-156314342D02*
X100981905Y-156409580D01*
X100981905Y-156409580D02*
X101029524Y-156457200D01*
X101029524Y-156457200D02*
X101124762Y-156504819D01*
X101124762Y-156504819D02*
X101315238Y-156504819D01*
X101315238Y-156504819D02*
X101410476Y-156457200D01*
X101410476Y-156457200D02*
X101458095Y-156409580D01*
X101458095Y-156409580D02*
X101505714Y-156314342D01*
X101505714Y-156314342D02*
X101505714Y-156123866D01*
X101505714Y-156123866D02*
X101458095Y-156028628D01*
X101458095Y-156028628D02*
X101410476Y-155981009D01*
X101410476Y-155981009D02*
X101315238Y-155933390D01*
X110038095Y-156504819D02*
X110038095Y-155504819D01*
X110609523Y-156504819D02*
X110180952Y-155933390D01*
X110609523Y-155504819D02*
X110038095Y-156076247D01*
X67828095Y-152714819D02*
X67828095Y-153524342D01*
X67828095Y-153524342D02*
X67875714Y-153619580D01*
X67875714Y-153619580D02*
X67923333Y-153667200D01*
X67923333Y-153667200D02*
X68018571Y-153714819D01*
X68018571Y-153714819D02*
X68209047Y-153714819D01*
X68209047Y-153714819D02*
X68304285Y-153667200D01*
X68304285Y-153667200D02*
X68351904Y-153619580D01*
X68351904Y-153619580D02*
X68399523Y-153524342D01*
X68399523Y-153524342D02*
X68399523Y-152714819D01*
X69399523Y-153714819D02*
X68828095Y-153714819D01*
X69113809Y-153714819D02*
X69113809Y-152714819D01*
X69113809Y-152714819D02*
X69018571Y-152857676D01*
X69018571Y-152857676D02*
X68923333Y-152952914D01*
X68923333Y-152952914D02*
X68828095Y-153000533D01*
X121833333Y-145609580D02*
X121785714Y-145657200D01*
X121785714Y-145657200D02*
X121642857Y-145704819D01*
X121642857Y-145704819D02*
X121547619Y-145704819D01*
X121547619Y-145704819D02*
X121404762Y-145657200D01*
X121404762Y-145657200D02*
X121309524Y-145561961D01*
X121309524Y-145561961D02*
X121261905Y-145466723D01*
X121261905Y-145466723D02*
X121214286Y-145276247D01*
X121214286Y-145276247D02*
X121214286Y-145133390D01*
X121214286Y-145133390D02*
X121261905Y-144942914D01*
X121261905Y-144942914D02*
X121309524Y-144847676D01*
X121309524Y-144847676D02*
X121404762Y-144752438D01*
X121404762Y-144752438D02*
X121547619Y-144704819D01*
X121547619Y-144704819D02*
X121642857Y-144704819D01*
X121642857Y-144704819D02*
X121785714Y-144752438D01*
X121785714Y-144752438D02*
X121833333Y-144800057D01*
X122309524Y-145704819D02*
X122500000Y-145704819D01*
X122500000Y-145704819D02*
X122595238Y-145657200D01*
X122595238Y-145657200D02*
X122642857Y-145609580D01*
X122642857Y-145609580D02*
X122738095Y-145466723D01*
X122738095Y-145466723D02*
X122785714Y-145276247D01*
X122785714Y-145276247D02*
X122785714Y-144895295D01*
X122785714Y-144895295D02*
X122738095Y-144800057D01*
X122738095Y-144800057D02*
X122690476Y-144752438D01*
X122690476Y-144752438D02*
X122595238Y-144704819D01*
X122595238Y-144704819D02*
X122404762Y-144704819D01*
X122404762Y-144704819D02*
X122309524Y-144752438D01*
X122309524Y-144752438D02*
X122261905Y-144800057D01*
X122261905Y-144800057D02*
X122214286Y-144895295D01*
X122214286Y-144895295D02*
X122214286Y-145133390D01*
X122214286Y-145133390D02*
X122261905Y-145228628D01*
X122261905Y-145228628D02*
X122309524Y-145276247D01*
X122309524Y-145276247D02*
X122404762Y-145323866D01*
X122404762Y-145323866D02*
X122595238Y-145323866D01*
X122595238Y-145323866D02*
X122690476Y-145276247D01*
X122690476Y-145276247D02*
X122738095Y-145228628D01*
X122738095Y-145228628D02*
X122785714Y-145133390D01*
X130359580Y-92741666D02*
X130407200Y-92789285D01*
X130407200Y-92789285D02*
X130454819Y-92932142D01*
X130454819Y-92932142D02*
X130454819Y-93027380D01*
X130454819Y-93027380D02*
X130407200Y-93170237D01*
X130407200Y-93170237D02*
X130311961Y-93265475D01*
X130311961Y-93265475D02*
X130216723Y-93313094D01*
X130216723Y-93313094D02*
X130026247Y-93360713D01*
X130026247Y-93360713D02*
X129883390Y-93360713D01*
X129883390Y-93360713D02*
X129692914Y-93313094D01*
X129692914Y-93313094D02*
X129597676Y-93265475D01*
X129597676Y-93265475D02*
X129502438Y-93170237D01*
X129502438Y-93170237D02*
X129454819Y-93027380D01*
X129454819Y-93027380D02*
X129454819Y-92932142D01*
X129454819Y-92932142D02*
X129502438Y-92789285D01*
X129502438Y-92789285D02*
X129550057Y-92741666D01*
X129454819Y-92408332D02*
X129454819Y-91741666D01*
X129454819Y-91741666D02*
X130454819Y-92170237D01*
X54991905Y-80494819D02*
X54991905Y-79494819D01*
X54991905Y-79494819D02*
X55230000Y-79494819D01*
X55230000Y-79494819D02*
X55372857Y-79542438D01*
X55372857Y-79542438D02*
X55468095Y-79637676D01*
X55468095Y-79637676D02*
X55515714Y-79732914D01*
X55515714Y-79732914D02*
X55563333Y-79923390D01*
X55563333Y-79923390D02*
X55563333Y-80066247D01*
X55563333Y-80066247D02*
X55515714Y-80256723D01*
X55515714Y-80256723D02*
X55468095Y-80351961D01*
X55468095Y-80351961D02*
X55372857Y-80447200D01*
X55372857Y-80447200D02*
X55230000Y-80494819D01*
X55230000Y-80494819D02*
X54991905Y-80494819D01*
X56039524Y-80494819D02*
X56230000Y-80494819D01*
X56230000Y-80494819D02*
X56325238Y-80447200D01*
X56325238Y-80447200D02*
X56372857Y-80399580D01*
X56372857Y-80399580D02*
X56468095Y-80256723D01*
X56468095Y-80256723D02*
X56515714Y-80066247D01*
X56515714Y-80066247D02*
X56515714Y-79685295D01*
X56515714Y-79685295D02*
X56468095Y-79590057D01*
X56468095Y-79590057D02*
X56420476Y-79542438D01*
X56420476Y-79542438D02*
X56325238Y-79494819D01*
X56325238Y-79494819D02*
X56134762Y-79494819D01*
X56134762Y-79494819D02*
X56039524Y-79542438D01*
X56039524Y-79542438D02*
X55991905Y-79590057D01*
X55991905Y-79590057D02*
X55944286Y-79685295D01*
X55944286Y-79685295D02*
X55944286Y-79923390D01*
X55944286Y-79923390D02*
X55991905Y-80018628D01*
X55991905Y-80018628D02*
X56039524Y-80066247D01*
X56039524Y-80066247D02*
X56134762Y-80113866D01*
X56134762Y-80113866D02*
X56325238Y-80113866D01*
X56325238Y-80113866D02*
X56420476Y-80066247D01*
X56420476Y-80066247D02*
X56468095Y-80018628D01*
X56468095Y-80018628D02*
X56515714Y-79923390D01*
X96239580Y-145692857D02*
X96287200Y-145740476D01*
X96287200Y-145740476D02*
X96334819Y-145883333D01*
X96334819Y-145883333D02*
X96334819Y-145978571D01*
X96334819Y-145978571D02*
X96287200Y-146121428D01*
X96287200Y-146121428D02*
X96191961Y-146216666D01*
X96191961Y-146216666D02*
X96096723Y-146264285D01*
X96096723Y-146264285D02*
X95906247Y-146311904D01*
X95906247Y-146311904D02*
X95763390Y-146311904D01*
X95763390Y-146311904D02*
X95572914Y-146264285D01*
X95572914Y-146264285D02*
X95477676Y-146216666D01*
X95477676Y-146216666D02*
X95382438Y-146121428D01*
X95382438Y-146121428D02*
X95334819Y-145978571D01*
X95334819Y-145978571D02*
X95334819Y-145883333D01*
X95334819Y-145883333D02*
X95382438Y-145740476D01*
X95382438Y-145740476D02*
X95430057Y-145692857D01*
X96334819Y-144740476D02*
X96334819Y-145311904D01*
X96334819Y-145026190D02*
X95334819Y-145026190D01*
X95334819Y-145026190D02*
X95477676Y-145121428D01*
X95477676Y-145121428D02*
X95572914Y-145216666D01*
X95572914Y-145216666D02*
X95620533Y-145311904D01*
X95334819Y-144121428D02*
X95334819Y-144026190D01*
X95334819Y-144026190D02*
X95382438Y-143930952D01*
X95382438Y-143930952D02*
X95430057Y-143883333D01*
X95430057Y-143883333D02*
X95525295Y-143835714D01*
X95525295Y-143835714D02*
X95715771Y-143788095D01*
X95715771Y-143788095D02*
X95953866Y-143788095D01*
X95953866Y-143788095D02*
X96144342Y-143835714D01*
X96144342Y-143835714D02*
X96239580Y-143883333D01*
X96239580Y-143883333D02*
X96287200Y-143930952D01*
X96287200Y-143930952D02*
X96334819Y-144026190D01*
X96334819Y-144026190D02*
X96334819Y-144121428D01*
X96334819Y-144121428D02*
X96287200Y-144216666D01*
X96287200Y-144216666D02*
X96239580Y-144264285D01*
X96239580Y-144264285D02*
X96144342Y-144311904D01*
X96144342Y-144311904D02*
X95953866Y-144359523D01*
X95953866Y-144359523D02*
X95715771Y-144359523D01*
X95715771Y-144359523D02*
X95525295Y-144311904D01*
X95525295Y-144311904D02*
X95430057Y-144264285D01*
X95430057Y-144264285D02*
X95382438Y-144216666D01*
X95382438Y-144216666D02*
X95334819Y-144121428D01*
X98239580Y-145692857D02*
X98287200Y-145740476D01*
X98287200Y-145740476D02*
X98334819Y-145883333D01*
X98334819Y-145883333D02*
X98334819Y-145978571D01*
X98334819Y-145978571D02*
X98287200Y-146121428D01*
X98287200Y-146121428D02*
X98191961Y-146216666D01*
X98191961Y-146216666D02*
X98096723Y-146264285D01*
X98096723Y-146264285D02*
X97906247Y-146311904D01*
X97906247Y-146311904D02*
X97763390Y-146311904D01*
X97763390Y-146311904D02*
X97572914Y-146264285D01*
X97572914Y-146264285D02*
X97477676Y-146216666D01*
X97477676Y-146216666D02*
X97382438Y-146121428D01*
X97382438Y-146121428D02*
X97334819Y-145978571D01*
X97334819Y-145978571D02*
X97334819Y-145883333D01*
X97334819Y-145883333D02*
X97382438Y-145740476D01*
X97382438Y-145740476D02*
X97430057Y-145692857D01*
X98334819Y-144740476D02*
X98334819Y-145311904D01*
X98334819Y-145026190D02*
X97334819Y-145026190D01*
X97334819Y-145026190D02*
X97477676Y-145121428D01*
X97477676Y-145121428D02*
X97572914Y-145216666D01*
X97572914Y-145216666D02*
X97620533Y-145311904D01*
X98334819Y-143788095D02*
X98334819Y-144359523D01*
X98334819Y-144073809D02*
X97334819Y-144073809D01*
X97334819Y-144073809D02*
X97477676Y-144169047D01*
X97477676Y-144169047D02*
X97572914Y-144264285D01*
X97572914Y-144264285D02*
X97620533Y-144359523D01*
X122333333Y-65354819D02*
X121857143Y-65354819D01*
X121857143Y-65354819D02*
X121857143Y-64354819D01*
X123190476Y-65354819D02*
X122619048Y-65354819D01*
X122904762Y-65354819D02*
X122904762Y-64354819D01*
X122904762Y-64354819D02*
X122809524Y-64497676D01*
X122809524Y-64497676D02*
X122714286Y-64592914D01*
X122714286Y-64592914D02*
X122619048Y-64640533D01*
X96954819Y-73046666D02*
X96478628Y-73379999D01*
X96954819Y-73618094D02*
X95954819Y-73618094D01*
X95954819Y-73618094D02*
X95954819Y-73237142D01*
X95954819Y-73237142D02*
X96002438Y-73141904D01*
X96002438Y-73141904D02*
X96050057Y-73094285D01*
X96050057Y-73094285D02*
X96145295Y-73046666D01*
X96145295Y-73046666D02*
X96288152Y-73046666D01*
X96288152Y-73046666D02*
X96383390Y-73094285D01*
X96383390Y-73094285D02*
X96431009Y-73141904D01*
X96431009Y-73141904D02*
X96478628Y-73237142D01*
X96478628Y-73237142D02*
X96478628Y-73618094D01*
X95954819Y-72189523D02*
X95954819Y-72379999D01*
X95954819Y-72379999D02*
X96002438Y-72475237D01*
X96002438Y-72475237D02*
X96050057Y-72522856D01*
X96050057Y-72522856D02*
X96192914Y-72618094D01*
X96192914Y-72618094D02*
X96383390Y-72665713D01*
X96383390Y-72665713D02*
X96764342Y-72665713D01*
X96764342Y-72665713D02*
X96859580Y-72618094D01*
X96859580Y-72618094D02*
X96907200Y-72570475D01*
X96907200Y-72570475D02*
X96954819Y-72475237D01*
X96954819Y-72475237D02*
X96954819Y-72284761D01*
X96954819Y-72284761D02*
X96907200Y-72189523D01*
X96907200Y-72189523D02*
X96859580Y-72141904D01*
X96859580Y-72141904D02*
X96764342Y-72094285D01*
X96764342Y-72094285D02*
X96526247Y-72094285D01*
X96526247Y-72094285D02*
X96431009Y-72141904D01*
X96431009Y-72141904D02*
X96383390Y-72189523D01*
X96383390Y-72189523D02*
X96335771Y-72284761D01*
X96335771Y-72284761D02*
X96335771Y-72475237D01*
X96335771Y-72475237D02*
X96383390Y-72570475D01*
X96383390Y-72570475D02*
X96431009Y-72618094D01*
X96431009Y-72618094D02*
X96526247Y-72665713D01*
X130213333Y-79584819D02*
X129880000Y-79108628D01*
X129641905Y-79584819D02*
X129641905Y-78584819D01*
X129641905Y-78584819D02*
X130022857Y-78584819D01*
X130022857Y-78584819D02*
X130118095Y-78632438D01*
X130118095Y-78632438D02*
X130165714Y-78680057D01*
X130165714Y-78680057D02*
X130213333Y-78775295D01*
X130213333Y-78775295D02*
X130213333Y-78918152D01*
X130213333Y-78918152D02*
X130165714Y-79013390D01*
X130165714Y-79013390D02*
X130118095Y-79061009D01*
X130118095Y-79061009D02*
X130022857Y-79108628D01*
X130022857Y-79108628D02*
X129641905Y-79108628D01*
X131165714Y-79584819D02*
X130594286Y-79584819D01*
X130880000Y-79584819D02*
X130880000Y-78584819D01*
X130880000Y-78584819D02*
X130784762Y-78727676D01*
X130784762Y-78727676D02*
X130689524Y-78822914D01*
X130689524Y-78822914D02*
X130594286Y-78870533D01*
X87934819Y-79248094D02*
X86934819Y-79248094D01*
X86934819Y-79248094D02*
X86934819Y-79009999D01*
X86934819Y-79009999D02*
X86982438Y-78867142D01*
X86982438Y-78867142D02*
X87077676Y-78771904D01*
X87077676Y-78771904D02*
X87172914Y-78724285D01*
X87172914Y-78724285D02*
X87363390Y-78676666D01*
X87363390Y-78676666D02*
X87506247Y-78676666D01*
X87506247Y-78676666D02*
X87696723Y-78724285D01*
X87696723Y-78724285D02*
X87791961Y-78771904D01*
X87791961Y-78771904D02*
X87887200Y-78867142D01*
X87887200Y-78867142D02*
X87934819Y-79009999D01*
X87934819Y-79009999D02*
X87934819Y-79248094D01*
X87030057Y-78295713D02*
X86982438Y-78248094D01*
X86982438Y-78248094D02*
X86934819Y-78152856D01*
X86934819Y-78152856D02*
X86934819Y-77914761D01*
X86934819Y-77914761D02*
X86982438Y-77819523D01*
X86982438Y-77819523D02*
X87030057Y-77771904D01*
X87030057Y-77771904D02*
X87125295Y-77724285D01*
X87125295Y-77724285D02*
X87220533Y-77724285D01*
X87220533Y-77724285D02*
X87363390Y-77771904D01*
X87363390Y-77771904D02*
X87934819Y-78343332D01*
X87934819Y-78343332D02*
X87934819Y-77724285D01*
X88254819Y-82581904D02*
X87254819Y-82581904D01*
X88254819Y-82010476D02*
X87683390Y-82439047D01*
X87254819Y-82010476D02*
X87826247Y-82581904D01*
X111477142Y-145004819D02*
X111143809Y-144528628D01*
X110905714Y-145004819D02*
X110905714Y-144004819D01*
X110905714Y-144004819D02*
X111286666Y-144004819D01*
X111286666Y-144004819D02*
X111381904Y-144052438D01*
X111381904Y-144052438D02*
X111429523Y-144100057D01*
X111429523Y-144100057D02*
X111477142Y-144195295D01*
X111477142Y-144195295D02*
X111477142Y-144338152D01*
X111477142Y-144338152D02*
X111429523Y-144433390D01*
X111429523Y-144433390D02*
X111381904Y-144481009D01*
X111381904Y-144481009D02*
X111286666Y-144528628D01*
X111286666Y-144528628D02*
X110905714Y-144528628D01*
X112429523Y-145004819D02*
X111858095Y-145004819D01*
X112143809Y-145004819D02*
X112143809Y-144004819D01*
X112143809Y-144004819D02*
X112048571Y-144147676D01*
X112048571Y-144147676D02*
X111953333Y-144242914D01*
X111953333Y-144242914D02*
X111858095Y-144290533D01*
X113286666Y-144338152D02*
X113286666Y-145004819D01*
X113048571Y-143957200D02*
X112810476Y-144671485D01*
X112810476Y-144671485D02*
X113429523Y-144671485D01*
X74237142Y-150504819D02*
X73903809Y-150028628D01*
X73665714Y-150504819D02*
X73665714Y-149504819D01*
X73665714Y-149504819D02*
X74046666Y-149504819D01*
X74046666Y-149504819D02*
X74141904Y-149552438D01*
X74141904Y-149552438D02*
X74189523Y-149600057D01*
X74189523Y-149600057D02*
X74237142Y-149695295D01*
X74237142Y-149695295D02*
X74237142Y-149838152D01*
X74237142Y-149838152D02*
X74189523Y-149933390D01*
X74189523Y-149933390D02*
X74141904Y-149981009D01*
X74141904Y-149981009D02*
X74046666Y-150028628D01*
X74046666Y-150028628D02*
X73665714Y-150028628D01*
X75189523Y-150504819D02*
X74618095Y-150504819D01*
X74903809Y-150504819D02*
X74903809Y-149504819D01*
X74903809Y-149504819D02*
X74808571Y-149647676D01*
X74808571Y-149647676D02*
X74713333Y-149742914D01*
X74713333Y-149742914D02*
X74618095Y-149790533D01*
X75522857Y-149504819D02*
X76141904Y-149504819D01*
X76141904Y-149504819D02*
X75808571Y-149885771D01*
X75808571Y-149885771D02*
X75951428Y-149885771D01*
X75951428Y-149885771D02*
X76046666Y-149933390D01*
X76046666Y-149933390D02*
X76094285Y-149981009D01*
X76094285Y-149981009D02*
X76141904Y-150076247D01*
X76141904Y-150076247D02*
X76141904Y-150314342D01*
X76141904Y-150314342D02*
X76094285Y-150409580D01*
X76094285Y-150409580D02*
X76046666Y-150457200D01*
X76046666Y-150457200D02*
X75951428Y-150504819D01*
X75951428Y-150504819D02*
X75665714Y-150504819D01*
X75665714Y-150504819D02*
X75570476Y-150457200D01*
X75570476Y-150457200D02*
X75522857Y-150409580D01*
X56166666Y-66454819D02*
X55833333Y-65978628D01*
X55595238Y-66454819D02*
X55595238Y-65454819D01*
X55595238Y-65454819D02*
X55976190Y-65454819D01*
X55976190Y-65454819D02*
X56071428Y-65502438D01*
X56071428Y-65502438D02*
X56119047Y-65550057D01*
X56119047Y-65550057D02*
X56166666Y-65645295D01*
X56166666Y-65645295D02*
X56166666Y-65788152D01*
X56166666Y-65788152D02*
X56119047Y-65883390D01*
X56119047Y-65883390D02*
X56071428Y-65931009D01*
X56071428Y-65931009D02*
X55976190Y-65978628D01*
X55976190Y-65978628D02*
X55595238Y-65978628D01*
X56595238Y-65931009D02*
X56928571Y-65931009D01*
X57071428Y-66454819D02*
X56595238Y-66454819D01*
X56595238Y-66454819D02*
X56595238Y-65454819D01*
X56595238Y-65454819D02*
X57071428Y-65454819D01*
X57833333Y-65931009D02*
X57500000Y-65931009D01*
X57500000Y-66454819D02*
X57500000Y-65454819D01*
X57500000Y-65454819D02*
X57976190Y-65454819D01*
X58500000Y-65454819D02*
X58500000Y-65692914D01*
X58261905Y-65597676D02*
X58500000Y-65692914D01*
X58500000Y-65692914D02*
X58738095Y-65597676D01*
X58357143Y-65883390D02*
X58500000Y-65692914D01*
X58500000Y-65692914D02*
X58642857Y-65883390D01*
X59261905Y-65454819D02*
X59261905Y-65692914D01*
X59023810Y-65597676D02*
X59261905Y-65692914D01*
X59261905Y-65692914D02*
X59500000Y-65597676D01*
X59119048Y-65883390D02*
X59261905Y-65692914D01*
X59261905Y-65692914D02*
X59404762Y-65883390D01*
X79038095Y-73287200D02*
X79180952Y-73334819D01*
X79180952Y-73334819D02*
X79419047Y-73334819D01*
X79419047Y-73334819D02*
X79514285Y-73287200D01*
X79514285Y-73287200D02*
X79561904Y-73239580D01*
X79561904Y-73239580D02*
X79609523Y-73144342D01*
X79609523Y-73144342D02*
X79609523Y-73049104D01*
X79609523Y-73049104D02*
X79561904Y-72953866D01*
X79561904Y-72953866D02*
X79514285Y-72906247D01*
X79514285Y-72906247D02*
X79419047Y-72858628D01*
X79419047Y-72858628D02*
X79228571Y-72811009D01*
X79228571Y-72811009D02*
X79133333Y-72763390D01*
X79133333Y-72763390D02*
X79085714Y-72715771D01*
X79085714Y-72715771D02*
X79038095Y-72620533D01*
X79038095Y-72620533D02*
X79038095Y-72525295D01*
X79038095Y-72525295D02*
X79085714Y-72430057D01*
X79085714Y-72430057D02*
X79133333Y-72382438D01*
X79133333Y-72382438D02*
X79228571Y-72334819D01*
X79228571Y-72334819D02*
X79466666Y-72334819D01*
X79466666Y-72334819D02*
X79609523Y-72382438D01*
X80609523Y-73239580D02*
X80561904Y-73287200D01*
X80561904Y-73287200D02*
X80419047Y-73334819D01*
X80419047Y-73334819D02*
X80323809Y-73334819D01*
X80323809Y-73334819D02*
X80180952Y-73287200D01*
X80180952Y-73287200D02*
X80085714Y-73191961D01*
X80085714Y-73191961D02*
X80038095Y-73096723D01*
X80038095Y-73096723D02*
X79990476Y-72906247D01*
X79990476Y-72906247D02*
X79990476Y-72763390D01*
X79990476Y-72763390D02*
X80038095Y-72572914D01*
X80038095Y-72572914D02*
X80085714Y-72477676D01*
X80085714Y-72477676D02*
X80180952Y-72382438D01*
X80180952Y-72382438D02*
X80323809Y-72334819D01*
X80323809Y-72334819D02*
X80419047Y-72334819D01*
X80419047Y-72334819D02*
X80561904Y-72382438D01*
X80561904Y-72382438D02*
X80609523Y-72430057D01*
X81466666Y-72668152D02*
X81466666Y-73334819D01*
X81228571Y-72287200D02*
X80990476Y-73001485D01*
X80990476Y-73001485D02*
X81609523Y-73001485D01*
X88338095Y-73287200D02*
X88480952Y-73334819D01*
X88480952Y-73334819D02*
X88719047Y-73334819D01*
X88719047Y-73334819D02*
X88814285Y-73287200D01*
X88814285Y-73287200D02*
X88861904Y-73239580D01*
X88861904Y-73239580D02*
X88909523Y-73144342D01*
X88909523Y-73144342D02*
X88909523Y-73049104D01*
X88909523Y-73049104D02*
X88861904Y-72953866D01*
X88861904Y-72953866D02*
X88814285Y-72906247D01*
X88814285Y-72906247D02*
X88719047Y-72858628D01*
X88719047Y-72858628D02*
X88528571Y-72811009D01*
X88528571Y-72811009D02*
X88433333Y-72763390D01*
X88433333Y-72763390D02*
X88385714Y-72715771D01*
X88385714Y-72715771D02*
X88338095Y-72620533D01*
X88338095Y-72620533D02*
X88338095Y-72525295D01*
X88338095Y-72525295D02*
X88385714Y-72430057D01*
X88385714Y-72430057D02*
X88433333Y-72382438D01*
X88433333Y-72382438D02*
X88528571Y-72334819D01*
X88528571Y-72334819D02*
X88766666Y-72334819D01*
X88766666Y-72334819D02*
X88909523Y-72382438D01*
X89909523Y-73239580D02*
X89861904Y-73287200D01*
X89861904Y-73287200D02*
X89719047Y-73334819D01*
X89719047Y-73334819D02*
X89623809Y-73334819D01*
X89623809Y-73334819D02*
X89480952Y-73287200D01*
X89480952Y-73287200D02*
X89385714Y-73191961D01*
X89385714Y-73191961D02*
X89338095Y-73096723D01*
X89338095Y-73096723D02*
X89290476Y-72906247D01*
X89290476Y-72906247D02*
X89290476Y-72763390D01*
X89290476Y-72763390D02*
X89338095Y-72572914D01*
X89338095Y-72572914D02*
X89385714Y-72477676D01*
X89385714Y-72477676D02*
X89480952Y-72382438D01*
X89480952Y-72382438D02*
X89623809Y-72334819D01*
X89623809Y-72334819D02*
X89719047Y-72334819D01*
X89719047Y-72334819D02*
X89861904Y-72382438D01*
X89861904Y-72382438D02*
X89909523Y-72430057D01*
X90290476Y-72430057D02*
X90338095Y-72382438D01*
X90338095Y-72382438D02*
X90433333Y-72334819D01*
X90433333Y-72334819D02*
X90671428Y-72334819D01*
X90671428Y-72334819D02*
X90766666Y-72382438D01*
X90766666Y-72382438D02*
X90814285Y-72430057D01*
X90814285Y-72430057D02*
X90861904Y-72525295D01*
X90861904Y-72525295D02*
X90861904Y-72620533D01*
X90861904Y-72620533D02*
X90814285Y-72763390D01*
X90814285Y-72763390D02*
X90242857Y-73334819D01*
X90242857Y-73334819D02*
X90861904Y-73334819D01*
X121333333Y-153834819D02*
X120857143Y-153834819D01*
X120857143Y-153834819D02*
X120857143Y-152834819D01*
X121619048Y-152930057D02*
X121666667Y-152882438D01*
X121666667Y-152882438D02*
X121761905Y-152834819D01*
X121761905Y-152834819D02*
X122000000Y-152834819D01*
X122000000Y-152834819D02*
X122095238Y-152882438D01*
X122095238Y-152882438D02*
X122142857Y-152930057D01*
X122142857Y-152930057D02*
X122190476Y-153025295D01*
X122190476Y-153025295D02*
X122190476Y-153120533D01*
X122190476Y-153120533D02*
X122142857Y-153263390D01*
X122142857Y-153263390D02*
X121571429Y-153834819D01*
X121571429Y-153834819D02*
X122190476Y-153834819D01*
X83833333Y-94624819D02*
X83500000Y-94148628D01*
X83261905Y-94624819D02*
X83261905Y-93624819D01*
X83261905Y-93624819D02*
X83642857Y-93624819D01*
X83642857Y-93624819D02*
X83738095Y-93672438D01*
X83738095Y-93672438D02*
X83785714Y-93720057D01*
X83785714Y-93720057D02*
X83833333Y-93815295D01*
X83833333Y-93815295D02*
X83833333Y-93958152D01*
X83833333Y-93958152D02*
X83785714Y-94053390D01*
X83785714Y-94053390D02*
X83738095Y-94101009D01*
X83738095Y-94101009D02*
X83642857Y-94148628D01*
X83642857Y-94148628D02*
X83261905Y-94148628D01*
X84404762Y-94053390D02*
X84309524Y-94005771D01*
X84309524Y-94005771D02*
X84261905Y-93958152D01*
X84261905Y-93958152D02*
X84214286Y-93862914D01*
X84214286Y-93862914D02*
X84214286Y-93815295D01*
X84214286Y-93815295D02*
X84261905Y-93720057D01*
X84261905Y-93720057D02*
X84309524Y-93672438D01*
X84309524Y-93672438D02*
X84404762Y-93624819D01*
X84404762Y-93624819D02*
X84595238Y-93624819D01*
X84595238Y-93624819D02*
X84690476Y-93672438D01*
X84690476Y-93672438D02*
X84738095Y-93720057D01*
X84738095Y-93720057D02*
X84785714Y-93815295D01*
X84785714Y-93815295D02*
X84785714Y-93862914D01*
X84785714Y-93862914D02*
X84738095Y-93958152D01*
X84738095Y-93958152D02*
X84690476Y-94005771D01*
X84690476Y-94005771D02*
X84595238Y-94053390D01*
X84595238Y-94053390D02*
X84404762Y-94053390D01*
X84404762Y-94053390D02*
X84309524Y-94101009D01*
X84309524Y-94101009D02*
X84261905Y-94148628D01*
X84261905Y-94148628D02*
X84214286Y-94243866D01*
X84214286Y-94243866D02*
X84214286Y-94434342D01*
X84214286Y-94434342D02*
X84261905Y-94529580D01*
X84261905Y-94529580D02*
X84309524Y-94577200D01*
X84309524Y-94577200D02*
X84404762Y-94624819D01*
X84404762Y-94624819D02*
X84595238Y-94624819D01*
X84595238Y-94624819D02*
X84690476Y-94577200D01*
X84690476Y-94577200D02*
X84738095Y-94529580D01*
X84738095Y-94529580D02*
X84785714Y-94434342D01*
X84785714Y-94434342D02*
X84785714Y-94243866D01*
X84785714Y-94243866D02*
X84738095Y-94148628D01*
X84738095Y-94148628D02*
X84690476Y-94101009D01*
X84690476Y-94101009D02*
X84595238Y-94053390D01*
X83688095Y-73287200D02*
X83830952Y-73334819D01*
X83830952Y-73334819D02*
X84069047Y-73334819D01*
X84069047Y-73334819D02*
X84164285Y-73287200D01*
X84164285Y-73287200D02*
X84211904Y-73239580D01*
X84211904Y-73239580D02*
X84259523Y-73144342D01*
X84259523Y-73144342D02*
X84259523Y-73049104D01*
X84259523Y-73049104D02*
X84211904Y-72953866D01*
X84211904Y-72953866D02*
X84164285Y-72906247D01*
X84164285Y-72906247D02*
X84069047Y-72858628D01*
X84069047Y-72858628D02*
X83878571Y-72811009D01*
X83878571Y-72811009D02*
X83783333Y-72763390D01*
X83783333Y-72763390D02*
X83735714Y-72715771D01*
X83735714Y-72715771D02*
X83688095Y-72620533D01*
X83688095Y-72620533D02*
X83688095Y-72525295D01*
X83688095Y-72525295D02*
X83735714Y-72430057D01*
X83735714Y-72430057D02*
X83783333Y-72382438D01*
X83783333Y-72382438D02*
X83878571Y-72334819D01*
X83878571Y-72334819D02*
X84116666Y-72334819D01*
X84116666Y-72334819D02*
X84259523Y-72382438D01*
X85259523Y-73239580D02*
X85211904Y-73287200D01*
X85211904Y-73287200D02*
X85069047Y-73334819D01*
X85069047Y-73334819D02*
X84973809Y-73334819D01*
X84973809Y-73334819D02*
X84830952Y-73287200D01*
X84830952Y-73287200D02*
X84735714Y-73191961D01*
X84735714Y-73191961D02*
X84688095Y-73096723D01*
X84688095Y-73096723D02*
X84640476Y-72906247D01*
X84640476Y-72906247D02*
X84640476Y-72763390D01*
X84640476Y-72763390D02*
X84688095Y-72572914D01*
X84688095Y-72572914D02*
X84735714Y-72477676D01*
X84735714Y-72477676D02*
X84830952Y-72382438D01*
X84830952Y-72382438D02*
X84973809Y-72334819D01*
X84973809Y-72334819D02*
X85069047Y-72334819D01*
X85069047Y-72334819D02*
X85211904Y-72382438D01*
X85211904Y-72382438D02*
X85259523Y-72430057D01*
X85592857Y-72334819D02*
X86211904Y-72334819D01*
X86211904Y-72334819D02*
X85878571Y-72715771D01*
X85878571Y-72715771D02*
X86021428Y-72715771D01*
X86021428Y-72715771D02*
X86116666Y-72763390D01*
X86116666Y-72763390D02*
X86164285Y-72811009D01*
X86164285Y-72811009D02*
X86211904Y-72906247D01*
X86211904Y-72906247D02*
X86211904Y-73144342D01*
X86211904Y-73144342D02*
X86164285Y-73239580D01*
X86164285Y-73239580D02*
X86116666Y-73287200D01*
X86116666Y-73287200D02*
X86021428Y-73334819D01*
X86021428Y-73334819D02*
X85735714Y-73334819D01*
X85735714Y-73334819D02*
X85640476Y-73287200D01*
X85640476Y-73287200D02*
X85592857Y-73239580D01*
X78534819Y-79248094D02*
X77534819Y-79248094D01*
X77534819Y-79248094D02*
X77534819Y-79009999D01*
X77534819Y-79009999D02*
X77582438Y-78867142D01*
X77582438Y-78867142D02*
X77677676Y-78771904D01*
X77677676Y-78771904D02*
X77772914Y-78724285D01*
X77772914Y-78724285D02*
X77963390Y-78676666D01*
X77963390Y-78676666D02*
X78106247Y-78676666D01*
X78106247Y-78676666D02*
X78296723Y-78724285D01*
X78296723Y-78724285D02*
X78391961Y-78771904D01*
X78391961Y-78771904D02*
X78487200Y-78867142D01*
X78487200Y-78867142D02*
X78534819Y-79009999D01*
X78534819Y-79009999D02*
X78534819Y-79248094D01*
X77868152Y-77819523D02*
X78534819Y-77819523D01*
X77487200Y-78057618D02*
X78201485Y-78295713D01*
X78201485Y-78295713D02*
X78201485Y-77676666D01*
X78854819Y-82581904D02*
X77854819Y-82581904D01*
X78854819Y-82010476D02*
X78283390Y-82439047D01*
X77854819Y-82010476D02*
X78426247Y-82581904D01*
D11*
%TO.C,D10*%
X53170000Y-91955000D02*
X53170000Y-95045000D01*
X53170000Y-91955170D02*
G75*
G02*
X58720000Y-93500462I2560000J-1544830D01*
G01*
X58720000Y-93499538D02*
G75*
G02*
X53170000Y-95044830I-2990000J-462D01*
G01*
X58230000Y-93500000D02*
G75*
G02*
X53230000Y-93500000I-2500000J0D01*
G01*
X53230000Y-93500000D02*
G75*
G02*
X58230000Y-93500000I2500000J0D01*
G01*
%TO.C,R2*%
X79300000Y-153500000D02*
X82610000Y-153500000D01*
X82610000Y-152130000D02*
X82610000Y-154870000D01*
X82610000Y-154870000D02*
X89150000Y-154870000D01*
X89150000Y-152130000D02*
X82610000Y-152130000D01*
X89150000Y-154870000D02*
X89150000Y-152130000D01*
X92460000Y-153500000D02*
X89150000Y-153500000D01*
%TO.C,R12*%
X79300000Y-146550000D02*
X82610000Y-146550000D01*
X82610000Y-145180000D02*
X82610000Y-147920000D01*
X82610000Y-147920000D02*
X89150000Y-147920000D01*
X89150000Y-145180000D02*
X82610000Y-145180000D01*
X89150000Y-147920000D02*
X89150000Y-145180000D01*
X92460000Y-146550000D02*
X89150000Y-146550000D01*
%TO.C,SC6*%
X69870000Y-68650000D02*
X69870000Y-66050000D01*
X72530000Y-66050000D02*
X69870000Y-66050000D01*
X72530000Y-68650000D02*
X69870000Y-68650000D01*
X72530000Y-68650000D02*
X72530000Y-66050000D01*
X72530000Y-69920000D02*
X72530000Y-71250000D01*
X72530000Y-71250000D02*
X71200000Y-71250000D01*
%TO.C,D7*%
X106280000Y-70010000D02*
X106280000Y-79750000D01*
X106280000Y-78085000D02*
X111720000Y-78085000D01*
X106280000Y-78205000D02*
X111720000Y-78205000D01*
X106280000Y-78325000D02*
X111720000Y-78325000D01*
X106280000Y-79750000D02*
X111720000Y-79750000D01*
X109000000Y-69100000D02*
X109000000Y-70010000D01*
X109000000Y-80660000D02*
X109000000Y-79750000D01*
X111720000Y-70010000D02*
X106280000Y-70010000D01*
X111720000Y-79750000D02*
X111720000Y-70010000D01*
%TO.C,R10*%
X77420000Y-87300000D02*
X80730000Y-87300000D01*
X80730000Y-85930000D02*
X80730000Y-88670000D01*
X80730000Y-88670000D02*
X87270000Y-88670000D01*
X87270000Y-85930000D02*
X80730000Y-85930000D01*
X87270000Y-88670000D02*
X87270000Y-85930000D01*
X90580000Y-87300000D02*
X87270000Y-87300000D01*
%TO.C,BT1*%
X52250000Y-139000000D02*
X54750000Y-139000000D01*
X57360000Y-122560000D02*
X134640000Y-122560000D01*
X57360000Y-129560000D02*
X57360000Y-122560000D01*
X57360000Y-136440000D02*
X57360000Y-143420000D01*
X57360000Y-143440000D02*
X134640000Y-143440000D01*
X134640000Y-122560000D02*
X134640000Y-129560000D01*
X134640000Y-136440000D02*
X139000000Y-136440000D01*
X134640000Y-143440000D02*
X134640000Y-136440000D01*
X138500000Y-137750000D02*
X138500000Y-140250000D01*
X139750000Y-139000000D02*
X137250000Y-139000000D01*
%TO.C,C1*%
X96384165Y-83640000D02*
X96615835Y-83640000D01*
X96384165Y-84360000D02*
X96615835Y-84360000D01*
%TO.C,D6*%
X69880000Y-76390000D02*
X69880000Y-80630000D01*
X69880000Y-79790000D02*
X72120000Y-79790000D01*
X69880000Y-79910000D02*
X72120000Y-79910000D01*
X69880000Y-80030000D02*
X72120000Y-80030000D01*
X69880000Y-80630000D02*
X72120000Y-80630000D01*
X71000000Y-75740000D02*
X71000000Y-76390000D01*
X71000000Y-81280000D02*
X71000000Y-80630000D01*
X72120000Y-76390000D02*
X69880000Y-76390000D01*
X72120000Y-80630000D02*
X72120000Y-76390000D01*
%TO.C,R11*%
X100920000Y-150050000D02*
X104230000Y-150050000D01*
X104230000Y-148680000D02*
X104230000Y-151420000D01*
X104230000Y-151420000D02*
X110770000Y-151420000D01*
X110770000Y-148680000D02*
X104230000Y-148680000D01*
X110770000Y-151420000D02*
X110770000Y-148680000D01*
X114080000Y-150050000D02*
X110770000Y-150050000D01*
%TO.C,R4*%
X123800000Y-85000000D02*
X127110000Y-85000000D01*
X127110000Y-83630000D02*
X127110000Y-86370000D01*
X127110000Y-86370000D02*
X133650000Y-86370000D01*
X133650000Y-83630000D02*
X127110000Y-83630000D01*
X133650000Y-86370000D02*
X133650000Y-83630000D01*
X136960000Y-85000000D02*
X133650000Y-85000000D01*
D12*
%TO.C,U3*%
X114323000Y-79775401D02*
X114323000Y-83129399D01*
X118677000Y-83129399D02*
X118677000Y-79775401D01*
D11*
%TO.C,C4*%
X113384165Y-86140000D02*
X113615835Y-86140000D01*
X113384165Y-86860000D02*
X113615835Y-86860000D01*
%TO.C,R7*%
X95420000Y-92000000D02*
X98730000Y-92000000D01*
X98730000Y-90630000D02*
X98730000Y-93370000D01*
X98730000Y-93370000D02*
X105270000Y-93370000D01*
X105270000Y-90630000D02*
X98730000Y-90630000D01*
X105270000Y-93370000D02*
X105270000Y-90630000D01*
X108580000Y-92000000D02*
X105270000Y-92000000D01*
%TO.C,SC5*%
X74320000Y-68650000D02*
X74320000Y-66050000D01*
X76980000Y-66050000D02*
X74320000Y-66050000D01*
X76980000Y-68650000D02*
X74320000Y-68650000D01*
X76980000Y-68650000D02*
X76980000Y-66050000D01*
X76980000Y-69920000D02*
X76980000Y-71250000D01*
X76980000Y-71250000D02*
X75650000Y-71250000D01*
%TO.C,D1*%
X93180000Y-76390000D02*
X93180000Y-80630000D01*
X93180000Y-79790000D02*
X95420000Y-79790000D01*
X93180000Y-79910000D02*
X95420000Y-79910000D01*
X93180000Y-80030000D02*
X95420000Y-80030000D01*
X93180000Y-80630000D02*
X95420000Y-80630000D01*
X94300000Y-75740000D02*
X94300000Y-76390000D01*
X94300000Y-81280000D02*
X94300000Y-80630000D01*
X95420000Y-76390000D02*
X93180000Y-76390000D01*
X95420000Y-80630000D02*
X95420000Y-76390000D01*
%TO.C,C3*%
X122761252Y-88765000D02*
X122238748Y-88765000D01*
X122761252Y-90235000D02*
X122238748Y-90235000D01*
%TO.C,R9*%
X95300000Y-87300000D02*
X98610000Y-87300000D01*
X98610000Y-85930000D02*
X98610000Y-88670000D01*
X98610000Y-88670000D02*
X105150000Y-88670000D01*
X105150000Y-85930000D02*
X98610000Y-85930000D01*
X105150000Y-88670000D02*
X105150000Y-85930000D01*
X108460000Y-87300000D02*
X105150000Y-87300000D01*
%TO.C,J3*%
X65510000Y-145720000D02*
X65510000Y-148380000D01*
X68110000Y-145720000D02*
X65510000Y-145720000D01*
X68110000Y-145720000D02*
X68110000Y-148380000D01*
X68110000Y-148380000D02*
X65510000Y-148380000D01*
X69380000Y-145720000D02*
X70710000Y-145720000D01*
X70710000Y-145720000D02*
X70710000Y-147050000D01*
%TO.C,C5*%
X116783767Y-90990000D02*
X116491233Y-90990000D01*
X116783767Y-92010000D02*
X116491233Y-92010000D01*
%TO.C,SC1*%
X92920000Y-68650000D02*
X92920000Y-66050000D01*
X95580000Y-66050000D02*
X92920000Y-66050000D01*
X95580000Y-68650000D02*
X92920000Y-68650000D01*
X95580000Y-68650000D02*
X95580000Y-66050000D01*
X95580000Y-69920000D02*
X95580000Y-71250000D01*
X95580000Y-71250000D02*
X94250000Y-71250000D01*
%TO.C,D5*%
X74380000Y-76390000D02*
X74380000Y-80630000D01*
X74380000Y-79790000D02*
X76620000Y-79790000D01*
X74380000Y-79910000D02*
X76620000Y-79910000D01*
X74380000Y-80030000D02*
X76620000Y-80030000D01*
X74380000Y-80630000D02*
X76620000Y-80630000D01*
X75500000Y-75740000D02*
X75500000Y-76390000D01*
X75500000Y-81280000D02*
X75500000Y-80630000D01*
X76620000Y-76390000D02*
X74380000Y-76390000D01*
X76620000Y-80630000D02*
X76620000Y-76390000D01*
%TO.C,D3*%
X83780000Y-76390000D02*
X83780000Y-80630000D01*
X83780000Y-79790000D02*
X86020000Y-79790000D01*
X83780000Y-79910000D02*
X86020000Y-79910000D01*
X83780000Y-80030000D02*
X86020000Y-80030000D01*
X83780000Y-80630000D02*
X86020000Y-80630000D01*
X84900000Y-75740000D02*
X84900000Y-76390000D01*
X84900000Y-81280000D02*
X84900000Y-80630000D01*
X86020000Y-76390000D02*
X83780000Y-76390000D01*
X86020000Y-80630000D02*
X86020000Y-76390000D01*
%TO.C,R3*%
X79300000Y-157550000D02*
X82610000Y-157550000D01*
X82610000Y-156180000D02*
X82610000Y-158920000D01*
X82610000Y-158920000D02*
X89150000Y-158920000D01*
X89150000Y-156180000D02*
X82610000Y-156180000D01*
X89150000Y-158920000D02*
X89150000Y-156180000D01*
X92460000Y-157550000D02*
X89150000Y-157550000D01*
D12*
%TO.C,U2*%
X71659200Y-151000000D02*
X72675200Y-151000000D01*
X71913200Y-151635000D02*
X71913200Y-150365000D01*
X72675200Y-151000000D02*
X71913200Y-150365000D01*
X72675200Y-151000000D02*
X71913200Y-150492000D01*
X72675200Y-151000000D02*
X71913200Y-150619000D01*
X72675200Y-151000000D02*
X71913200Y-150746000D01*
X72675200Y-151000000D02*
X71913200Y-150873000D01*
X72675200Y-151000000D02*
X71913200Y-151127000D01*
X72675200Y-151000000D02*
X71913200Y-151254000D01*
X72675200Y-151000000D02*
X71913200Y-151381000D01*
X72675200Y-151000000D02*
X71913200Y-151508000D01*
X72675200Y-151000000D02*
X71913200Y-151635000D01*
X72675200Y-151000000D02*
X72675200Y-150365000D01*
X72675200Y-151000000D02*
X72929200Y-151000000D01*
X72675200Y-151635000D02*
X72675200Y-151000000D01*
D11*
%TO.C,C8*%
X113520000Y-154098335D02*
X113520000Y-153866665D01*
X114240000Y-154098335D02*
X114240000Y-153866665D01*
%TO.C,C2*%
X118028733Y-85990000D02*
X118321267Y-85990000D01*
X118028733Y-87010000D02*
X118321267Y-87010000D01*
%TO.C,R5*%
X101130000Y-71110000D02*
X101130000Y-77650000D01*
X101130000Y-77650000D02*
X103870000Y-77650000D01*
X102500000Y-67800000D02*
X102500000Y-71110000D01*
X102500000Y-80960000D02*
X102500000Y-77650000D01*
X103870000Y-71110000D02*
X101130000Y-71110000D01*
X103870000Y-77650000D02*
X103870000Y-71110000D01*
%TO.C,J2*%
X52170000Y-120730000D02*
X52170000Y-118130000D01*
X54830000Y-118130000D02*
X52170000Y-118130000D01*
X54830000Y-120730000D02*
X52170000Y-120730000D01*
X54830000Y-120730000D02*
X54830000Y-118130000D01*
X54830000Y-122000000D02*
X54830000Y-123330000D01*
X54830000Y-123330000D02*
X53500000Y-123330000D01*
%TO.C,BT2*%
X52250000Y-103000000D02*
X54750000Y-103000000D01*
X53500000Y-104250000D02*
X53500000Y-101750000D01*
X57360000Y-98560000D02*
X57360000Y-105560000D01*
X57360000Y-105560000D02*
X53000000Y-105560000D01*
X57360000Y-119440000D02*
X57360000Y-112440000D01*
X134640000Y-98560000D02*
X57360000Y-98560000D01*
X134640000Y-105560000D02*
X134640000Y-98580000D01*
X134640000Y-112440000D02*
X134640000Y-119440000D01*
X134640000Y-119440000D02*
X57360000Y-119440000D01*
X139750000Y-103000000D02*
X137250000Y-103000000D01*
%TO.C,D8*%
X101560000Y-153550000D02*
X102580000Y-153550000D01*
X102580000Y-152080000D02*
X102580000Y-155020000D01*
X102580000Y-155020000D02*
X108020000Y-155020000D01*
X107000000Y-155020000D02*
X107000000Y-152080000D01*
X107120000Y-155020000D02*
X107120000Y-152080000D01*
X107240000Y-155020000D02*
X107240000Y-152080000D01*
X108020000Y-152080000D02*
X102580000Y-152080000D01*
X108020000Y-155020000D02*
X108020000Y-152080000D01*
X109040000Y-153550000D02*
X108020000Y-153550000D01*
%TO.C,U1*%
X68590000Y-154100000D02*
X67090000Y-154100000D01*
X68590000Y-154100000D02*
X70090000Y-154100000D01*
X68590000Y-158320000D02*
X67090000Y-158320000D01*
X68590000Y-158320000D02*
X70090000Y-158320000D01*
X66402500Y-154125000D02*
X66162500Y-153795000D01*
X66642500Y-153795000D01*
X66402500Y-154125000D01*
G36*
X66402500Y-154125000D02*
G01*
X66162500Y-153795000D01*
X66642500Y-153795000D01*
X66402500Y-154125000D01*
G37*
%TO.C,C9*%
X124620000Y-149000000D02*
G75*
G02*
X119380000Y-149000000I-2620000J0D01*
G01*
X119380000Y-149000000D02*
G75*
G02*
X124620000Y-149000000I2620000J0D01*
G01*
%TO.C,C7*%
X131265000Y-92798752D02*
X131265000Y-92276248D01*
X132735000Y-92798752D02*
X132735000Y-92276248D01*
%TO.C,D9*%
X53170000Y-82455000D02*
X53170000Y-85545000D01*
X53170000Y-82455170D02*
G75*
G02*
X58720000Y-84000462I2560000J-1544830D01*
G01*
X58720000Y-83999538D02*
G75*
G02*
X53170000Y-85544830I-2990000J-462D01*
G01*
X58230000Y-84000000D02*
G75*
G02*
X53230000Y-84000000I-2500000J0D01*
G01*
X53230000Y-84000000D02*
G75*
G02*
X58230000Y-84000000I2500000J0D01*
G01*
%TO.C,C10*%
X95145000Y-148848752D02*
X95145000Y-148326248D01*
X96615000Y-148848752D02*
X96615000Y-148326248D01*
%TO.C,C11*%
X97370000Y-148696267D02*
X97370000Y-148403733D01*
X98390000Y-148696267D02*
X98390000Y-148403733D01*
%TO.C,L1*%
X126970000Y-70500000D02*
G75*
G02*
X118030000Y-70500000I-4470000J0D01*
G01*
X118030000Y-70500000D02*
G75*
G02*
X126970000Y-70500000I4470000J0D01*
G01*
%TO.C,R6*%
X97630000Y-71110000D02*
X97630000Y-77650000D01*
X97630000Y-77650000D02*
X100370000Y-77650000D01*
X99000000Y-67800000D02*
X99000000Y-71110000D01*
X99000000Y-80960000D02*
X99000000Y-77650000D01*
X100370000Y-71110000D02*
X97630000Y-71110000D01*
X100370000Y-77650000D02*
X100370000Y-71110000D01*
%TO.C,R1*%
X123800000Y-81500000D02*
X127110000Y-81500000D01*
X127110000Y-80130000D02*
X127110000Y-82870000D01*
X127110000Y-82870000D02*
X133650000Y-82870000D01*
X133650000Y-80130000D02*
X127110000Y-80130000D01*
X133650000Y-82870000D02*
X133650000Y-80130000D01*
X136960000Y-81500000D02*
X133650000Y-81500000D01*
%TO.C,D2*%
X88480000Y-76390000D02*
X88480000Y-80630000D01*
X88480000Y-79790000D02*
X90720000Y-79790000D01*
X88480000Y-79910000D02*
X90720000Y-79910000D01*
X88480000Y-80030000D02*
X90720000Y-80030000D01*
X88480000Y-80630000D02*
X90720000Y-80630000D01*
X89600000Y-75740000D02*
X89600000Y-76390000D01*
X89600000Y-81280000D02*
X89600000Y-80630000D01*
X90720000Y-76390000D02*
X88480000Y-76390000D01*
X90720000Y-80630000D02*
X90720000Y-76390000D01*
%TO.C,R14*%
X100920000Y-146550000D02*
X104230000Y-146550000D01*
X104230000Y-145180000D02*
X104230000Y-147920000D01*
X104230000Y-147920000D02*
X110770000Y-147920000D01*
X110770000Y-145180000D02*
X104230000Y-145180000D01*
X110770000Y-147920000D02*
X110770000Y-145180000D01*
X114080000Y-146550000D02*
X110770000Y-146550000D01*
%TO.C,R13*%
X79300000Y-150050000D02*
X82610000Y-150050000D01*
X82610000Y-148680000D02*
X82610000Y-151420000D01*
X82610000Y-151420000D02*
X89150000Y-151420000D01*
X89150000Y-148680000D02*
X82610000Y-148680000D01*
X89150000Y-151420000D02*
X89150000Y-148680000D01*
X92460000Y-150050000D02*
X89150000Y-150050000D01*
%TO.C,SC4*%
X78970000Y-68650000D02*
X78970000Y-66050000D01*
X81630000Y-66050000D02*
X78970000Y-66050000D01*
X81630000Y-68650000D02*
X78970000Y-68650000D01*
X81630000Y-68650000D02*
X81630000Y-66050000D01*
X81630000Y-69920000D02*
X81630000Y-71250000D01*
X81630000Y-71250000D02*
X80300000Y-71250000D01*
%TO.C,SC2*%
X88270000Y-68650000D02*
X88270000Y-66050000D01*
X90930000Y-66050000D02*
X88270000Y-66050000D01*
X90930000Y-68650000D02*
X88270000Y-68650000D01*
X90930000Y-68650000D02*
X90930000Y-66050000D01*
X90930000Y-69920000D02*
X90930000Y-71250000D01*
X90930000Y-71250000D02*
X89600000Y-71250000D01*
%TO.C,L2*%
X119447936Y-154290000D02*
X123552064Y-154290000D01*
X119447936Y-157710000D02*
X123552064Y-157710000D01*
%TO.C,R8*%
X77420000Y-91800000D02*
X80730000Y-91800000D01*
X80730000Y-90430000D02*
X80730000Y-93170000D01*
X80730000Y-93170000D02*
X87270000Y-93170000D01*
X87270000Y-90430000D02*
X80730000Y-90430000D01*
X87270000Y-93170000D02*
X87270000Y-90430000D01*
X90580000Y-91800000D02*
X87270000Y-91800000D01*
%TO.C,SC3*%
X83620000Y-68650000D02*
X83620000Y-66050000D01*
X86280000Y-66050000D02*
X83620000Y-66050000D01*
X86280000Y-68650000D02*
X83620000Y-68650000D01*
X86280000Y-68650000D02*
X86280000Y-66050000D01*
X86280000Y-69920000D02*
X86280000Y-71250000D01*
X86280000Y-71250000D02*
X84950000Y-71250000D01*
%TO.C,D4*%
X79080000Y-76390000D02*
X79080000Y-80630000D01*
X79080000Y-79790000D02*
X81320000Y-79790000D01*
X79080000Y-79910000D02*
X81320000Y-79910000D01*
X79080000Y-80030000D02*
X81320000Y-80030000D01*
X79080000Y-80630000D02*
X81320000Y-80630000D01*
X80200000Y-75740000D02*
X80200000Y-76390000D01*
X80200000Y-81280000D02*
X80200000Y-80630000D01*
X81320000Y-76390000D02*
X79080000Y-76390000D01*
X81320000Y-80630000D02*
X81320000Y-76390000D01*
%TD*%
M02*
